<svg width="146" height="148" viewBox="0 0 146 148" fill="none" xmlns="http://www.w3.org/2000/svg">
<g filter="url(#filter0_d_1_283)">
<path d="M72.592 136.179C107.072 136.179 135.024 107.893 135.024 73C135.024 38.1069 107.072 9.8205 72.592 9.8205C38.1118 9.8205 10.1602 38.1069 10.1602 73C10.1602 107.893 38.1118 136.179 72.592 136.179Z" fill="url(#paint0_radial_1_283)"/>
<path d="M72.592 136.179C107.072 136.179 135.024 107.893 135.024 73C135.024 38.1069 107.072 9.8205 72.592 9.8205C38.1118 9.8205 10.1602 38.1069 10.1602 73C10.1602 107.893 38.1118 136.179 72.592 136.179Z" fill="url(#paint1_linear_1_283)"/>
<path d="M124.558 68.0175C122.795 65.988 120.729 65.0377 119.03 65.231C118.598 65.2148 117.829 65.5047 117.829 65.5047L116.115 66.3906C115.554 66.6806 115.058 67.1477 114.673 67.792C114.609 67.8887 114.561 67.9853 114.513 68.098C114.497 68.1303 114.48 68.1625 114.464 68.1947C114.433 68.2752 114.4 68.3396 114.368 68.4202C114.352 68.4524 114.336 68.5007 114.321 68.533C114.288 68.6135 114.257 68.694 114.24 68.7584C114.224 68.7907 114.208 68.8229 114.208 68.8712C114.176 68.984 114.144 69.0967 114.112 69.2095C114.08 69.3222 114.064 69.4511 114.032 69.5638C114.032 69.596 114.016 69.6443 114.016 69.6766C114 69.7571 113.984 69.8538 113.984 69.9343C113.984 69.9826 113.968 70.031 113.968 70.0631C113.952 70.1437 113.952 70.2403 113.936 70.337C113.936 70.3853 113.936 70.4175 113.92 70.4658C113.92 70.5947 113.904 70.7074 113.904 70.8363V70.8525C113.904 70.9652 113.904 71.0941 113.904 71.2068C113.904 71.239 113.904 71.2712 113.904 71.3195C113.904 71.4001 113.904 71.4967 113.92 71.5773V71.5933C113.92 71.6095 113.92 71.6094 113.92 71.6256C113.936 71.8028 113.952 71.9638 113.968 72.141C113.968 72.1572 113.968 72.1732 113.968 72.2054C113.968 72.2216 113.968 72.2377 113.968 72.2377C113.984 72.3988 114.016 72.5437 114.048 72.7048C114.048 72.7209 114.048 72.7209 114.048 72.737C114.048 72.7692 114.064 72.7853 114.064 72.8175C114.08 72.9303 114.112 73.043 114.128 73.1558C114.128 73.188 114.144 73.2041 114.144 73.2202C114.144 73.2363 114.16 73.2685 114.16 73.2847C114.176 73.3813 114.208 73.4779 114.24 73.5907C114.257 73.6229 114.257 73.6551 114.257 73.6873C114.257 73.7035 114.257 73.7195 114.272 73.7195C114.304 73.8323 114.336 73.9451 114.368 74.0578C114.368 74.0739 114.385 74.1061 114.385 74.1222C114.385 74.1222 114.385 74.1222 114.385 74.1383C114.433 74.2672 114.464 74.4122 114.513 74.541V74.5571C114.528 74.5894 114.545 74.6215 114.545 74.6538C114.577 74.7504 114.609 74.8471 114.641 74.9276C114.641 74.9437 114.657 74.9598 114.657 74.9598C114.673 74.992 114.689 75.0403 114.705 75.0726C114.737 75.1531 114.769 75.2337 114.801 75.3142C114.817 75.3303 114.817 75.3464 114.833 75.3786C114.849 75.4108 114.865 75.443 114.881 75.4753C114.913 75.5558 114.945 75.6363 114.993 75.7007C115.009 75.733 115.009 75.749 115.025 75.7813C115.041 75.8135 115.058 75.8296 115.073 75.8618C115.105 75.9424 115.153 76.0229 115.186 76.1034C115.201 76.1357 115.217 76.1678 115.234 76.2001C115.25 76.2162 115.25 76.2484 115.265 76.2645C115.314 76.345 115.362 76.4417 115.41 76.5222C115.426 76.5545 115.442 76.5866 115.458 76.6189C115.458 76.635 115.474 76.635 115.474 76.6511C115.554 76.78 115.634 76.9088 115.714 77.0537C115.794 77.1988 115.89 77.3276 115.971 77.4565C115.987 77.4725 115.987 77.4887 116.002 77.5048C116.018 77.5209 116.035 77.5531 116.051 77.5692C116.13 77.6981 116.227 77.8108 116.307 77.9397C116.323 77.9558 116.339 77.988 116.355 78.0041L116.371 78.0202C116.499 78.1813 116.627 78.3421 116.755 78.5033C116.772 78.5192 116.788 78.5358 116.788 78.5518C116.836 78.6002 116.868 78.6486 116.916 78.6971C117.044 78.8417 117.172 78.9704 117.284 79.0997C117.316 79.1316 117.349 79.1641 117.364 79.1959C117.396 79.2284 117.413 79.2443 117.444 79.2769C117.492 79.3246 117.541 79.3571 117.589 79.4056C117.669 79.4858 117.765 79.5668 117.845 79.647C117.909 79.7114 117.973 79.7598 118.037 79.8241C118.117 79.8885 118.214 79.9694 118.293 80.0338C118.357 80.0822 118.421 80.1466 118.502 80.195C118.582 80.2593 118.678 80.3237 118.758 80.3721C118.822 80.4206 118.902 80.4683 118.966 80.5167C119.046 80.5652 119.143 80.6295 119.222 80.6779C119.271 80.6939 119.303 80.7264 119.351 80.7582C119.383 80.7748 119.415 80.7907 119.447 80.8066C119.495 80.8391 119.559 80.871 119.607 80.8876C119.703 80.9353 119.783 80.9678 119.864 81.0163C119.911 81.0322 119.959 81.0647 120.023 81.0806C120.056 81.0965 120.072 81.0965 120.104 81.1131C120.152 81.1291 120.184 81.145 120.232 81.1609C120.328 81.2093 120.441 81.2418 120.536 81.2737C120.569 81.2903 120.6 81.2903 120.633 81.3062C120.665 81.3221 120.712 81.3221 120.745 81.338C120.825 81.3546 120.889 81.3705 120.969 81.403C121.001 81.419 121.033 81.419 121.065 81.4349C121.113 81.4508 121.145 81.4508 121.193 81.4508C121.257 81.4674 121.306 81.4674 121.37 81.4833C121.402 81.4833 121.434 81.4992 121.466 81.4992C121.53 81.4992 121.578 81.5158 121.642 81.5158C121.69 81.5158 121.722 81.5317 121.77 81.5317C121.786 81.5317 121.802 81.5317 121.818 81.5317C121.93 81.5317 122.043 81.5317 122.138 81.5317C122.138 81.5317 122.138 81.5317 122.155 81.5317C122.25 81.5317 122.347 81.5158 122.459 81.5158C122.475 81.5158 122.491 81.5158 122.523 81.4992C122.555 81.4992 122.587 81.4833 122.619 81.4833C122.667 81.4833 122.715 81.4674 122.747 81.4674C122.795 81.4508 122.844 81.4508 122.875 81.4349C122.908 81.4349 122.939 81.419 122.972 81.419C122.987 81.419 123.004 81.419 123.02 81.403C123.115 81.3705 123.196 81.3546 123.292 81.3221C123.292 81.3221 123.292 81.3221 123.308 81.3221C123.324 81.3221 123.324 81.3062 123.34 81.3062C123.42 81.2737 123.484 81.2418 123.564 81.2093C123.596 81.1934 123.645 81.1775 123.676 81.1609C123.676 81.1609 125.119 80.5492 125.278 80.4683C125.887 80.1625 126.416 79.6311 126.816 78.9544C128.467 76.2323 127.441 71.3357 124.558 68.0175Z" fill="url(#paint2_linear_1_283)"/>
<path d="M126.176 78.1975C126.592 77.4887 126.816 76.635 126.849 75.6847C126.849 75.6686 126.849 75.6363 126.849 75.6202C126.849 75.5558 126.849 75.4914 126.849 75.427V75.4108C126.849 75.282 126.849 75.1531 126.833 75.0243C126.833 75.0082 126.833 74.992 126.833 74.9598C126.833 74.8954 126.833 74.831 126.816 74.7827C126.816 74.7504 126.816 74.7343 126.816 74.7021C126.801 74.5088 126.768 74.3155 126.752 74.1061C126.752 74.0739 126.737 74.0417 126.737 74.0095C126.721 73.9451 126.721 73.8968 126.704 73.8323C126.704 73.8001 126.688 73.7679 126.688 73.7356C126.673 73.639 126.64 73.5263 126.624 73.4296C126.609 73.3974 126.609 73.3652 126.592 73.3169C126.576 73.2685 126.56 73.2041 126.56 73.1558C126.544 73.1075 126.544 73.0753 126.528 73.0269C126.512 72.9786 126.496 72.9303 126.48 72.8658C126.464 72.8176 126.448 72.7531 126.432 72.7048C126.416 72.6404 126.384 72.5598 126.368 72.4954C126.352 72.447 126.336 72.3987 126.32 72.3504C126.304 72.3021 126.288 72.2538 126.272 72.2054C126.256 72.1571 126.24 72.0927 126.208 72.0444C126.192 71.9961 126.176 71.9638 126.16 71.9155C126.128 71.835 126.096 71.7383 126.064 71.6578C126.048 71.6256 126.032 71.5773 126.015 71.545C125.984 71.4806 125.967 71.4323 125.936 71.3679C125.92 71.3357 125.903 71.2874 125.887 71.2551C125.855 71.1746 125.823 71.1102 125.791 71.0296C125.775 70.9974 125.759 70.9813 125.759 70.9491C125.711 70.8686 125.679 70.788 125.631 70.6914C125.615 70.6591 125.599 70.627 125.583 70.5947C125.551 70.5303 125.519 70.4659 125.471 70.4014C125.455 70.3692 125.439 70.337 125.423 70.3209C125.375 70.2243 125.327 70.1437 125.263 70.0632C125.247 70.0471 125.247 70.031 125.23 70.0148C125.183 69.9504 125.135 69.8699 125.086 69.8055C125.071 69.7732 125.054 69.7571 125.038 69.7249C124.99 69.6605 124.942 69.5799 124.894 69.5155C124.878 69.4994 124.862 69.4833 124.862 69.4672C124.798 69.3867 124.734 69.29 124.67 69.2095C124.653 69.1934 124.638 69.1612 124.622 69.1451C124.574 69.0806 124.525 69.0162 124.461 68.9517C124.446 68.9356 124.429 68.9035 124.397 68.8873C124.333 68.8068 124.269 68.7263 124.189 68.6457C124.173 68.6296 124.157 68.6135 124.157 68.5974C124.141 68.5813 124.109 68.5491 124.093 68.5329C121.594 65.7464 118.454 65.392 117.06 67.7437C116.548 68.5974 116.339 69.6927 116.387 70.8846C116.387 70.9007 116.387 70.9169 116.387 70.9169C116.403 71.1102 116.419 71.2874 116.435 71.4806C116.435 71.4967 116.435 71.5129 116.435 71.5129C116.451 71.7061 116.483 71.8994 116.531 72.0927C116.531 72.1088 116.531 72.1088 116.531 72.1249C116.548 72.2538 116.579 72.3826 116.612 72.4954C116.612 72.5115 116.612 72.5115 116.612 72.5276C116.66 72.7209 116.707 72.9303 116.772 73.1236C116.772 73.1397 116.772 73.1397 116.788 73.1558C116.852 73.3491 116.916 73.5585 116.98 73.7517C116.98 73.7517 116.98 73.7679 116.996 73.7679C117.124 74.1061 117.252 74.4444 117.413 74.7665C117.508 74.9598 117.605 75.1692 117.717 75.3625C118.086 76.039 118.534 76.6672 119.046 77.2632C121.546 80.1784 124.75 80.5811 126.176 78.1975Z" fill="url(#paint3_linear_1_283)"/>
<path d="M123.901 68.8712C126.416 71.7545 127.313 76.0229 125.887 78.4231C125.711 78.713 125.519 78.9544 125.295 79.1641C125.631 78.9219 125.92 78.6002 126.16 78.1975C127.586 75.8135 126.688 71.545 124.173 68.6457C121.962 66.1169 119.222 65.4887 117.62 67.0028C119.255 65.7947 121.818 66.4873 123.901 68.8712Z" fill="#BF5D00"/>
<path d="M123.821 76.1515L123.789 76.1195C123.773 76.1356 123.757 76.1515 123.74 76.1676C123.773 76.1676 123.805 76.1515 123.821 76.1515Z" fill="#C46812"/>
<path d="M126.833 78.9545C125.199 81.693 121.546 81.2259 118.646 77.9236C115.762 74.6216 114.737 69.725 116.371 66.9867C118.005 64.2484 121.658 64.7155 124.558 68.0176C127.441 71.3357 128.467 76.2323 126.833 78.9545ZM117.044 67.7437C115.618 70.1276 116.515 74.3961 119.03 77.2954C121.546 80.1784 124.75 80.5811 126.176 78.1975C127.602 75.8135 126.704 71.5451 124.189 68.6458C121.658 65.7625 118.454 65.3598 117.044 67.7437Z" fill="url(#paint4_linear_1_283)"/>
<path d="M116.082 74.5411C116.066 74.4927 116.035 74.4605 116.018 74.4122L114.769 75.1531C114.801 75.2175 114.817 75.282 114.849 75.3464C114.865 75.3626 114.865 75.3786 114.881 75.4108C114.897 75.4431 114.913 75.4753 114.929 75.5075C114.961 75.588 114.993 75.6686 115.041 75.733C115.058 75.7652 115.058 75.7813 115.073 75.8135C115.089 75.8458 115.105 75.8619 115.122 75.8941C115.153 75.9746 115.201 76.0551 115.234 76.1357C115.25 76.1679 115.265 76.2001 115.281 76.2323C115.298 76.2485 115.298 76.2806 115.314 76.2967C115.362 76.3773 115.41 76.4739 115.458 76.5545C115.474 76.5867 115.49 76.6189 115.506 76.6511C115.506 76.6673 115.522 76.6673 115.522 76.6833C115.602 76.8122 115.682 76.941 115.762 77.086C115.81 77.1665 115.859 77.231 115.906 77.3115L117.092 76.6028C116.66 75.9585 116.323 75.2659 116.082 74.5411Z" fill="url(#paint5_linear_1_283)"/>
<path d="M117.477 77.1826L116.291 77.8914C116.307 77.9074 116.323 77.9397 116.339 77.9558C116.355 77.9719 116.371 78.0041 116.387 78.0202L116.403 78.0363C116.531 78.1975 116.66 78.3587 116.788 78.5192C116.804 78.5358 116.819 78.5517 116.819 78.5676C116.868 78.6161 116.9 78.6645 116.948 78.7129L116.964 78.7289L118.197 77.988C117.941 77.7464 117.701 77.4726 117.477 77.1826Z" fill="url(#paint6_linear_1_283)"/>
<path d="M115.217 72.2859L114.096 72.9464C114.112 73.0269 114.128 73.0913 114.144 73.1718C114.144 73.2041 114.16 73.2202 114.16 73.2363C114.16 73.2524 114.176 73.2846 114.176 73.3007C114.192 73.3974 114.224 73.494 114.257 73.6068C114.272 73.639 114.272 73.6712 114.272 73.7034C114.272 73.7195 114.272 73.7357 114.288 73.7357C114.321 73.8323 114.352 73.945 114.385 74.0417L115.554 73.349C115.41 73.0108 115.298 72.6565 115.217 72.2859Z" fill="url(#paint7_linear_1_283)"/>
<path d="M118.854 78.6646L117.605 79.4056C117.62 79.4215 117.62 79.4215 117.637 79.4374C117.717 79.5183 117.813 79.5986 117.893 79.6796C117.909 79.6955 117.925 79.7114 117.957 79.728C118.005 79.7757 118.053 79.8083 118.101 79.8567C118.181 79.921 118.278 80.0013 118.357 80.0656C118.421 80.1141 118.486 80.1784 118.566 80.2268C118.646 80.2912 118.742 80.3555 118.822 80.404C118.887 80.4524 118.966 80.5008 119.03 80.5493C119.11 80.5977 119.207 80.662 119.287 80.7105C119.335 80.7264 119.367 80.7582 119.415 80.7907C119.447 80.8067 119.479 80.8233 119.511 80.8392C119.559 80.871 119.623 80.9035 119.671 80.9194C119.767 80.9679 119.847 81.0004 119.928 81.0481C119.976 81.0647 120.023 81.0966 120.088 81.1132C120.12 81.1291 120.136 81.1291 120.168 81.145C120.216 81.1609 120.248 81.1775 120.296 81.1934C120.392 81.2419 120.505 81.2737 120.601 81.3062C120.633 81.3221 120.665 81.3221 120.697 81.3387C120.729 81.3546 120.777 81.3546 120.809 81.3705C120.889 81.3865 120.953 81.4031 121.033 81.4349C121.065 81.4508 121.097 81.4508 121.129 81.4674C121.178 81.4833 121.209 81.4833 121.257 81.4833C121.321 81.4992 121.37 81.4992 121.434 81.5158C121.466 81.5158 121.498 81.5318 121.53 81.5318C121.594 81.5318 121.642 81.5477 121.706 81.5477C121.754 81.5477 121.786 81.5636 121.834 81.5636C121.85 81.5636 121.866 81.5636 121.882 81.5636C121.994 81.5636 122.107 81.5636 122.203 81.5636C122.203 81.5636 122.203 81.5636 122.219 81.5636C122.315 81.5636 122.411 81.5477 122.523 81.5477C122.539 81.5477 122.555 81.5477 122.587 81.5318C122.619 81.5318 122.651 81.5158 122.683 81.5158C122.731 81.5158 122.78 81.4992 122.811 81.4992C122.859 81.4833 122.908 81.4833 122.939 81.4674C122.972 81.4674 123.004 81.4508 123.036 81.4508C123.051 81.4508 123.068 81.4508 123.084 81.4349C123.18 81.4031 123.26 81.3865 123.356 81.3546C123.356 81.3546 123.356 81.3546 123.372 81.3546C123.388 81.3546 123.388 81.3387 123.404 81.3387C123.452 81.3221 124.349 80.9519 124.398 80.9194C121.113 81.2259 118.918 78.7289 118.854 78.6646Z" fill="url(#paint8_linear_1_283)"/>
<path d="M39.295 40.0389C37.757 37.8322 35.8185 36.6563 34.1042 36.6563C33.6716 36.5919 32.8867 36.8014 32.8867 36.8014L31.0763 37.494C30.4835 37.7194 29.9388 38.1382 29.4902 38.7181C29.4261 38.8148 29.362 38.8953 29.298 38.992C29.2819 39.0241 29.2659 39.0564 29.2339 39.0886C29.1858 39.153 29.1538 39.2336 29.1057 39.298C29.0897 39.3302 29.0737 39.3624 29.0416 39.4108C29.0096 39.4913 28.9615 39.5557 28.9295 39.6363C28.9135 39.6684 28.8975 39.7007 28.8814 39.7329C28.8334 39.8456 28.7853 39.9423 28.7533 40.0551C28.7052 40.1678 28.6732 40.2805 28.6411 40.4094C28.6251 40.4416 28.6251 40.4899 28.609 40.5222C28.5931 40.6027 28.561 40.6832 28.545 40.7799C28.5289 40.8282 28.5289 40.8604 28.513 40.9087C28.4969 40.9893 28.4809 41.0859 28.4649 41.1664C28.4649 41.2147 28.4488 41.247 28.4488 41.2792C28.4329 41.4081 28.4008 41.5208 28.4008 41.6497V41.6658C28.3848 41.7786 28.3687 41.9074 28.3687 42.0202C28.3687 42.0523 28.3687 42.0846 28.3687 42.1329C28.3687 42.2134 28.3528 42.3101 28.3528 42.3906V42.4067C28.3528 42.4229 28.3528 42.4229 28.3528 42.4389C28.3528 42.6161 28.3367 42.7772 28.3528 42.9544C28.3528 42.9705 28.3528 42.9866 28.3528 43.0188C28.3528 43.0349 28.3528 43.051 28.3528 43.051C28.3528 43.2121 28.3687 43.3732 28.3687 43.5181C28.3687 43.5342 28.3687 43.5342 28.3687 43.5504C28.3687 43.5825 28.3687 43.5987 28.3687 43.6309C28.3848 43.7436 28.3848 43.8564 28.4008 43.9692C28.4008 44.0013 28.4008 44.0175 28.4008 44.0497C28.4008 44.0819 28.4008 44.098 28.4168 44.1302C28.4329 44.2268 28.4488 44.3396 28.4649 44.4363C28.4649 44.4685 28.4649 44.5007 28.4809 44.5329C28.4809 44.549 28.4809 44.5651 28.4809 44.5651C28.4969 44.6779 28.513 44.7906 28.545 44.9195C28.545 44.9356 28.545 44.9678 28.561 44.9839C28.561 44.9839 28.561 44.9839 28.561 45C28.5931 45.145 28.6251 45.2739 28.6411 45.4188V45.4349C28.6571 45.4671 28.6571 45.4994 28.6732 45.5476C28.6891 45.6443 28.7212 45.741 28.7373 45.8376C28.7373 45.8537 28.7373 45.8698 28.7533 45.8859C28.7693 45.9182 28.7693 45.9664 28.7853 45.9987C28.8013 46.0792 28.8334 46.1598 28.8494 46.2403C28.8494 46.2564 28.8654 46.2886 28.8654 46.3047C28.8814 46.337 28.8814 46.3691 28.8975 46.4175C28.9295 46.498 28.9455 46.5786 28.9776 46.6591C28.9936 46.6913 28.9936 46.7074 29.0096 46.7396C29.0256 46.7718 29.0256 46.8041 29.0416 46.8202C29.0737 46.9007 29.1057 46.9812 29.1378 47.0618C29.1538 47.094 29.1538 47.1262 29.1698 47.1584C29.1858 47.1745 29.1858 47.2067 29.2018 47.2229C29.2339 47.3195 29.2659 47.4 29.314 47.4966C29.33 47.5289 29.346 47.5611 29.362 47.6094C29.362 47.6255 29.3781 47.6417 29.3781 47.6417C29.4421 47.7866 29.5062 47.9154 29.5704 48.0604C29.6344 48.2054 29.7145 48.3504 29.7946 48.4953C29.8107 48.5114 29.8107 48.5276 29.8266 48.5437C29.8427 48.5597 29.8587 48.592 29.8587 48.6081C29.9228 48.7369 30.0029 48.8658 30.083 48.9946C30.099 49.0108 30.115 49.0429 30.115 49.0591C30.115 49.0752 30.1311 49.0752 30.1311 49.0913C30.2432 49.2685 30.3553 49.4456 30.4675 49.6228C30.4835 49.6389 30.4835 49.6551 30.4995 49.6712C30.5316 49.7195 30.5796 49.7839 30.6117 49.8323C30.7238 49.9933 30.836 50.1383 30.9321 50.2832C30.9641 50.3155 30.9801 50.3476 31.0122 50.3799C31.0282 50.4121 31.0602 50.4443 31.0763 50.4765C31.1083 50.5248 31.1564 50.5732 31.2044 50.6215C31.2845 50.7182 31.3487 50.7987 31.4288 50.8792C31.4928 50.9436 31.5409 51.0081 31.605 51.0725C31.6851 51.153 31.7652 51.2335 31.8293 51.3141C31.8933 51.3786 31.9574 51.4269 32.0215 51.4913C32.1016 51.5718 32.1817 51.6363 32.2618 51.7007C32.3259 51.749 32.39 51.8134 32.4541 51.8618C32.5342 51.9262 32.6143 51.9906 32.6944 52.055C32.7264 52.0873 32.7745 52.1195 32.8065 52.1356C32.8385 52.1517 32.8706 52.1839 32.9026 52.2C32.9507 52.2322 32.9988 52.2645 33.0469 52.2966C33.127 52.345 33.2071 52.4094 33.3032 52.4577C33.3512 52.49 33.3993 52.5222 33.4474 52.5382C33.4634 52.5544 33.4954 52.5705 33.5114 52.5866C33.5435 52.6027 33.5915 52.6188 33.6236 52.651C33.7197 52.6994 33.8158 52.7477 33.912 52.796C33.944 52.8121 33.976 52.8282 33.9921 52.8443C34.0241 52.8605 34.0722 52.8765 34.1042 52.8926C34.1683 52.9249 34.2484 52.941 34.3125 52.9732C34.3445 52.9893 34.3765 53.0054 34.4086 53.0054C34.4566 53.0215 34.4887 53.0215 34.5368 53.0376C34.6009 53.0537 34.6489 53.0698 34.697 53.0859C34.729 53.0859 34.7611 53.1021 34.7771 53.1181C34.8412 53.1342 34.8892 53.1342 34.9373 53.1504C34.9854 53.1665 35.0174 53.1665 35.0655 53.1826C35.0815 53.1826 35.0975 53.1826 35.1135 53.1987C35.2257 53.2148 35.3378 53.2309 35.4339 53.247C35.4339 53.247 35.4339 53.247 35.45 53.247C35.5461 53.2631 35.6422 53.2631 35.7543 53.2631C35.7704 53.2631 35.7864 53.2631 35.8184 53.2631C35.8505 53.2631 35.8825 53.2631 35.9145 53.2631C35.9626 53.2631 36.0107 53.2631 36.0427 53.2631C36.0908 53.2631 36.1389 53.247 36.1709 53.247C36.203 53.247 36.235 53.247 36.267 53.2309C36.2831 53.2309 36.2991 53.2309 36.3151 53.2309C36.4112 53.2148 36.5073 53.1987 36.6035 53.1665C36.6035 53.1665 36.6035 53.1665 36.6195 53.1665C36.6355 53.1665 36.6515 53.1665 36.6515 53.1504C36.7316 53.1342 36.8117 53.1021 36.8758 53.0859C36.9078 53.0698 36.9559 53.0537 36.9879 53.0376C36.9879 53.0376 38.4939 52.5866 38.6542 52.5222C39.295 52.2806 39.8717 51.8134 40.3524 51.1853C42.2748 48.6242 41.7942 43.647 39.295 40.0389Z" fill="url(#paint9_linear_1_283)"/>
<path d="M39.7916 50.3315C40.2882 49.6872 40.5927 48.8496 40.7368 47.9154C40.7368 47.8993 40.7368 47.8671 40.7529 47.851C40.7689 47.7866 40.7689 47.7221 40.7689 47.6738V47.6577C40.7849 47.5289 40.8009 47.4 40.8009 47.2711C40.8009 47.255 40.8009 47.2389 40.8009 47.2067C40.8009 47.1422 40.8009 47.0778 40.8009 47.0134C40.8009 46.9812 40.8009 46.9651 40.8009 46.9329C40.8009 46.7396 40.8009 46.5463 40.8009 46.3369C40.8009 46.3047 40.8009 46.2725 40.8009 46.2403C40.8009 46.1758 40.8009 46.1275 40.7849 46.0631C40.7849 46.0309 40.7849 45.9987 40.7849 45.9664C40.7689 45.8698 40.7689 45.757 40.7529 45.6604C40.7529 45.6282 40.7529 45.5799 40.7368 45.5476C40.7368 45.4993 40.7208 45.4349 40.7208 45.3866C40.7208 45.3383 40.7048 45.306 40.7048 45.2577C40.6888 45.2094 40.6888 45.145 40.6728 45.0967C40.6567 45.0483 40.6567 44.9839 40.6407 44.9356C40.6247 44.8551 40.6087 44.7906 40.5927 44.71C40.5766 44.6617 40.5766 44.5973 40.5606 44.549C40.5446 44.5007 40.5446 44.4523 40.5285 44.404C40.5126 44.3557 40.4965 44.2912 40.4805 44.2429C40.4645 44.1946 40.4645 44.1624 40.4484 44.1141C40.4325 44.0175 40.4004 43.9369 40.3683 43.8403C40.3524 43.808 40.3524 43.7597 40.3363 43.7275C40.3203 43.6631 40.3043 43.5986 40.2723 43.5342C40.2562 43.502 40.2402 43.4537 40.2402 43.4215C40.2081 43.3409 40.1922 43.2765 40.1601 43.196C40.1441 43.1637 40.1441 43.1476 40.128 43.1154C40.096 43.0349 40.064 42.9382 40.032 42.8577C40.0159 42.8255 39.9999 42.7933 39.9839 42.761C39.9519 42.6966 39.9198 42.6161 39.9038 42.5517C39.8877 42.5194 39.8717 42.4873 39.8717 42.455C39.8236 42.3584 39.7916 42.2617 39.7435 42.1812C39.7275 42.1651 39.7275 42.149 39.7115 42.1168C39.6795 42.0362 39.6314 41.9557 39.5994 41.8913C39.5833 41.859 39.5673 41.8269 39.5513 41.7946C39.5193 41.7141 39.4712 41.6497 39.4231 41.5691C39.4071 41.553 39.4071 41.5369 39.3911 41.5047C39.343 41.408 39.279 41.3275 39.2309 41.2309C39.2149 41.2147 39.1989 41.1826 39.1828 41.1664C39.1348 41.102 39.1027 41.0215 39.0547 40.957C39.0386 40.9248 39.0226 40.9087 39.0066 40.8765C38.9425 40.7799 38.8945 40.6993 38.8303 40.6188C38.8144 40.6027 38.8144 40.5866 38.7983 40.5704C38.7823 40.5383 38.7663 40.5221 38.7502 40.4899C36.5714 37.4456 33.4954 36.7369 31.8453 38.9275C31.2365 39.7168 30.9161 40.7959 30.836 41.9879C30.836 42.004 30.836 42.0201 30.836 42.0201C30.8199 42.2134 30.8199 42.3906 30.8199 42.5839C30.8199 42.6 30.8199 42.6161 30.8199 42.6161C30.8199 42.8094 30.836 43.0027 30.852 43.196C30.852 43.2121 30.852 43.2121 30.852 43.2282C30.868 43.357 30.868 43.4859 30.8841 43.6148C30.8841 43.6309 30.8841 43.6309 30.8841 43.6469C30.9 43.8564 30.9321 44.0496 30.9802 44.2591C30.9802 44.2752 30.9802 44.2752 30.9802 44.2912C31.0122 44.5007 31.0603 44.694 31.1084 44.9034C31.1084 44.9195 31.1084 44.9195 31.1084 44.9356C31.1885 45.2899 31.3006 45.6282 31.4127 45.9826C31.4928 46.1919 31.5729 46.4014 31.653 46.6107C31.9414 47.3194 32.3099 47.996 32.7585 48.6403C34.9693 51.7812 38.1094 52.5382 39.7916 50.3315Z" fill="url(#paint10_linear_1_283)"/>
<path d="M38.558 40.8121C40.7529 43.953 41.1693 48.302 39.4872 50.5248C39.2789 50.7987 39.0547 51.0242 38.8144 51.2014C39.1668 50.9919 39.5032 50.702 39.7756 50.3315C41.4578 48.1248 41.0252 43.7758 38.8464 40.6188C36.9239 37.8483 34.2644 36.9302 32.5181 38.251C34.2644 37.2362 36.7316 38.2027 38.558 40.8121Z" fill="#BF5D00"/>
<path d="M37.6768 48.0441L37.6448 47.996C37.6288 48.012 37.6128 48.028 37.5968 48.0441C37.6288 48.0441 37.6608 48.0441 37.6768 48.0441Z" fill="#C46812"/>
<path d="M40.3524 51.1531C38.4298 53.6819 34.8412 52.8283 32.3419 49.2202C29.8267 45.6121 29.362 40.6349 31.2686 38.1061C33.191 35.5772 36.7797 36.4309 39.2789 40.039C41.7942 43.647 42.2748 48.6242 40.3524 51.1531ZM31.8453 38.9275C30.1631 41.1343 30.5957 45.4833 32.7745 48.6403C34.9693 51.7812 38.0934 52.5383 39.7756 50.3316C41.4578 48.1249 41.0252 43.7759 38.8464 40.6189C36.6675 37.4779 33.5275 36.7208 31.8453 38.9275Z" fill="url(#paint11_linear_1_283)"/>
<path d="M30.147 45.5638C30.131 45.5155 30.115 45.4671 30.099 45.4349L28.7693 46.047C28.7853 46.1114 28.8013 46.1919 28.8333 46.2564C28.8333 46.2725 28.8494 46.3047 28.8494 46.3208C28.8654 46.353 28.8654 46.3852 28.8814 46.4335C28.9135 46.5141 28.9295 46.5946 28.9615 46.6752C28.9776 46.7074 28.9776 46.7235 28.9936 46.7557C29.0096 46.7879 29.0096 46.8202 29.0256 46.8362C29.0577 46.9168 29.0897 46.9973 29.1217 47.0778C29.1378 47.1101 29.1378 47.1423 29.1538 47.1745C29.1698 47.1906 29.1698 47.2229 29.1858 47.2389C29.2179 47.3356 29.2499 47.4161 29.298 47.5128C29.314 47.545 29.33 47.5772 29.346 47.6255C29.346 47.6417 29.362 47.6577 29.362 47.6577C29.4261 47.8027 29.4902 47.9316 29.5543 48.0765C29.5863 48.157 29.6344 48.2376 29.6664 48.3181L30.9321 47.7382C30.5796 47.0457 30.3233 46.337 30.147 45.5638Z" fill="url(#paint12_linear_1_283)"/>
<path d="M31.2525 48.3504L29.9868 48.9303C30.0029 48.9625 30.0189 48.9786 30.035 49.0108C30.051 49.0269 30.0669 49.0591 30.0669 49.0752C30.0669 49.0913 30.083 49.0913 30.083 49.1075C30.1952 49.2846 30.3073 49.4618 30.4194 49.639C30.4355 49.6551 30.4355 49.6712 30.4515 49.6873C30.4835 49.7356 30.5316 49.8001 30.5636 49.8483L30.5796 49.8645L31.8773 49.2685C31.653 48.9786 31.4447 48.6725 31.2525 48.3504Z" fill="url(#paint13_linear_1_283)"/>
<path d="M29.5383 43.2443L28.3528 43.7758C28.3528 43.8564 28.3687 43.9208 28.3687 44.0013C28.3687 44.0336 28.3687 44.0497 28.3687 44.0819C28.3687 44.1141 28.3687 44.1302 28.3848 44.1624C28.4008 44.2591 28.4169 44.3718 28.4329 44.4684C28.4329 44.5007 28.4329 44.5329 28.4489 44.5651C28.4489 44.5812 28.4489 44.5973 28.4489 44.5973C28.4649 44.71 28.4809 44.8067 28.497 44.9195L29.7306 44.3557C29.6505 43.9852 29.5863 43.6148 29.5383 43.2443Z" fill="url(#paint14_linear_1_283)"/>
<path d="M32.4541 49.9772L31.1243 50.5893C31.1404 50.6054 31.1404 50.6054 31.1564 50.6215C31.2365 50.7182 31.3006 50.7987 31.3807 50.8793C31.3967 50.8954 31.4127 50.9114 31.4287 50.9437C31.4768 50.992 31.5088 51.0403 31.5569 51.0725C31.637 51.153 31.7171 51.2336 31.7812 51.3141C31.8453 51.3786 31.9093 51.4269 31.9735 51.4913C32.0536 51.5718 32.1337 51.6363 32.2138 51.7007C32.2778 51.749 32.3419 51.8134 32.406 51.8618C32.4861 51.9262 32.5662 51.9906 32.6463 52.0551C32.6784 52.0873 32.7264 52.1195 32.7585 52.1356C32.7905 52.1517 32.8225 52.184 32.8546 52.2001C32.9026 52.2322 32.9507 52.2645 32.9988 52.2967C33.0789 52.345 33.159 52.4094 33.2551 52.4577C33.3032 52.49 33.3513 52.5222 33.3993 52.5383C33.4153 52.5544 33.4474 52.5705 33.4634 52.5866C33.4954 52.6028 33.5435 52.6188 33.5755 52.6511C33.6717 52.6993 33.7678 52.7477 33.8639 52.796C33.8959 52.8121 33.928 52.8282 33.944 52.8444C33.976 52.8604 34.0241 52.8765 34.0561 52.8927C34.1202 52.9249 34.2003 52.941 34.2644 52.9732C34.2965 52.9893 34.3285 53.0054 34.3605 53.0054C34.4086 53.0215 34.4406 53.0215 34.4887 53.0376C34.5528 53.0537 34.6008 53.0699 34.6489 53.086C34.6809 53.086 34.713 53.102 34.729 53.1181C34.7931 53.1343 34.8411 53.1343 34.8892 53.1504C34.9373 53.1665 34.9694 53.1665 35.0174 53.1826C35.0334 53.1826 35.0495 53.1826 35.0655 53.1987C35.1776 53.2148 35.2898 53.2309 35.3859 53.247C35.3859 53.247 35.3859 53.247 35.4019 53.247C35.498 53.2631 35.5941 53.2631 35.7063 53.2631C35.7223 53.2631 35.7383 53.2631 35.7704 53.2631C35.8024 53.2631 35.8345 53.2631 35.8665 53.2631C35.9146 53.2631 35.9626 53.2631 35.9947 53.2631C36.0428 53.2631 36.0908 53.247 36.1228 53.247C36.1549 53.247 36.1869 53.247 36.2189 53.2309C36.235 53.2309 36.251 53.2309 36.267 53.2309C36.3632 53.2148 36.4592 53.1987 36.5554 53.1665C36.5554 53.1665 36.5554 53.1665 36.5714 53.1665C36.5875 53.1665 36.6035 53.1665 36.6035 53.1504C36.6676 53.1343 37.5808 52.8604 37.6288 52.8444C34.4246 52.7799 32.5182 50.0578 32.4541 49.9772Z" fill="url(#paint15_linear_1_283)"/>
<path d="M103.09 107.803L111.821 105.097C111.821 105.097 106.326 102.938 104.019 104.726C103.522 105.322 102.77 106.739 103.09 107.803Z" fill="#006633"/>
<path d="M110.187 101.247C110.315 101.166 110.492 101.07 110.635 101.006L108.905 101.972C110.043 101.344 110.043 101.344 110.187 101.247ZM110.075 104.259C110.043 104.356 110.011 104.485 109.979 104.597C108.441 105.113 107.608 105.387 105.99 105.951C105.637 105.258 105.22 105.113 104.275 105.322C104.436 104.887 104.596 104.436 105.156 104.082L112.911 99.7333C112.574 99.9582 111.885 100.426 111.837 102.342C111.469 102.584 110.459 103.212 110.075 104.259ZM112.59 102.004C112.622 101.312 112.686 99.8779 113.663 99.314L104.403 104.5C103.987 104.791 103.811 105 103.587 105.564C103.395 106.208 103.346 106.562 103.346 107.48C104.26 107.159 104.868 106.949 106.133 106.53C107.576 106.047 108.377 105.789 109.947 105.29C110.924 104.984 111.5 104.791 112.798 104.404C112.702 103.889 112.574 102.922 112.59 102.004ZM113.359 104.227L113.456 104.759L112.862 104.936C111.837 105.241 111.229 105.435 109.995 105.805C108.521 106.272 107.656 106.53 106.15 107.029C105.156 107.352 104.548 107.545 103.346 107.947L102.785 108.141L102.77 107.674C102.785 106.82 102.834 106.434 103.041 105.805C103.266 105.306 103.474 105 103.891 104.726L114.224 98.9923C113.599 99.4109 113.183 100.055 113.151 101.794C113.151 102.327 113.167 103.035 113.359 104.227Z" fill="url(#paint16_radial_1_283)"/>
<path d="M113.247 111.121L121.626 103.663C121.626 103.663 117.733 98.38 114.257 98.928C110.668 101.022 104.516 104.436 104.516 104.436C104.516 104.436 106.951 103.47 113.247 111.121Z" fill="#006633"/>
<path d="M109.049 101.843L110.107 101.247L110.411 101.07L110.78 100.86C112.253 100.039 112.75 99.8295 113.295 99.8295C114.4 100.039 113.648 101.86 112.318 102.809C110.235 104.307 107.351 103.663 107.495 102.987C107.559 102.697 108.12 102.358 109.049 101.843L108.04 102.407L105.301 103.937C106.262 103.502 108.056 103.454 112.35 108.109C113.439 107.61 114.24 107.61 115.186 108.109C116.403 107.013 116.98 106.482 118.47 105.129C118.069 104.082 118.133 103.309 118.71 102.31C117.637 101.312 114.817 98.6374 113.071 99.588L113.824 99.1694L109.097 101.827L109.049 101.843L104.548 104.356L108.04 102.407L109.049 101.843Z" fill="url(#paint17_radial_1_283)"/>
<path d="M121.626 103.277C120.841 102.423 120.424 101.988 119.688 101.296C118.598 100.297 116.051 97.9773 114.352 98.8795L113.791 99.2013C115.073 98.6215 116.691 99.3784 119.222 101.714C120.008 102.471 120.392 102.858 121.145 103.712C120.377 104.42 119.816 104.92 118.854 105.789C117.669 106.869 116.932 107.529 115.73 108.608C114.961 109.301 114.4 109.784 113.391 110.686C112.702 109.832 112.334 109.381 111.645 108.624C108.329 105.016 106.069 103.679 104.531 104.388L103.971 104.71C104.548 104.453 106.31 103.647 111.18 109.059C111.901 109.881 112.253 110.283 112.911 111.121L113.231 111.524L113.712 111.105C114.497 110.429 115.009 109.977 116.066 109.043C117.188 108.044 117.829 107.48 119.222 106.224C119.976 105.548 120.472 105.097 121.53 104.146L121.994 103.728L121.626 103.277Z" fill="url(#paint18_radial_1_283)"/>
<path d="M108.937 101.956L109.658 101.553L108.89 101.972C108.921 101.972 108.921 101.956 108.937 101.956Z" fill="white"/>
<path opacity="0.4" d="M103.891 104.726C103.474 104.984 103.266 105.29 103.041 105.805C102.834 106.434 102.785 106.836 102.77 107.674L102.785 108.141L103.346 107.947C103.779 107.803 104.131 107.69 104.467 107.577C105.044 106.611 105.637 105.661 106.214 104.694C104.9 103.969 103.891 104.726 103.891 104.726Z" fill="url(#paint19_radial_1_283)"/>
<path d="M90.0811 132.656L92.2117 124.377L111.661 48.7209L113.791 40.4416C114.416 37.9772 112.959 35.4806 110.507 34.8363L63.6306 22.659L62.1727 22.2403C59.7215 21.6121 55.8605 23.8832 55.2357 26.3315L53.1049 34.6108L33.6557 110.283L31.5249 118.562C30.9001 121.027 32.358 123.523 34.8092 124.168L83.0638 136.844C85.1786 137.392 87.934 136.458 89.0399 134.605C89.5202 134.058 89.8884 133.397 90.0811 132.656Z" fill="#006633"/>
<path d="M57.8952 25.8645L55.7644 34.1436L36.3151 109.8L34.1843 118.08C33.5596 120.544 35.0174 123.04 37.4686 123.685L84.6982 135.959C87.1488 136.587 89.6324 135.121 90.2731 132.656L92.4037 124.377L111.854 48.7208L113.984 40.4417C114.609 37.9933 113.151 35.4806 110.699 34.8363L63.4704 22.5785C61.0192 21.9342 58.52 23.4161 57.8952 25.8645ZM64.0792 24.2537L84.5537 29.5691C84.7781 29.8752 85.1146 30.5678 84.8104 31.7276C84.5537 32.694 85.0506 33.6927 85.9314 34.0953C86.0278 34.1436 86.14 34.1759 86.2521 34.2081C87.3257 34.4819 88.4309 33.8376 88.7192 32.7424C89.0399 31.5021 89.5044 31.0833 89.8409 30.9383L110.459 36.3021C110.652 36.3504 110.828 36.4148 111.004 36.4953C112.494 37.1718 113.311 38.8309 112.895 40.4739L91.2503 124.78L91.0101 125.715L89.8884 130.063C89.4239 131.899 87.5658 132.995 85.7394 132.512L39.3271 120.447C39.1348 120.399 38.9585 120.334 38.7824 120.254C37.2924 119.577 36.4593 117.918 36.8919 116.275L38.0133 111.927L38.2536 110.992L39.3751 106.643L57.4626 36.3021L58.584 31.953L58.8243 31.0189L59.9458 26.6698C60.3944 24.8819 62.2528 23.7705 64.0792 24.2537Z" fill="white"/>
<path d="M59.8177 26.6698L58.6962 31.0189L58.4559 31.9531L57.3345 36.3021L39.263 106.643L38.1415 110.992L37.9012 111.927L36.7797 116.275C36.3632 117.918 37.1963 119.577 38.6702 120.254C38.8464 120.334 39.0227 120.399 39.2149 120.447L85.6273 132.512C87.4537 132.979 89.2959 131.883 89.7763 130.063L90.898 125.715L91.1382 124.78L111.453 45.741L112.911 40.4578C113.327 38.8148 112.398 37.1719 110.908 36.4953C110.732 36.4148 110.556 36.3504 110.364 36.3021L89.7446 30.9222C89.4081 31.051 88.9436 31.486 88.6229 32.7262C88.3345 33.8215 87.2452 34.4658 86.1558 34.192C86.0436 34.1598 85.9314 34.1275 85.8351 34.0792C84.9542 33.6766 84.4574 32.694 84.7141 31.7114C85.0182 30.5517 84.6817 29.8591 84.4574 29.5531L63.9831 24.2376C62.1407 23.7544 60.2822 24.8497 59.8177 26.6698Z" fill="url(#paint20_radial_1_283)"/>
<path d="M87.5658 32.3396C87.4378 32.8229 86.941 33.1289 86.4599 33C85.9796 32.8712 85.6754 32.3718 85.8034 31.8886C85.9314 31.4054 86.4283 31.0994 86.9086 31.2282C87.4055 31.3571 87.6938 31.8564 87.5658 32.3396Z" fill="#006633"/>
<path d="M88.6552 107.77C70.9201 106.804 55.9085 106.901 55.9085 106.901L54.8672 114.133C54.8672 114.133 53.7458 118.547 52.9127 123.943L85.7711 132.431C85.7711 132.431 88.8472 133.365 89.7288 130.224L90.898 125.923L88.6552 107.77Z" fill="url(#paint21_radial_1_283)"/>
<path d="M78.5618 130.563L79.7957 128.195L85.8833 121.848C85.8833 121.848 85.8998 121.688 85.9156 121.607C83.0315 123.008 77.1682 126.359 77.1682 126.359L74.1402 124.345L75.0374 129.693L78.5618 130.563Z" fill="#CA9E67"/>
<path d="M56.5174 106.901C56.4373 106.901 56.3892 106.901 56.3251 106.901C56.2771 106.901 56.229 106.901 56.197 106.901C56.1809 106.901 56.1649 106.901 56.1489 106.901C56.1329 106.901 56.1008 106.901 56.0848 106.901C55.9727 106.901 55.9086 106.901 55.9086 106.901L55.3799 110.622L54.8833 114.133C54.8833 114.133 53.7618 118.547 52.9287 123.943C53.7939 124.216 54.675 124.458 55.5722 124.684C57.7189 122.766 62.4291 119.593 61.5159 115.486C66.4022 117.79 73.0348 119.642 77.0881 119.786C77.0721 120.238 76.223 129.983 76.223 129.983L76.992 130.176C76.992 130.176 77.777 121.913 77.9211 119.771C80.212 119.658 83.913 117.806 87.3732 113.247C87.678 112.828 88.0944 112.184 88.4625 111.846L88.6869 107.787C73.0188 106.917 59.4972 106.885 56.5174 106.901Z" fill="#CA9E67"/>
<path d="M84.0892 58.0793C82.7755 57.6444 74.5889 55.1799 74.5889 55.1799C74.5889 55.1799 69.9749 52.0712 70.6477 41.1987C73.0348 31.8725 57.6549 39.7651 57.6549 39.7651C62.2528 50.3155 59.7696 55.8403 59.7696 55.8403L51.1664 60.141C51.1664 60.141 71.0482 85.6388 78.9465 81.4508C86.8288 77.2632 84.5537 58.2242 84.0892 58.0793Z" fill="url(#paint22_radial_1_283)"/>
<path opacity="0.15" d="M72.1216 55.0672L69.8787 49.5745C69.8787 49.5745 70.3594 45.8376 70.6477 41.1987C73.0348 31.8725 57.6549 39.7651 57.6549 39.7651C62.2528 50.3155 59.7696 55.8403 59.7696 55.8403L51.1664 60.141C51.1664 60.141 52.9768 62.4605 55.7164 65.5853C56.245 64.8604 56.8698 64.184 57.5427 63.5557C59.2409 61.7356 70.9201 64.5383 70.9201 64.5383L64.2394 56.7906C65.441 55.5343 64.6559 53.2953 64.6559 53.2953C64.6559 53.2953 68.0684 57.1128 70.3433 57.0645C72.5862 57.0323 72.1216 55.0672 72.1216 55.0672Z" fill="#FFD1CD"/>
<path d="M105.877 53.4886L105.589 53.0859L89.2636 54.1652C89.2636 54.149 89.2636 54.149 89.2636 54.149L76.2069 55.0349L75.9986 55.8564C76.6075 55.7115 105.877 53.4886 105.877 53.4886Z" fill="#FFCBCB"/>
<path d="M53.8259 84.0606C53.8259 84.0606 52.9608 76.9571 49.4843 72.737C52.0315 73.8484 54.7551 80.8709 53.8259 84.0606Z" fill="#DD3576"/>
<path d="M55.3319 56.9679C55.3319 56.9679 56.6616 56.6618 57.7029 54.9706C58.7283 53.2793 60.3784 52.6189 60.3784 52.6189L60.4425 55.4054C60.4425 55.4054 73.4033 64.6994 73.4033 65.6337L75.2457 56.4202C75.2457 56.4202 73.4514 54.5518 73.147 53.1988L76.7516 54.4068C76.7516 54.4068 80.6449 58.0954 80.0517 61.4135L78.3216 60.8498L73.7558 66.8578L65.7934 63.7008L63.9671 65.4243C56.8218 64.2967 55.3319 56.9679 55.3319 56.9679Z" fill="#FFCBCB"/>
<path d="M94.535 9L104.868 13.1074C98.0275 21.1611 97.7549 31.196 97.7549 31.196L87.4055 27.0886C87.4055 27.0886 88.2389 15.2658 94.535 9Z" fill="url(#paint23_radial_1_283)"/>
<path d="M101.247 12.1409L96.7777 10.353L94.6472 9.49933C94.1179 10.047 93.6218 10.643 93.1731 11.2711C91.0425 14.2027 89.7763 17.7624 89.0558 20.4685C88.6711 21.9342 88.3985 23.2873 88.2224 24.3987C88.0462 25.5101 87.9499 26.3477 87.9024 26.7826L90.1933 27.7007L94.7428 29.5047L97.3702 30.5517C97.4184 29.9074 97.5464 28.796 97.8189 27.3785C97.9469 26.6698 98.1231 25.8966 98.3474 25.0591C99.0047 22.5302 100.222 19.0993 102.417 15.7168C102.946 14.8953 103.523 14.0899 104.163 13.3007L101.247 12.1409ZM97.7873 24.9141C97.5629 25.7517 97.4026 26.5249 97.2581 27.2336C97.0021 27.2013 96.7454 27.2013 96.4894 27.2497C95.6244 27.4269 94.9672 28.1033 94.791 28.9248L90.3853 27.1853C90.4651 26.8631 90.4816 26.5249 90.4176 26.1705C90.2415 25.3007 89.5684 24.6564 88.7674 24.4631C88.9436 23.3839 89.2161 22.0631 89.5843 20.6295C90.289 17.988 91.5229 14.4926 93.6218 11.6094C94.0705 11.851 94.599 11.9477 95.1433 11.8349C95.7524 11.706 96.2492 11.3517 96.5534 10.8524L100.959 12.6242C100.767 13.043 100.687 13.5262 100.799 14.0255C100.927 14.6698 101.344 15.2013 101.872 15.5074C99.6612 18.9383 98.4438 22.4013 97.7873 24.9141Z" fill="#006633"/>
<path d="M94.471 22.7718C96.2843 22.7718 97.7549 21.2935 97.7549 19.4698C97.7549 17.6462 96.2843 16.1678 94.471 16.1678C92.657 16.1678 91.1863 17.6462 91.1863 19.4698C91.1863 21.2935 92.657 22.7718 94.471 22.7718Z" fill="#006633"/>
<path d="M93.9417 17.4242C93.3974 17.4402 93.0767 17.7463 92.8524 18.149L92.4202 17.9557L92.1635 18.5839L92.5964 18.7772C92.436 19.3893 92.4842 20.1141 93.1249 20.404C93.9418 20.7906 94.3423 20.1463 94.7111 19.4698C94.9513 19.0349 95.2396 18.6644 95.5603 18.8255C95.9443 19.0027 95.9285 19.4859 95.7523 19.9369C95.592 20.3557 95.2073 20.694 94.8391 20.694V21.4027C95.4798 21.4188 95.9285 21.0162 96.2168 20.4846L96.6814 20.7101L96.9381 20.0819L96.4412 19.8564C96.6497 19.2121 96.5052 18.4712 95.8487 18.1651C94.983 17.7625 94.535 18.4712 94.1503 19.1637C93.9259 19.5664 93.7174 19.9208 93.3809 19.7759C93.0451 19.6148 93.0767 19.1799 93.2371 18.7611C93.3809 18.4228 93.6858 18.1168 93.9583 18.0846L93.9417 17.4242Z" fill="white"/>
<path d="M91.09 9.37048L101.984 11.6255C96.6332 20.7584 98.0756 30.6806 98.0756 30.6806L87.1812 28.4256C87.197 28.4256 85.9796 16.6349 91.09 9.37048Z" fill="url(#paint24_radial_1_283)"/>
<path d="M96.073 27.153L97.1142 28.2322C97.1142 28.2322 97.9951 28.3933 98.0109 27.4751C98.0433 25.6067 98.0756 23.0456 98.6998 20.2107C98.6998 20.2107 94.8392 21.6765 94.3905 22.0791C93.9418 22.4818 94.3588 23.1745 94.3588 23.1745C94.3588 23.1745 93.7339 24.3986 95.528 24.8013L95.9285 26.0577L96.073 27.153Z" fill="#C6C6C6"/>
<path d="M98.2676 11.3033L93.5413 10.3369L91.2827 9.86975C90.8498 10.514 90.4651 11.1745 90.1293 11.8671C88.5272 15.1369 87.9024 18.8577 87.6457 21.6442C87.5177 23.1584 87.4854 24.5436 87.4854 25.655C87.5019 26.7825 87.5494 27.6201 87.5817 28.055L90.0006 28.5544L94.791 29.553L97.5464 30.1328C97.4824 29.4886 97.4184 28.3772 97.4342 26.9275C97.4508 26.2027 97.4824 25.4134 97.5629 24.5436C97.7873 21.9503 98.3956 18.3422 99.966 14.6375C100.35 13.7516 100.783 12.8496 101.28 11.9476L98.2676 11.3033ZM97.0337 24.4952C96.9539 25.349 96.9216 26.1543 96.9057 26.863C96.6497 26.863 96.393 26.9114 96.1529 27.0241C95.3195 27.3624 94.8068 28.1356 94.7593 28.9732L90.1293 28.0067C90.161 27.6845 90.1128 27.3302 89.9848 27.0081C89.6641 26.1866 88.8954 25.6711 88.062 25.6228C88.0462 24.5275 88.0786 23.1906 88.2224 21.6926C88.4626 18.9704 89.0874 15.2979 90.642 12.1087C91.1223 12.2698 91.6667 12.2859 92.1794 12.0765C92.7567 11.851 93.1731 11.4 93.3974 10.8684L98.0433 11.8349C97.9153 12.2859 97.9311 12.7691 98.1231 13.2362C98.364 13.8483 98.8601 14.2993 99.4368 14.5087C97.8671 18.2778 97.2581 21.902 97.0337 24.4952Z" fill="#006633"/>
<path d="M92.8366 22.9973C94.6506 22.9973 96.1205 21.519 96.1205 19.6954C96.1205 17.8717 94.6506 16.3933 92.8366 16.3933C91.0225 16.3933 89.5519 17.8717 89.5519 19.6954C89.5519 21.519 91.0225 22.9973 92.8366 22.9973Z" fill="#006633"/>
<path d="M111.741 49.1235C109.161 43.0833 105.317 33.145 105.285 33.145L105.429 26.7181L103.571 21.3866L99.613 19.6792C99.613 19.6792 96.4735 21.0483 95.0793 21.6121C93.6858 22.1758 94.5184 23.1101 94.5184 23.1101C94.5184 23.1101 94.0704 24.1248 95.2555 24.3987L96.6015 24.1087C96.6015 24.1087 95.8645 24.5114 95.8803 24.898C95.8962 25.2846 96.137 25.9933 96.137 25.9933L96.1687 26.4121L96.2169 27.0081L97.1782 28.0389C97.9951 28.1839 98.0274 27.1853 98.0274 27.1853C98.0274 27.1853 97.6104 29.6496 98.1878 30.6483L99.5173 33.4188C99.5015 33.4188 99.485 33.4188 99.4692 33.4188C99.549 33.6926 99.6453 33.9825 99.7733 34.2564C102.257 40.2806 101.952 54.7611 103.09 58.2886C104.227 61.8162 107.383 64.3128 107.383 64.3128C116.548 61.5906 114.977 56.694 111.741 49.1235Z" fill="url(#paint25_radial_1_283)"/>
<path d="M105.237 26.7503L104.852 33.4672L111.725 50.3316C111.725 50.3316 113.76 58.4175 114.064 59.3517C114.849 56.7101 113.568 53.3276 111.773 49.1396C109.194 43.0993 105.349 33.1611 105.317 33.1611L105.461 26.7342L103.602 21.4027L99.613 19.6792C99.613 19.6792 99.5972 19.6792 99.5813 19.6953L103.394 21.5315L105.237 26.7503Z" fill="#FFCBCB"/>
<path d="M96.1529 25.9933C96.8576 25.8483 98.6523 24.7853 98.6523 24.7853C98.6523 24.7853 102.497 25.4457 102.545 24.8014C100.062 24.4309 98.9241 24.2215 98.9241 24.2215C98.4761 24.5275 96.1529 25.9933 96.1529 25.9933Z" fill="#FFCBCC"/>
<path d="M99.5332 33.4188C99.5173 33.4188 99.5015 33.4188 99.485 33.4188C99.5655 33.6926 99.6612 33.9825 99.7899 34.2564C101.6 38.6537 101.92 47.5772 102.401 53.4403C106.134 53.5048 109.867 53.6175 113.584 53.8752C113.407 53.3114 111.933 50.0578 111.933 50.0578C111.933 50.0578 111.421 51.4107 110.283 51.6685C109.146 51.9262 104.74 49.8323 104.74 49.8323L102.273 34.2242C102.273 34.2242 103.459 34.5302 103.635 33.7249C102.577 32.5813 100.751 32.0336 100.35 31.3571C99.9179 30.6161 100.943 29.7141 100.879 28.055C100.863 27.5557 101.936 27.4107 101.984 26.9275C101.552 26.9598 98.5401 26.5087 98.5401 26.5087L97.7068 26.7665C98.0756 26.8792 98.0274 27.2658 98.0274 27.2658L97.9469 27.8295C97.8671 28.6188 97.8031 29.9879 98.1878 30.6644L99.5332 33.4188Z" fill="#FFCBCC"/>
<path d="M94.5184 23.1262C94.5508 23.1262 94.5666 23.1262 94.599 23.1262C94.8068 23.1262 96.8575 22.1275 98.4114 21.2738C98.5401 21.2094 102.064 21.8215 102.176 21.757C102.289 21.6926 99.3246 20.8711 99.421 20.8067C98.6523 21.0161 94.9671 22.7396 94.9671 22.7396C94.9671 22.7396 94.4544 23.1584 94.3106 22.2564C94.1503 22.6913 94.5184 23.1101 94.5184 23.1262C94.5184 23.1101 94.5184 23.1101 94.5184 23.1262Z" fill="#FFCBCC"/>
<path d="M114.737 58.1115L114.321 55.9853C114.321 55.9853 114.352 54.4229 114.224 53.6176C114.128 53.0377 112.655 49.3008 112.655 49.3008L111.581 48.4793L111.854 49.4779C111.854 49.4779 111.5 52.6189 110.411 52.4739C108.089 52.3289 103.618 51.4109 103.618 51.4109L102.128 49.8484L102.064 49.0591C101.488 49.5907 101.103 51.3142 101.344 53.3437L89.2636 54.1491C89.2636 54.133 89.2636 54.133 89.2636 54.133L76.2069 55.0189L73.4513 65.6981C73.4513 65.6981 62.429 59.6256 57.0781 56.0014C53.201 57.9344 45.7514 64.6995 45.7514 64.6995L37.4846 93.4835L46.985 98.106L54.0021 84.5761L58.3117 96.4794L54.8672 109.091L55.5401 110.171L55.8765 108.85C55.8765 108.85 68.8694 118.353 77.04 118.031C85.2102 117.709 88.4791 109.639 88.4791 109.639L89.1679 111.314L90.033 109.317L88.1102 87.8293C88.1102 87.8293 90.3055 83.4808 89.8726 79.5668C89.4398 75.6525 88.8954 71.6417 88.8954 71.6417L110.091 64.0551C110.123 64.0229 110.155 63.9907 110.171 63.9585C112.51 62.976 114.4 60.5276 114.737 58.1115Z" fill="url(#paint26_radial_1_283)"/>
<path opacity="0.32" d="M109.386 62.09L108.729 57.9021C111.773 57.0484 112.174 56.0175 112.174 56.0175C112.174 56.0175 108.585 56.7907 108.553 56.4524C108.393 55.0511 108.296 53.7142 108.377 52.8927C106.15 52.5706 103.651 51.4108 103.651 51.4108L102.161 49.8484L102.097 49.0591C101.408 49.7034 100.975 52.1034 101.6 54.6645C101.6 54.6645 102.176 58.1276 103.507 60.898C97.2264 62.5088 89.4239 64.3773 89.4239 64.3773L84.3294 59.8028L87.0208 68.2591L88.2224 72.9303C88.2224 72.9303 90.2091 79.1156 84.8902 82.5626C83.7685 83.287 79.7957 81.3864 76.6715 81.9019C73.5474 82.4173 68.7091 85.5426 65.9055 85.591C57.799 85.7031 57.3183 80.4849 57.3183 80.4849C55.8925 71.9155 50.3013 67.8081 47.7059 65.9396C51.3105 72.1732 50.3653 77.4565 50.3653 77.4565C50.3653 77.4565 43.6206 92.3238 41.5859 95.4643L46.985 98.0901L54.002 84.5601L58.3117 96.4634L54.8672 109.075L55.54 110.155L55.8765 108.834C55.8765 108.834 56.8057 109.526 58.3437 110.509C58.7923 109.155 60.8109 102.327 60.8109 102.327L63.8388 104.259L61.4037 92.6781C61.4037 92.6781 65.553 86.9596 77.2162 85.3489C84.6336 84.318 87.0208 88.1676 87.0208 88.1676L89.8726 107.239L88.126 87.7975C88.126 87.7975 90.3213 83.4482 89.8884 79.5342C89.4563 75.6203 88.9112 71.6095 88.9112 71.6095L110.059 64.039C110.043 64.0229 110.027 64.0068 110.011 64.0068C110.699 63.749 111.357 63.3464 111.949 62.8631C109.61 63.4753 109.386 62.09 109.386 62.09Z" fill="#FFCBCB"/>
<path d="M110.732 56.4041C110.732 56.4041 106.55 57.3383 102.817 55.196C104.484 57.2578 109.402 58.031 110.732 56.4041Z" fill="#E94E1B"/>
<path d="M101.969 23.2228L98.492 22.5947C98.492 22.5947 95.6884 23.8994 95.3037 24.0766C94.919 24.2538 94.535 23.9477 94.535 23.9477C94.6306 24.1249 94.8233 24.3182 95.2555 24.3987L96.585 24.1249L98.5876 22.9168L101.969 23.2228Z" fill="#FFCBCC"/>
<path d="M55.3319 58.0954C55.3319 58.0954 56.6616 57.7893 57.7029 56.098C58.7283 54.4068 60.3784 53.7464 60.3784 53.7464L60.4425 56.533C60.4425 56.533 73.4033 65.8269 73.4033 66.7611L75.9026 56.7262C75.9026 56.7262 74.2845 54.8578 73.98 53.5048L77.2483 54.9544C77.2483 54.9544 81.6063 58.5947 81.0131 61.8967L78.3698 61.0269L73.5635 67.0189L65.2327 63.6685L63.5505 65.6175C56.4213 64.5061 55.3319 58.0954 55.3319 58.0954Z" fill="#FFCBCB"/>
<path d="M55.3319 56.9678C55.3319 56.9678 56.6616 56.6618 57.7029 54.9706C58.7283 53.2792 60.3784 52.6189 60.3784 52.6189L60.4425 55.4054C60.4425 55.4054 73.4033 64.6994 73.4033 65.6337L75.2457 56.4202C75.2457 56.4202 72.7945 53.8431 72.4901 52.49L77.2483 53.8269C77.2483 53.8269 80.8851 57.3866 80.2926 60.6887L78.3698 59.8994L73.7718 67.2605L65.2487 62.541L63.5665 64.49C56.4213 63.3786 55.3319 56.9678 55.3319 56.9678Z" fill="url(#paint27_radial_1_283)"/>
<path d="M63.4544 23.5288C58.4238 24.1087 56.8218 26.3798 54.1142 32.7745C53.3773 34.498 53.6657 38.1221 53.6657 38.1221C53.6657 38.1221 54.2744 40.6994 55.5882 41.1826L55.9086 41.0537C59.3851 49.349 67.2193 49.5906 68.2125 49.8483C68.3407 49.8806 71.0322 49.1074 71.0322 49.1074C71.0322 49.1074 74.2684 44.6135 74.3485 41.5853L73.6756 29.1181C73.6917 29.1181 68.4849 22.9651 63.4544 23.5288Z" fill="url(#paint28_radial_1_283)"/>
<path d="M69.7025 26.6698C72.2338 28.6671 72.3459 29.7141 72.3459 29.7141C72.3459 29.7141 73.8198 39.4912 73.916 40.8926C74.0281 42.294 71.9454 47.1423 70.7759 48.6725C70.4715 49.0752 68.5329 49.5262 68.1485 49.8644C68.1645 49.8644 68.1966 49.8806 68.2125 49.8806C68.3407 49.9128 71.0323 49.1396 71.0323 49.1396L75.4219 42.1651L73.6757 29.1503L69.7025 26.6698Z" fill="white"/>
<path opacity="0.05" d="M64.8802 24.5759C63.6466 24.9624 62.3489 25.2202 61.0192 25.349C60.3143 25.4456 59.6094 25.5101 58.9205 25.5423C57.1742 27.5074 55.2998 30.0363 54.1302 32.8068C53.3933 34.5302 53.6817 38.1544 53.6817 38.1544C53.6817 38.1544 54.2905 40.7315 55.6042 41.2148L55.9246 41.0859C59.4011 49.3812 67.2352 49.6228 68.2285 49.8806C68.2446 49.8806 68.2606 49.8806 68.2767 49.8806C68.2446 49.8162 58.2636 46.8041 58.6481 41.9235C58.6481 41.9235 60.6347 39.3947 59.4652 35.0939C59.4652 35.0939 67.2513 31.0349 64.8802 24.5759Z" fill="#FFD1CD"/>
<path d="M55.8285 40.1356C55.8285 40.1356 55.8766 35.851 54.7711 36.2054C54.2905 36.3665 54.675 37.6873 54.675 37.6873L55.8285 40.1356Z" fill="#FFD1CD"/>
<path d="M79.3628 49.1719C75.4059 47.98 82.2628 42.2296 75.9666 37.8484C71.7371 34.9007 82.7115 31.6148 70.1991 23.9638C70.1991 23.9638 66.9629 19.8242 59.6894 20.8873C56.5975 21.3383 56.4373 23.3034 56.4373 23.3034C50.3654 23.545 46.3121 34.0471 51.9514 42.6967C53.5215 45.0967 46.3281 47.8028 49.3881 53.4081C51.1824 56.6941 49.308 58.6914 48.8114 61.0753C47.4496 67.5826 55.3639 70.1115 55.3639 70.1115C55.3639 70.1115 51.583 66.7773 58.52 63.8779C65.4569 60.9786 58.0073 57.8699 62.1246 54.8578C66.242 51.8457 59.7375 46.1921 59.7375 46.1921C59.7375 46.1921 54.4988 41.8591 57.7029 40.5061C62.0766 38.6538 57.046 35.1746 60.7468 32.8712C64.5918 30.4873 65.4089 28.2967 65.3768 26.8309C66.3541 29.5531 63.951 31.3893 61.8202 32.8229C66.1619 31.341 67.3634 28.2645 66.7546 26.0417L72.7464 29.8591C73.2591 32.4524 74.1883 39.3786 74.2524 40.7799C74.3805 43.4538 71.0803 49.1397 71.0803 49.1397L70.3913 49.3491C70.3913 49.3491 71.9293 52.2323 72.2497 52.5384C72.2497 52.5384 75.9025 52.8605 78.2576 54.9062L85.4511 54.4068C85.4511 54.4068 84.2495 50.6377 79.3628 49.1719Z" fill="url(#paint29_radial_1_283)"/>
<path d="M65.6332 21.6926C65.6492 21.7893 69.0937 23.545 69.4782 24.3503C69.5583 24.2054 68.8694 22.6752 65.6332 21.6926Z" fill="white"/>
<path d="M70.4074 24.5275C70.3273 24.6725 73.4673 26.9114 74.8612 28.796C75.9346 30.2618 76.271 31.8403 75.3578 33.9665C76.3511 31.7597 77.4245 28.8927 70.4074 24.5275Z" fill="white"/>
<path opacity="0.05" d="M65.0564 25.9289C63.9189 31.4054 56.1008 32.9195 56.1008 32.9195C56.1008 32.9195 60.923 31.2443 60.7308 28.5221C60.7308 28.5221 57.3504 32.7906 51.7752 30.1007C50.045 29.2631 52.2238 25.5262 52.2238 25.3973C48.9075 28.9248 47.786 36.3181 51.9514 42.7128C53.5215 45.1127 46.3281 47.8188 49.3881 53.4242C51.1825 56.7101 49.308 58.7074 48.8114 61.0913C47.4496 67.5987 55.3639 70.1275 55.3639 70.1275C55.3639 70.1275 51.583 66.7933 58.52 63.894C65.4569 60.9947 56.3251 57.8698 60.4424 54.8578C64.5598 51.8457 58.6641 46.9973 58.6641 46.9973C58.6641 46.9973 56.7897 45.2094 56.0047 43.5504C55.2677 42.0041 55.5721 40.5705 57.1101 39.9262C61.4838 38.0738 56.197 35.2711 59.9298 33.0322C66.1459 29.2953 65.3288 25.9772 65.0564 25.9289Z" fill="#CA9E67"/>
<path opacity="0.05" d="M70.151 37.1074C72.4741 37.0108 73.0668 34.2886 72.6663 32.6457C72.2658 31.0027 71.0963 30.2779 69.366 30.6322C65.3769 31.4698 68.3888 37.188 70.151 37.1074Z" fill="url(#paint30_radial_1_283)"/>
<path d="M69.9268 34.0309C70.0229 34.6591 69.7666 35.2229 69.3821 35.2712C68.9976 35.3195 68.613 34.8524 68.517 34.2242C68.4208 33.596 68.6772 33.0323 69.0617 32.984C69.4461 32.9356 69.8467 33.4027 69.9268 34.0309Z" fill="#311213"/>
<path d="M69.0777 33C69.0777 33 69.8147 33.2417 70.2632 32.5329C70.0389 33.29 69.7826 33.6926 69.0777 33Z" fill="#311213"/>
<path d="M69.5262 33.145C69.5262 33.145 70.103 33.6765 70.8079 33.2256C70.2792 33.8215 69.8627 34.0792 69.5262 33.145Z" fill="#311213"/>
<path d="M69.366 33.8537C69.4141 34.192 69.2859 34.498 69.0777 34.5302C68.8694 34.5624 68.6612 34.3047 68.613 33.9665C68.565 33.6282 68.6931 33.3221 68.9015 33.29C69.1097 33.2416 69.318 33.4993 69.366 33.8537Z" fill="white"/>
<path d="M67.4915 32.2107C69.4781 29.6658 72.1536 31.2121 72.1536 31.2121C72.1536 31.2121 70.6316 29.553 68.3727 30.4389C67.0109 30.9543 67.4915 32.2107 67.4915 32.2107Z" fill="#311213"/>
<path opacity="0.05" d="M61.628 39.2014C63.951 39.1047 64.5437 36.3825 64.1432 34.7396C63.7587 33.0967 62.5732 32.3718 60.843 32.7262C56.8377 33.5476 59.8657 39.2819 61.628 39.2014Z" fill="url(#paint31_radial_1_283)"/>
<path d="M58.8083 34.804C60.8269 31.6953 63.4864 33.4027 63.4864 33.4027C63.4864 33.4027 63.2781 31.792 61.4678 32.1624C59.5133 32.549 58.8083 34.804 58.8083 34.804Z" fill="#311213"/>
<path d="M62.4129 35.5128C62.5091 36.141 62.2527 36.7048 61.8683 36.753C61.4838 36.8014 61.0993 36.3342 61.0032 35.7061C60.907 35.0779 61.1634 34.5142 61.5478 34.4658C61.9323 34.4014 62.3328 34.8846 62.4129 35.5128Z" fill="#311213"/>
<path d="M61.5639 34.4819C61.5639 34.4819 62.3008 34.7235 62.7494 34.0148C62.5251 34.7557 62.2688 35.1745 61.5639 34.4819Z" fill="#311213"/>
<path d="M62.0125 34.6108C62.0125 34.6108 62.5892 35.1423 63.2941 34.6913C62.7655 35.2872 62.3489 35.545 62.0125 34.6108Z" fill="#311213"/>
<path d="M61.8522 35.3195C61.9003 35.6577 61.7721 35.9638 61.5639 35.996C61.3556 36.0282 61.1473 35.7704 61.0993 35.4322C61.0512 35.094 61.1794 34.7879 61.3876 34.7557C61.5959 34.7235 61.8042 34.9812 61.8522 35.3195Z" fill="white"/>
<path d="M69.2058 46.4658C69.1257 46.5947 69.0136 46.6752 68.8854 46.7397C68.7572 46.8041 68.6291 46.8363 68.4849 46.8685C68.3407 46.9007 68.1965 46.9168 68.0523 46.9168C67.9081 46.9329 67.764 46.9329 67.6038 46.949C67.7479 46.9973 67.8921 47.0296 68.0523 47.0296C68.1324 47.0457 68.1965 47.0296 68.2766 47.0296C68.3567 47.0296 68.4368 47.0135 68.5009 46.9973C68.6451 46.9652 68.8053 46.9168 68.9334 46.8202C69.0777 46.7557 69.2058 46.6269 69.2058 46.4658Z" fill="#FF736C"/>
<path d="M69.7345 41.843L64.5117 42.7772C64.5117 42.7772 65.0725 44.7101 66.6745 45.3706C68.2766 46.0309 69.2539 44.9839 69.2539 44.9839C68.9655 43.0994 69.7345 41.843 69.7345 41.843Z" fill="#562800"/>
<path d="M65.4089 44.4202C65.7293 44.8067 66.1459 45.1611 66.6745 45.3866C67.6998 45.8054 68.4528 45.5315 68.8854 45.2899C68.8213 45.2094 67.5557 44.1141 65.4089 44.4202Z" fill="#F43441"/>
<path d="M65.0564 42.6967C65.0564 42.6967 66.3381 42.4712 67.2352 42.294C68.1485 42.1168 68.7732 42.0363 68.7732 42.0363C68.7732 42.0363 68.8373 42.5356 67.9562 42.7289C67.0911 42.9383 65.2807 43.1316 65.0564 42.6967Z" fill="white"/>
<path d="M64.4477 42.7772C64.4477 42.7772 66.6425 41.7302 66.963 41.6819C67.2834 41.6336 67.9722 41.7785 67.9722 41.7785C67.9722 41.7785 68.6451 41.4081 68.8214 41.4081C68.9975 41.4081 69.8787 41.8108 69.8787 41.8108C69.2379 42.0041 68.9335 42.1168 68.0523 42.2618C66.0498 42.6322 64.4477 42.7772 64.4477 42.7772Z" fill="#FF736C"/>
<path d="M65.3768 44.4041C65.5851 44.6135 66.0177 45.0323 66.29 45.1772C67.043 45.596 67.6839 45.5799 68.1324 45.4671C68.3567 45.4189 68.7412 45.3061 68.9655 45.0806C69.1898 44.839 69.2219 44.4846 69.2219 44.4846C69.2219 44.4846 69.7185 45.0967 69.3179 45.7732C69.2219 45.9504 68.6451 46.3047 67.5717 46.2725C66.7546 46.2403 65.9857 45.596 65.3768 44.4041Z" fill="#FF736C"/>
<path d="M68.2606 40.6832L69.366 39.298L67.4275 35.4L68.9816 39.3464L68.2606 40.6832Z" fill="#FFD9E8"/>
<path d="M68.9975 39.3463C68.9975 39.3463 68.1645 39.4752 67.9883 39.4913L67.075 37.7195C66.9629 38.4283 66.5143 39.9423 66.6265 40.1678C66.8828 40.6672 68.1485 40.7799 68.1485 40.7799L68.9975 39.3463Z" fill="#FFD1CD"/>
<path d="M68.9975 39.3463C68.9975 39.3463 68.1645 39.4752 67.9883 39.4913C67.9883 39.4913 66.5143 39.9423 66.6265 40.1678C66.8828 40.6671 68.1485 40.7799 68.1485 40.7799L68.9975 39.3463Z" fill="#FFD1CD"/>
<path d="M36.4433 92.9196C36.2831 92.9521 36.1069 92.9839 35.9467 92.9998C36.0588 93.2254 36.171 93.435 36.2831 93.6447C36.3312 93.4025 36.3952 93.161 36.4433 92.9196Z" fill="#FFD1CD"/>
<path d="M45.543 92.2754C44.2454 88.8768 35.2577 78.149 33.191 71.835C31.7011 73.1235 30.0509 74.1705 28.2726 74.9437L28.4649 75.6041C28.4649 75.6041 31.3326 84.302 33.0949 90.6162C35.3218 98.5412 37.1482 103.341 45.9916 99.6683C45.9916 99.6683 46.8728 95.7383 45.543 92.2754Z" fill="url(#paint32_radial_1_283)"/>
<path d="M39.8077 99.7008C39.4873 100.007 39.1508 100.297 38.8144 100.586C38.9746 100.651 39.1508 100.699 39.327 100.748C39.3751 100.683 39.4232 100.635 39.4712 100.57C39.7596 100.232 40.0319 99.8938 40.3043 99.5555C40.1441 99.6039 39.9679 99.6524 39.8077 99.7008Z" fill="url(#paint33_radial_1_283)"/>
<path d="M40.8651 85.5426C40.6728 85.7516 40.2723 86.9921 40.2723 86.9921C40.2723 86.9921 39.1508 89.8912 36.924 89.6981C34.697 89.5051 30.7078 77.0377 29.7947 74.2994C29.4743 74.4444 28.5771 74.7343 28.2567 74.8632L32.9348 90.0849C32.9828 90.262 33.0309 90.4391 33.095 90.6163C33.6397 92.5328 34.1524 94.2729 34.7451 95.7542C37.0521 93.9989 39.247 92.1467 41.1694 90.0205C41.0413 88.5869 40.9452 87.1367 40.9612 85.6872C40.9291 85.6388 40.8971 85.591 40.8651 85.5426Z" fill="#FFD1CD"/>
<path d="M40.5767 84.4792L41.0092 85.1399L40.817 87.298C40.817 87.298 38.5581 91.3414 36.6035 91.7759C34.649 92.2111 33.2071 91.003 33.2071 91.003L32.7906 90.0524L32.4861 91.3732C32.4861 91.3732 33.2071 95.4159 33.4955 95.9314C33.896 96.6406 35.3699 97.6231 35.3699 97.6231L36.3632 99.5396C39.2149 102.197 45.2548 102.407 46.969 98.2188C48.8114 92.0817 42.7074 84.6245 40.5767 84.4792Z" fill="url(#paint34_radial_1_283)"/>
<path d="M40.3524 97.5905C40.2563 97.4293 37.9332 91.744 37.8692 91.5662C35.1777 93.9989 33.2391 90.9864 33.2391 90.9864L32.8226 90.0364L32.5182 91.3573C32.5182 91.3573 33.2391 95.4 33.5276 95.9154C33.9281 96.6239 35.4019 97.6071 35.4019 97.6071L36.3952 99.5237C39.247 102.181 45.2868 102.391 47.001 98.2028C47.0491 98.0575 47.0811 97.9288 47.1132 97.7842C45.0785 101.296 42.2589 100.86 40.3524 97.5905Z" fill="#FFCBCB"/>
<path d="M38.4299 95.6415C38.4299 95.6415 42.2749 93.7249 43.8289 89.6981C43.8289 92.3557 40.4966 96.0608 38.4299 95.6415Z" fill="#E94E1B"/>
<path d="M30.6117 65.6014C30.6117 65.6014 27.5197 69.0967 26.3662 67.2766C25.2288 65.4564 26.0618 61.1719 27.2954 61.1396C30.6758 61.0269 33.2552 64.9571 33.2552 64.9571C33.2552 64.9571 33.3994 66.3262 30.6117 65.6014Z" fill="url(#paint35_radial_1_283)"/>
<path d="M31.4928 63.2336C31.4928 63.2336 31.6851 64.49 32.9507 65.537C32.9668 65.537 32.9668 65.5531 32.9668 65.5531C33.2872 65.2954 33.2552 64.9571 33.2552 64.9571C33.2552 64.9571 30.6598 61.0269 27.2954 61.1396C26.991 61.1558 26.7027 61.4134 26.4783 61.8484C27.2794 61.1074 30.2112 61.6551 31.4928 63.2336Z" fill="#DEDC00"/>
<path opacity="0.49" d="M27.8882 65.6014C27.8882 65.6014 26.238 66.5678 25.9016 64.0228C25.7734 65.2148 25.8856 66.4873 26.3982 67.2926C27.5357 69.1128 30.6438 65.6175 30.6438 65.6175C32.374 66.0685 32.9828 65.698 33.191 65.3598C29.6344 62.8953 27.8882 65.6014 27.8882 65.6014Z" fill="url(#paint36_radial_1_283)"/>
<path d="M33.896 73.478L33.4313 70.7075L35.8345 68.6135C36.3471 68.6135 36.7957 69.0806 36.7957 69.0806L36.8758 67.486L36.3312 66.745V66.5034L35.9306 65.5531L35.9787 65.4242L35.4981 64.4417L35.418 64.2323L34.7131 63.6363L31.9895 62.992C31.9895 62.992 29.7466 63.8618 28.6411 65.4082C28.6411 65.4082 26.4143 71.0779 28.7212 76.3129C28.7053 76.2967 29.6505 76.5545 33.896 73.478Z" fill="url(#paint37_radial_1_283)"/>
<path d="M36.3312 66.745V66.5034L35.9306 65.5531L35.9787 65.4242L35.4981 64.4417L35.418 64.2323L34.7131 63.6363L31.9895 62.992C31.9895 62.992 31.7973 63.0725 31.4928 63.2175L31.9895 63.137L34.6489 63.7813L35.2738 64.3289L35.8185 65.392C35.8185 65.392 35.8024 65.4565 35.7704 65.5692L36.1869 66.5357L36.1549 66.7289L36.7156 67.4538L36.6676 68.6135L36.0427 68.2913C36.0427 68.2913 35.1456 69.1612 35.1456 69.2417L35.8505 68.6296C36.3632 68.6296 36.8118 69.0967 36.8118 69.0967L36.8919 67.5021L36.3312 66.745Z" fill="#FFCBCB"/>
<path d="M30.1791 74.686C30.2112 74.0417 30.2753 73.7679 30.4035 73.4135C30.4836 73.1236 30.6117 72.8336 30.7719 72.5598C30.9642 72.3021 31.1724 72.0444 31.3647 71.8028C31.8453 71.3357 32.39 71.0135 33.0308 70.8363C33.159 70.8202 33.2872 70.8041 33.4314 70.788L33.4154 70.7397L35.8185 68.6457C36.3312 68.6457 36.7797 69.1128 36.7797 69.1128L36.1549 68.4041L36.2511 67.937L33.0629 68.388C33.0629 68.388 32.374 67.5826 32.5983 66.9222C32.5983 66.9222 31.9575 66.2457 32.1978 65.6175C32.1978 65.6175 31.605 64.9732 31.8453 64.49C31.8453 64.49 31.4608 63.8296 31.6691 63.3303C31.6691 63.3303 29.4262 64.2806 28.6091 65.4081C28.6091 65.4081 26.3822 71.0779 28.6892 76.3129C28.6892 76.3129 29.0417 76.4095 30.3073 75.7651C30.2112 75.4108 30.1632 75.0564 30.1791 74.686Z" fill="#FFCBCC"/>
<path d="M23.8508 86.1058C21.3516 99.7493 29.426 100.716 35.578 101.038C41.73 101.376 44.5176 99.2822 46.0076 97.4293C55.0273 86.2352 35.9946 68.3558 35.9946 68.3558L34.0561 69.3062C34.0721 69.3062 25.1965 78.7932 23.8508 86.1058Z" fill="url(#paint38_radial_1_283)"/>
<path d="M36.5394 69.9504C52.6082 86.2996 46.985 95.1586 46.6325 96.5762C54.0661 85.3489 35.9947 68.3558 35.9947 68.3558L35.418 68.6457C35.7384 69.0162 36.0428 69.3867 36.3311 69.7732C36.4112 69.8377 36.4753 69.886 36.5394 69.9504Z" fill="#DEDC00"/>
<path opacity="0.49" d="M35.2417 98.6698C23.0819 96.0123 27.9202 82.5301 31.541 74.686C33.0949 71.3034 34.2965 69.9987 34.2965 69.9987C34.2965 69.9987 34.5208 69.596 34.8091 69.5477C34.8733 69.5477 35.6262 74.2672 35.7063 74.2349C35.7864 74.2028 35.1777 69.4349 35.2738 69.3705C35.3699 69.3222 35.466 69.2577 35.5621 69.1772C35.5942 69.145 36.0908 71.2228 36.203 71.1101C36.3471 70.9812 35.8665 69 36.203 68.549C36.0748 68.4202 35.9947 68.3557 35.9947 68.3557L34.0562 69.3061C34.0562 69.3061 25.1807 78.7932 23.8349 86.0899C21.3357 99.7333 29.4102 100.699 35.5621 101.022C41.7141 101.36 44.5018 99.2656 45.9917 97.4134C47.1292 96.0123 47.8181 94.4977 48.1545 92.9355C47.4335 94.7876 43.909 100.57 35.2417 98.6698Z" fill="url(#paint39_radial_1_283)"/>
<path d="M34.7771 66.6323L36.3471 66.745L36.3312 66.5034L34.7771 66.6323Z" fill="#FFCBCC"/>
<path d="M34.3125 65.4564L35.9146 65.537L35.9626 65.4242C35.9787 65.4242 34.6489 65.2631 34.3125 65.4564Z" fill="#FFCBCC"/>
<path d="M33.944 64.1356L35.482 64.4256L35.418 64.2323C35.418 64.2323 34.4728 64.0874 33.944 64.1356Z" fill="#FFCBCC"/>
<g filter="url(#filter1_d_1_283)">
<path fill-rule="evenodd" clip-rule="evenodd" d="M38.3139 86.4186L41.1338 86.1135L40.9948 84.8127L39.5661 84.967C39.9294 84.3007 40.0839 83.5507 39.9925 82.6962C39.7272 80.2151 37.4853 78.5926 34.4062 78.9254C32.7844 79.1004 31.6496 79.6055 30.9874 80.0836L31.7309 81.7006C32.2177 81.3608 33.2248 80.7741 34.6586 80.6191C36.821 80.3853 37.7826 81.5961 37.8988 82.6831C38.0178 83.7963 37.5531 84.5449 36.4359 85.3053L29.1535 86.0927L29.2926 87.3935L33.693 86.9181C32.9313 87.4481 32.3638 88.0175 31.9977 88.6665L29.458 88.9405L29.5971 90.242L31.5428 90.0316C31.4932 90.399 31.4902 90.7906 31.5352 91.212C31.7979 93.6696 33.8377 95.6242 37.5749 95.2201C39.1027 95.0555 40.721 94.4023 41.5065 93.7436L40.8049 92.0741C39.9488 92.7404 38.6596 93.3582 37.2494 93.5105C35.1575 93.7367 33.8165 92.7577 33.6447 91.1511C33.59 90.6405 33.6431 90.1942 33.8189 89.7853L41.4382 88.962L41.2992 87.6612L35.1596 88.3247C35.4812 88.1047 35.8571 87.8861 36.2911 87.6619C37.075 87.2834 37.756 86.8731 38.3139 86.4186Z" fill="white"/>
</g>
<g filter="url(#filter2_d_1_283)">
<path fill-rule="evenodd" clip-rule="evenodd" d="M92.9797 18.9163L93.2412 18.213L92.9205 18.0923L92.7877 18.4486C92.6748 18.2839 92.5172 18.1588 92.3066 18.0795C91.6942 17.8492 91.05 18.1882 90.7638 18.9562C90.6137 19.3607 90.5979 19.6888 90.6316 19.902L91.0975 19.917C91.0755 19.7617 91.0576 19.4541 91.1904 19.0964C91.3914 18.5572 91.7878 18.4726 92.0562 18.5734C92.3307 18.6767 92.4512 18.8751 92.4973 19.2293L91.8215 21.0456L92.1429 21.1664L92.551 20.0688C92.5854 20.3117 92.6514 20.5132 92.7602 20.6765L92.5241 21.3099L92.8455 21.4307L93.0258 20.9454C93.1063 21.0005 93.1978 21.0475 93.3011 21.0866C93.908 21.3146 94.6065 21.0628 94.9534 20.1307C95.0951 19.7496 95.133 19.2896 95.0717 19.0259L94.5983 18.9948C94.6526 19.276 94.6451 19.6541 94.5143 20.0058C94.3202 20.5275 93.9328 20.7293 93.5364 20.5802C93.4105 20.5328 93.3121 20.4676 93.2371 20.3777L93.9445 18.4773L93.6231 18.3567L93.0533 19.8879C93.0402 19.7858 93.0334 19.671 93.032 19.5419C93.0361 19.3117 93.0203 19.102 92.9797 18.9163Z" fill="white"/>
</g>
</g>
<defs>
<filter id="filter0_d_1_283" x="-1" y="0" width="148" height="148" filterUnits="userSpaceOnUse" color-interpolation-filters="sRGB">
<feFlood flood-opacity="0" result="BackgroundImageFix"/>
<feColorMatrix in="SourceAlpha" type="matrix" values="0 0 0 0 0 0 0 0 0 0 0 0 0 0 0 0 0 0 127 0" result="hardAlpha"/>
<feOffset dy="1"/>
<feGaussianBlur stdDeviation="5"/>
<feComposite in2="hardAlpha" operator="out"/>
<feColorMatrix type="matrix" values="0 0 0 0 0.125 0 0 0 0 0.125 0 0 0 0 0.125 0 0 0 0.15 0"/>
<feBlend mode="normal" in2="BackgroundImageFix" result="effect1_dropShadow_1_283"/>
<feBlend mode="normal" in="SourceGraphic" in2="effect1_dropShadow_1_283" result="shape"/>
</filter>
<filter id="filter1_d_1_283" x="27.1535" y="75.8822" width="20.353" height="24.3911" filterUnits="userSpaceOnUse" color-interpolation-filters="sRGB">
<feFlood flood-opacity="0" result="BackgroundImageFix"/>
<feColorMatrix in="SourceAlpha" type="matrix" values="0 0 0 0 0 0 0 0 0 0 0 0 0 0 0 0 0 0 127 0" result="hardAlpha"/>
<feOffset dx="2" dy="1"/>
<feGaussianBlur stdDeviation="2"/>
<feComposite in2="hardAlpha" operator="out"/>
<feColorMatrix type="matrix" values="0 0 0 0 0 0 0 0 0 0 0 0 0 0 0 0 0 0 0.18 0"/>
<feBlend mode="normal" in2="BackgroundImageFix" result="effect1_dropShadow_1_283"/>
<feBlend mode="normal" in="SourceGraphic" in2="effect1_dropShadow_1_283" result="shape"/>
</filter>
<filter id="filter2_d_1_283" x="88.6168" y="15.0084" width="12.4832" height="11.4222" filterUnits="userSpaceOnUse" color-interpolation-filters="sRGB">
<feFlood flood-opacity="0" result="BackgroundImageFix"/>
<feColorMatrix in="SourceAlpha" type="matrix" values="0 0 0 0 0 0 0 0 0 0 0 0 0 0 0 0 0 0 127 0" result="hardAlpha"/>
<feOffset dx="2" dy="1"/>
<feGaussianBlur stdDeviation="2"/>
<feComposite in2="hardAlpha" operator="out"/>
<feColorMatrix type="matrix" values="0 0 0 0 0 0 0 0 0 0 0 0 0 0 0 0 0 0 0.18 0"/>
<feBlend mode="normal" in2="BackgroundImageFix" result="effect1_dropShadow_1_283"/>
<feBlend mode="normal" in="SourceGraphic" in2="effect1_dropShadow_1_283" result="shape"/>
</filter>
<radialGradient id="paint0_radial_1_283" cx="0" cy="0" r="1" gradientUnits="userSpaceOnUse" gradientTransform="translate(82.0584 -24.9044) scale(146.987 148.748)">
<stop stop-color="#DEC11F"/>
<stop offset="0.1924" stop-color="#CABB29"/>
<stop offset="0.5856" stop-color="#97AC44"/>
<stop offset="1" stop-color="#5B9B64"/>
</radialGradient>
<linearGradient id="paint1_linear_1_283" x1="133.919" y1="64.7215" x2="10.1336" y2="76.4728" gradientUnits="userSpaceOnUse">
<stop stop-color="#F4D03F"/>
<stop offset="1" stop-color="#16A085"/>
</linearGradient>
<linearGradient id="paint2_linear_1_283" x1="117.066" y1="65.9779" x2="122.477" y2="76.7223" gradientUnits="userSpaceOnUse">
<stop stop-color="#FCEA10"/>
<stop offset="0.0337723" stop-color="#FCE50F" stop-opacity="0.9997"/>
<stop offset="0.3148" stop-color="#F8C109" stop-opacity="0.9969"/>
<stop offset="0.5779" stop-color="#F5A704" stop-opacity="0.9942"/>
<stop offset="0.814" stop-color="#F49701" stop-opacity="0.9919"/>
<stop offset="1" stop-color="#F39200" stop-opacity="0.99"/>
</linearGradient>
<linearGradient id="paint3_linear_1_283" x1="124.969" y1="67.9547" x2="117.361" y2="79.1599" gradientUnits="userSpaceOnUse">
<stop stop-color="#FCEA10"/>
<stop offset="0.1066" stop-color="#F9D012" stop-opacity="0.9989"/>
<stop offset="0.3155" stop-color="#F3A215" stop-opacity="0.9968"/>
<stop offset="0.5155" stop-color="#EF7D18" stop-opacity="0.9948"/>
<stop offset="0.7016" stop-color="#EC631A" stop-opacity="0.993"/>
<stop offset="0.8685" stop-color="#EA541B" stop-opacity="0.9913"/>
<stop offset="1" stop-color="#E94E1B" stop-opacity="0.99"/>
</linearGradient>
<linearGradient id="paint4_linear_1_283" x1="136.784" y1="82.1925" x2="98.2823" y2="59.0356" gradientUnits="userSpaceOnUse">
<stop stop-color="#FCEA10"/>
<stop offset="0.1066" stop-color="#F9D012" stop-opacity="0.9989"/>
<stop offset="0.3155" stop-color="#F3A215" stop-opacity="0.9968"/>
<stop offset="0.5155" stop-color="#EF7D18" stop-opacity="0.9948"/>
<stop offset="0.7016" stop-color="#EC631A" stop-opacity="0.993"/>
<stop offset="0.8685" stop-color="#EA541B" stop-opacity="0.9913"/>
<stop offset="1" stop-color="#E94E1B" stop-opacity="0.99"/>
</linearGradient>
<linearGradient id="paint5_linear_1_283" x1="381.647" y1="206.344" x2="369.337" y2="200.363" gradientUnits="userSpaceOnUse">
<stop stop-color="#FCEA10"/>
<stop offset="0.1066" stop-color="#F9D012" stop-opacity="0.9989"/>
<stop offset="0.3155" stop-color="#F3A215" stop-opacity="0.9968"/>
<stop offset="0.5155" stop-color="#EF7D18" stop-opacity="0.9948"/>
<stop offset="0.7016" stop-color="#EC631A" stop-opacity="0.993"/>
<stop offset="0.8685" stop-color="#EA541B" stop-opacity="0.9913"/>
<stop offset="1" stop-color="#E94E1B" stop-opacity="0.99"/>
</linearGradient>
<linearGradient id="paint6_linear_1_283" x1="381.065" y1="207.542" x2="368.754" y2="201.561" gradientUnits="userSpaceOnUse">
<stop stop-color="#FCEA10"/>
<stop offset="0.1066" stop-color="#F9D012" stop-opacity="0.9989"/>
<stop offset="0.3155" stop-color="#F3A215" stop-opacity="0.9968"/>
<stop offset="0.5155" stop-color="#EF7D18" stop-opacity="0.9948"/>
<stop offset="0.7016" stop-color="#EC631A" stop-opacity="0.993"/>
<stop offset="0.8685" stop-color="#EA541B" stop-opacity="0.9913"/>
<stop offset="1" stop-color="#E94E1B" stop-opacity="0.99"/>
</linearGradient>
<linearGradient id="paint7_linear_1_283" x1="382.475" y1="204.636" x2="370.165" y2="198.655" gradientUnits="userSpaceOnUse">
<stop stop-color="#FCEA10"/>
<stop offset="0.1066" stop-color="#F9D012" stop-opacity="0.9989"/>
<stop offset="0.3155" stop-color="#F3A215" stop-opacity="0.9968"/>
<stop offset="0.5155" stop-color="#EF7D18" stop-opacity="0.9948"/>
<stop offset="0.7016" stop-color="#EC631A" stop-opacity="0.993"/>
<stop offset="0.8685" stop-color="#EA541B" stop-opacity="0.9913"/>
<stop offset="1" stop-color="#E94E1B" stop-opacity="0.99"/>
</linearGradient>
<linearGradient id="paint8_linear_1_283" x1="298.063" y1="-325.264" x2="289.691" y2="-306.302" gradientUnits="userSpaceOnUse">
<stop stop-color="#FCEA10"/>
<stop offset="0.1066" stop-color="#F9D012" stop-opacity="0.9989"/>
<stop offset="0.3155" stop-color="#F3A215" stop-opacity="0.9968"/>
<stop offset="0.5155" stop-color="#EF7D18" stop-opacity="0.9948"/>
<stop offset="0.7016" stop-color="#EC631A" stop-opacity="0.993"/>
<stop offset="0.8685" stop-color="#EA541B" stop-opacity="0.9913"/>
<stop offset="1" stop-color="#E94E1B" stop-opacity="0.99"/>
</linearGradient>
<linearGradient id="paint9_linear_1_283" x1="32.0761" y1="37.1737" x2="36.2671" y2="48.4562" gradientUnits="userSpaceOnUse">
<stop stop-color="#FCEA10"/>
<stop offset="0.0337723" stop-color="#FCE50F" stop-opacity="0.9997"/>
<stop offset="0.3148" stop-color="#F8C109" stop-opacity="0.9969"/>
<stop offset="0.5779" stop-color="#F5A704" stop-opacity="0.9942"/>
<stop offset="0.814" stop-color="#F49701" stop-opacity="0.9919"/>
<stop offset="1" stop-color="#F39200" stop-opacity="0.99"/>
</linearGradient>
<linearGradient id="paint10_linear_1_283" x1="42.9245" y1="55.9163" x2="29.3552" y2="34.5628" gradientUnits="userSpaceOnUse">
<stop stop-color="#FCEA10"/>
<stop offset="0.1066" stop-color="#F9D012" stop-opacity="0.9989"/>
<stop offset="0.3155" stop-color="#F3A215" stop-opacity="0.9968"/>
<stop offset="0.5155" stop-color="#EF7D18" stop-opacity="0.9948"/>
<stop offset="0.7016" stop-color="#EC631A" stop-opacity="0.993"/>
<stop offset="0.8685" stop-color="#EA541B" stop-opacity="0.9913"/>
<stop offset="1" stop-color="#E94E1B" stop-opacity="0.99"/>
</linearGradient>
<linearGradient id="paint11_linear_1_283" x1="50.3166" y1="47.4271" x2="13.4597" y2="40.3984" gradientUnits="userSpaceOnUse">
<stop stop-color="#FCEA10"/>
<stop offset="0.1066" stop-color="#F9D012" stop-opacity="0.9989"/>
<stop offset="0.3155" stop-color="#F3A215" stop-opacity="0.9968"/>
<stop offset="0.5155" stop-color="#EF7D18" stop-opacity="0.9948"/>
<stop offset="0.7016" stop-color="#EC631A" stop-opacity="0.993"/>
<stop offset="0.8685" stop-color="#EA541B" stop-opacity="0.9913"/>
<stop offset="1" stop-color="#E94E1B" stop-opacity="0.99"/>
</linearGradient>
<linearGradient id="paint12_linear_1_283" x1="279.656" y1="205.999" x2="268.072" y2="198.697" gradientUnits="userSpaceOnUse">
<stop stop-color="#FCEA10"/>
<stop offset="0.1066" stop-color="#F9D012" stop-opacity="0.9989"/>
<stop offset="0.3155" stop-color="#F3A215" stop-opacity="0.9968"/>
<stop offset="0.5155" stop-color="#EF7D18" stop-opacity="0.9948"/>
<stop offset="0.7016" stop-color="#EC631A" stop-opacity="0.993"/>
<stop offset="0.8685" stop-color="#EA541B" stop-opacity="0.9913"/>
<stop offset="1" stop-color="#E94E1B" stop-opacity="0.99"/>
</linearGradient>
<linearGradient id="paint13_linear_1_283" x1="278.946" y1="207.125" x2="267.363" y2="199.823" gradientUnits="userSpaceOnUse">
<stop stop-color="#FCEA10"/>
<stop offset="0.1066" stop-color="#F9D012" stop-opacity="0.9989"/>
<stop offset="0.3155" stop-color="#F3A215" stop-opacity="0.9968"/>
<stop offset="0.5155" stop-color="#EF7D18" stop-opacity="0.9948"/>
<stop offset="0.7016" stop-color="#EC631A" stop-opacity="0.993"/>
<stop offset="0.8685" stop-color="#EA541B" stop-opacity="0.9913"/>
<stop offset="1" stop-color="#E94E1B" stop-opacity="0.99"/>
</linearGradient>
<linearGradient id="paint14_linear_1_283" x1="280.668" y1="204.395" x2="269.083" y2="197.093" gradientUnits="userSpaceOnUse">
<stop stop-color="#FCEA10"/>
<stop offset="0.1066" stop-color="#F9D012" stop-opacity="0.9989"/>
<stop offset="0.3155" stop-color="#F3A215" stop-opacity="0.9968"/>
<stop offset="0.5155" stop-color="#EF7D18" stop-opacity="0.9948"/>
<stop offset="0.7016" stop-color="#EC631A" stop-opacity="0.993"/>
<stop offset="0.8685" stop-color="#EA541B" stop-opacity="0.9913"/>
<stop offset="1" stop-color="#E94E1B" stop-opacity="0.99"/>
</linearGradient>
<linearGradient id="paint15_linear_1_283" x1="254.876" y1="-331.628" x2="244.463" y2="-313.717" gradientUnits="userSpaceOnUse">
<stop stop-color="#FCEA10"/>
<stop offset="0.1066" stop-color="#F9D012" stop-opacity="0.9989"/>
<stop offset="0.3155" stop-color="#F3A215" stop-opacity="0.9968"/>
<stop offset="0.5155" stop-color="#EF7D18" stop-opacity="0.9948"/>
<stop offset="0.7016" stop-color="#EC631A" stop-opacity="0.993"/>
<stop offset="0.8685" stop-color="#EA541B" stop-opacity="0.9913"/>
<stop offset="1" stop-color="#E94E1B" stop-opacity="0.99"/>
</linearGradient>
<radialGradient id="paint16_radial_1_283" cx="0" cy="0" r="1" gradientUnits="userSpaceOnUse" gradientTransform="translate(109.121 104.037) rotate(36.9035) scale(5.71928 5.72796)">
<stop stop-color="#95C11F"/>
<stop offset="0.3357" stop-color="#84B633"/>
<stop offset="1" stop-color="#5B9B64"/>
</radialGradient>
<radialGradient id="paint17_radial_1_283" cx="0" cy="0" r="1" gradientUnits="userSpaceOnUse" gradientTransform="translate(115.736 113.817) rotate(97.0101) scale(18.188 18.0932)">
<stop stop-color="#DEC11F"/>
<stop offset="0.1924" stop-color="#CABB29"/>
<stop offset="0.5856" stop-color="#97AC44"/>
<stop offset="1" stop-color="#5B9B64"/>
</radialGradient>
<radialGradient id="paint18_radial_1_283" cx="0" cy="0" r="1" gradientUnits="userSpaceOnUse" gradientTransform="translate(117.779 112.009) rotate(-37.6655) scale(13.9568 13.9761)">
<stop stop-color="#DEC11F"/>
<stop offset="0.1924" stop-color="#CABB29"/>
<stop offset="0.5856" stop-color="#97AC44"/>
<stop offset="1" stop-color="#5B9B64"/>
</radialGradient>
<radialGradient id="paint19_radial_1_283" cx="0" cy="0" r="1" gradientUnits="userSpaceOnUse" gradientTransform="translate(112.352 105.263) rotate(17.0628) scale(7.22564 7.25798)">
<stop offset="0.3272" stop-color="#A2C7BF"/>
<stop offset="0.4122" stop-color="#8DC1BC"/>
<stop offset="0.5873" stop-color="#58B1B4"/>
<stop offset="0.8358" stop-color="#0398A6"/>
<stop offset="0.8436" stop-color="#0097A6"/>
</radialGradient>
<radialGradient id="paint20_radial_1_283" cx="0" cy="0" r="1" gradientUnits="userSpaceOnUse" gradientTransform="translate(108.87 -16.3776) scale(192.133 193.171)">
<stop stop-color="white"/>
<stop offset="0.5536" stop-color="#459FFF"/>
<stop offset="0.7306" stop-color="#3574DD"/>
<stop offset="1" stop-color="#1E36AD"/>
</radialGradient>
<radialGradient id="paint21_radial_1_283" cx="0" cy="0" r="1" gradientUnits="userSpaceOnUse" gradientTransform="translate(108.202 99.341) rotate(0.35426) scale(92.3761 92.8754)">
<stop stop-color="#A86100"/>
<stop offset="1" stop-color="#672B3A"/>
</radialGradient>
<radialGradient id="paint22_radial_1_283" cx="0" cy="0" r="1" gradientUnits="userSpaceOnUse" gradientTransform="translate(84.7093 53.6591) rotate(0.35426) scale(32.4355 32.6109)">
<stop offset="0.0526211" stop-color="#FFBFA6"/>
<stop offset="0.2319" stop-color="#FFB6A1"/>
<stop offset="0.525" stop-color="#FF9D94"/>
<stop offset="0.8936" stop-color="#FF767F"/>
<stop offset="1" stop-color="#FF6978"/>
</radialGradient>
<radialGradient id="paint23_radial_1_283" cx="0" cy="0" r="1" gradientUnits="userSpaceOnUse" gradientTransform="translate(94.6231 5.30037) rotate(-11.8674) scale(22.4725 22.5837)">
<stop stop-color="#95C11F"/>
<stop offset="0.3329" stop-color="#85B633"/>
<stop offset="0.7884" stop-color="#69A454"/>
<stop offset="1" stop-color="#5B9B64"/>
</radialGradient>
<radialGradient id="paint24_radial_1_283" cx="0" cy="0" r="1" gradientUnits="userSpaceOnUse" gradientTransform="translate(90.5484 5.72472) rotate(-21.8536) scale(22.4821 22.5701)">
<stop stop-color="#95C11F"/>
<stop offset="0.3329" stop-color="#85B633"/>
<stop offset="0.7884" stop-color="#69A454"/>
<stop offset="1" stop-color="#5B9B64"/>
</radialGradient>
<radialGradient id="paint25_radial_1_283" cx="0" cy="0" r="1" gradientUnits="userSpaceOnUse" gradientTransform="translate(106.329 27.3557) rotate(0.354259) scale(37.6297 37.8331)">
<stop offset="0.0526211" stop-color="#FFBFA6"/>
<stop offset="0.2319" stop-color="#FFB6A1"/>
<stop offset="0.525" stop-color="#FF9D94"/>
<stop offset="0.8936" stop-color="#FF767F"/>
<stop offset="1" stop-color="#FF6978"/>
</radialGradient>
<radialGradient id="paint26_radial_1_283" cx="0" cy="0" r="1" gradientUnits="userSpaceOnUse" gradientTransform="translate(84.935 25.5207) rotate(0.35426) scale(121.676 122.333)">
<stop stop-color="#FCEA10"/>
<stop offset="1" stop-color="#F39200"/>
</radialGradient>
<radialGradient id="paint27_radial_1_283" cx="0" cy="0" r="1" gradientUnits="userSpaceOnUse" gradientTransform="translate(75.9935 50.1604) rotate(0.354259) scale(22.9026 23.0264)">
<stop stop-color="#FCEA10"/>
<stop offset="1" stop-color="#F39200"/>
</radialGradient>
<radialGradient id="paint28_radial_1_283" cx="0" cy="0" r="1" gradientUnits="userSpaceOnUse" gradientTransform="translate(75.4235 33.1501) rotate(-7.71247) scale(26.4928 26.6308)">
<stop stop-color="#FFBFA6"/>
<stop offset="0.1835" stop-color="#FFB8A2"/>
<stop offset="0.4457" stop-color="#FFA598"/>
<stop offset="0.7536" stop-color="#FF8788"/>
<stop offset="1" stop-color="#FF6978"/>
</radialGradient>
<radialGradient id="paint29_radial_1_283" cx="0" cy="0" r="1" gradientUnits="userSpaceOnUse" gradientTransform="translate(68.7846 15.6295) rotate(-7.71247) scale(28.3225 28.4701)">
<stop stop-color="#A86100"/>
<stop offset="1" stop-color="#672B3A"/>
</radialGradient>
<radialGradient id="paint30_radial_1_283" cx="0" cy="0" r="1" gradientUnits="userSpaceOnUse" gradientTransform="translate(70.5133 35.2706) rotate(166.64) scale(8.3281 8.36832)">
<stop offset="0.257" stop-color="white"/>
<stop offset="0.3824" stop-color="#FFE2E2"/>
<stop offset="1" stop-color="#FF5459"/>
</radialGradient>
<radialGradient id="paint31_radial_1_283" cx="0" cy="0" r="1" gradientUnits="userSpaceOnUse" gradientTransform="translate(61.8959 36.9731) rotate(166.64) scale(8.3281 8.36832)">
<stop offset="0.257" stop-color="white"/>
<stop offset="0.3824" stop-color="#FFE2E2"/>
<stop offset="1" stop-color="#FF5459"/>
</radialGradient>
<radialGradient id="paint32_radial_1_283" cx="0" cy="0" r="1" gradientUnits="userSpaceOnUse" gradientTransform="translate(55.7201 69.4695) rotate(0.35426) scale(35.7183 35.9113)">
<stop offset="0.0526211" stop-color="#FFBFA6"/>
<stop offset="0.2319" stop-color="#FFB6A1"/>
<stop offset="0.525" stop-color="#FF9D94"/>
<stop offset="0.8936" stop-color="#FF767F"/>
<stop offset="1" stop-color="#FF6978"/>
</radialGradient>
<radialGradient id="paint33_radial_1_283" cx="0" cy="0" r="1" gradientUnits="userSpaceOnUse" gradientTransform="translate(45.3764 51.1006) rotate(0.35426) scale(52.7822 53.0675)">
<stop offset="0.3367" stop-color="#FF984A"/>
<stop offset="1" stop-color="#B83D18"/>
</radialGradient>
<radialGradient id="paint34_radial_1_283" cx="0" cy="0" r="1" gradientUnits="userSpaceOnUse" gradientTransform="translate(55.5215 83.6565) rotate(0.35426) scale(23.1584 23.2836)">
<stop stop-color="#FCEA10"/>
<stop offset="1" stop-color="#F39200"/>
</radialGradient>
<radialGradient id="paint35_radial_1_283" cx="0" cy="0" r="1" gradientUnits="userSpaceOnUse" gradientTransform="translate(32.008 59.3024) rotate(-22.5607) scale(11.6197 11.664)">
<stop stop-color="#95C11F"/>
<stop offset="0.3329" stop-color="#85B633"/>
<stop offset="0.7884" stop-color="#69A454"/>
<stop offset="1" stop-color="#5B9B64"/>
</radialGradient>
<radialGradient id="paint36_radial_1_283" cx="0" cy="0" r="1" gradientUnits="userSpaceOnUse" gradientTransform="translate(32.008 59.3024) rotate(-22.5607) scale(11.6197 11.6641)">
<stop stop-color="#95C11F"/>
<stop offset="0.3357" stop-color="#84B633"/>
<stop offset="1" stop-color="#5B9B64"/>
</radialGradient>
<radialGradient id="paint37_radial_1_283" cx="0" cy="0" r="1" gradientUnits="userSpaceOnUse" gradientTransform="translate(38.1561 58.5487) rotate(0.35426) scale(24.0664 24.1966)">
<stop offset="0.0526211" stop-color="#FFBFA6"/>
<stop offset="0.2319" stop-color="#FFB6A1"/>
<stop offset="0.525" stop-color="#FF9D94"/>
<stop offset="0.8936" stop-color="#FF767F"/>
<stop offset="1" stop-color="#FF6978"/>
</radialGradient>
<radialGradient id="paint38_radial_1_283" cx="0" cy="0" r="1" gradientUnits="userSpaceOnUse" gradientTransform="translate(46.3371 72.5376) rotate(0.35426) scale(30.5243 30.6893)">
<stop stop-color="#95C11F"/>
<stop offset="0.3329" stop-color="#85B633"/>
<stop offset="0.7884" stop-color="#69A454"/>
<stop offset="1" stop-color="#5B9B64"/>
</radialGradient>
<radialGradient id="paint39_radial_1_283" cx="0" cy="0" r="1" gradientUnits="userSpaceOnUse" gradientTransform="translate(39.2311 74.126) rotate(3.07019) scale(28.738 28.8925)">
<stop stop-color="#95C11F"/>
<stop offset="0.3357" stop-color="#84B633"/>
<stop offset="1" stop-color="#5B9B64"/>
</radialGradient>
</defs>
</svg>
