<svg width="128" height="120" viewBox="0 0 128 120" fill="none" xmlns="http://www.w3.org/2000/svg">
<path d="M117.181 55.5459C117.181 27.7572 96.5395 4.789 69.7627 1.19727C71.8237 1.87465 73.8532 2.64656 75.8355 3.52874C78.337 4.63147 80.7755 5.89173 83.1039 7.32527C85.4323 8.75882 87.6506 10.3499 89.7116 12.13C91.7725 13.9101 93.6762 15.8635 95.3595 17.9902C97.0272 20.1169 98.4746 22.4326 99.6388 24.8586C98.3173 22.5114 96.744 20.3217 94.9505 18.3368C93.157 16.3519 91.1747 14.556 89.0508 12.9492C86.9269 11.3424 84.6614 9.94031 82.3173 8.69581C79.9731 7.4513 77.5346 6.39583 75.0489 5.48215C72.5631 4.56846 70.0145 3.82806 67.4501 3.22943C64.8857 2.63081 62.2741 2.18972 59.6625 1.90616C57.3026 1.65411 54.927 1.52808 52.5986 1.60685C30.4629 5.60817 12.9369 22.9525 8.64196 45.007H8.73635C8.16998 48.6933 8.02839 52.4741 8.32731 56.2233C8.62623 59.9883 9.38139 63.7376 10.64 67.3294C11.9143 70.9211 13.7078 74.3553 16.0992 77.3799C17.2948 78.8922 18.6478 80.31 20.1267 81.5703C21.6055 82.8305 23.2417 83.949 24.9723 84.8942C23.1316 84.1853 21.3538 83.2716 19.6704 82.1689C17.9871 81.0819 16.4138 79.8059 14.9664 78.3881C13.283 76.7498 11.7727 74.9067 10.4355 72.9375C13.6449 82.5312 19.4187 90.9277 26.9389 97.3393H97.8453C109.676 87.2887 117.181 72.2916 117.181 55.5459Z" fill="url(#paint0_radial_1_721)"/>
<path d="M120.06 98.1111C120.06 94.1413 96.1147 90.9277 66.5691 90.9277C37.0234 90.9277 13.0785 94.1413 13.0785 98.1111C13.0785 101.75 33.1375 104.743 59.1905 105.232C49.5937 105.925 43.0647 107.28 43.0647 108.839C43.0647 110.225 48.2564 111.47 56.1699 112.195C56.1699 112.195 58.4668 119.205 64.4452 119.205C70.4235 119.205 73.4756 112.919 73.4756 112.919C90.278 112.919 103.887 111.092 103.887 108.839C103.887 107.027 95.1078 105.484 82.9623 104.948C104.484 104.019 120.06 101.309 120.06 98.1111Z" fill="#006633"/>
<path d="M26.2466 24.638C24.0598 20.8573 18.2545 20.1326 13.2987 22.9997C8.32726 25.8826 6.07751 31.2859 8.26433 35.0667C8.45312 35.3818 9.17681 36.6263 9.34987 36.9571C11.5367 40.7379 17.342 41.4625 22.2977 38.5954C27.2535 35.7283 29.519 30.3092 27.3321 26.5284C27.1591 26.1976 26.4354 24.9531 26.2466 24.638Z" fill="url(#paint1_radial_1_721)"/>
<path opacity="0.5" d="M20.7852 35.9461C25.2065 33.3826 27.213 28.5761 25.2668 25.2106C23.3206 21.845 18.1586 21.1948 13.7373 23.7583C9.31592 26.3218 7.30943 31.1283 9.25566 34.4938C11.2019 37.8594 16.3638 38.5096 20.7852 35.9461Z" fill="#FFA698"/>
<path d="M13.7235 23.7559C18.1444 21.1881 23.3046 21.8497 25.2554 25.2052C27.2063 28.5764 25.1925 33.3811 20.7717 35.9331C16.3508 38.5009 11.1906 37.8393 9.23975 34.4838C7.30466 31.1284 9.31842 26.3237 13.7235 23.7559ZM13.5505 23.4408C11.3479 24.7168 9.6488 26.5757 8.76778 28.6866C7.87103 30.8133 7.93396 32.9558 8.94084 34.6729C9.94772 36.4057 11.757 37.5084 14.0382 37.8078C16.2879 38.0913 18.7579 37.54 20.9605 36.2639C23.163 34.9879 24.8621 33.1291 25.7432 31.0181C26.6399 28.8914 26.577 26.749 25.5701 25.0319C24.5632 23.299 22.754 22.1963 20.4728 21.897C18.2073 21.6134 15.753 22.1648 13.5505 23.4408Z" fill="#FFCC59"/>
<path d="M24.988 31.727C25.0824 31.5695 25.1611 31.3962 25.2397 31.2386C25.1611 31.4119 25.0824 31.5695 24.988 31.727Z" fill="#F99733"/>
<path d="M22.4079 34.8147C22.6911 34.5784 22.9743 34.3263 23.226 34.0743C22.9743 34.3263 22.7068 34.5784 22.4079 34.8147Z" fill="#F99733"/>
<path opacity="0.3" d="M26.3253 28.4188C26.3253 28.7024 26.3096 29.0017 26.2624 29.301L27.6783 31.7585C27.7412 31.5222 27.7884 31.2859 27.8356 31.0496L26.3253 28.4188Z" fill="#FFA698"/>
<path opacity="0.3" d="M25.869 30.9078L27.1748 33.1606C27.285 32.9243 27.3794 32.688 27.458 32.4517L26.105 30.1044C26.0421 30.388 25.9634 30.64 25.869 30.9078Z" fill="#FFA698"/>
<path opacity="0.3" d="M25.1611 32.4516L26.404 34.5941C26.5613 34.3578 26.7029 34.1215 26.8287 33.8852L25.5544 31.6955C25.4285 31.9475 25.3027 32.1996 25.1611 32.4516Z" fill="#FFA698"/>
<path opacity="0.3" d="M24.1385 33.9325L25.3342 35.9962C25.5544 35.7599 25.7432 35.5236 25.932 35.2715L24.7206 33.1763C24.5475 33.4441 24.343 33.6962 24.1385 33.9325Z" fill="#FFA698"/>
<path opacity="0.3" d="M22.817 35.2715L23.9812 37.3036C24.2643 37.0673 24.5475 36.831 24.815 36.579L23.635 34.5311C23.3833 34.7831 23.1001 35.0352 22.817 35.2715Z" fill="#FFA698"/>
<path opacity="0.3" d="M21.6685 36.2482C21.637 36.2797 21.6056 36.2954 21.5584 36.3269L22.5495 38.2646C22.8327 38.0283 23.4305 37.6817 23.4305 37.6817L22.3293 35.7756C22.109 35.9489 21.8887 36.1064 21.6685 36.2482Z" fill="#FFA698"/>
<path opacity="0.3" d="M21.1021 36.4845C12.1346 41.1317 8.24865 34.4996 8.15426 34.4996C8.21719 34.6414 8.29585 34.7831 8.37452 34.9092C8.56331 35.2242 9.287 36.4687 9.46006 36.7995C11.6154 40.5331 17.2791 41.2892 22.2034 38.5482C22.1719 38.5009 22.1562 38.4694 22.1247 38.4221C21.7471 37.8078 21.4168 37.1619 21.1021 36.4845Z" fill="#FFA698"/>
<path d="M20.7875 35.9489C20.6301 36.0434 20.4728 36.1222 20.3155 36.2167C20.4571 36.1222 20.6144 36.0434 20.7875 35.9489Z" fill="#F99733"/>
<path d="M125.283 44.8495C127.58 41.1317 125.472 35.6653 120.579 32.6565C115.686 29.6319 109.881 30.2147 107.584 33.9325C107.395 34.2476 106.64 35.4763 106.435 35.7914C104.138 39.5091 106.246 44.9755 111.139 47.9844C116.032 51.009 121.837 50.4261 124.134 46.7084C124.323 46.3775 125.078 45.1645 125.283 44.8495Z" fill="url(#paint2_radial_1_721)"/>
<path opacity="0.35" d="M124.309 44.244C126.347 40.9336 124.475 36.0733 120.126 33.388C115.777 30.7027 110.599 31.2094 108.56 34.5198C106.522 37.8301 108.394 42.6905 112.743 45.3758C117.092 48.061 122.27 47.5543 124.309 44.244Z" fill="#FFA698"/>
<path d="M120.122 33.3811C124.465 36.0592 126.337 40.9269 124.307 44.2351C122.262 47.5433 117.086 48.0474 112.744 45.3693C108.402 42.6913 106.53 37.8235 108.559 34.5153C110.604 31.2072 115.78 30.7031 120.122 33.3811ZM120.311 33.0818C118.14 31.7428 115.702 31.1284 113.436 31.3489C111.139 31.5695 109.298 32.6407 108.244 34.3263C107.19 36.0277 107.08 38.1543 107.914 40.3125C108.732 42.4392 110.384 44.3454 112.539 45.6844C114.71 47.0234 117.149 47.6378 119.415 47.4172C121.711 47.1967 123.552 46.1255 124.606 44.4399C125.66 42.7543 125.77 40.6118 124.937 38.4537C124.134 36.327 122.482 34.4208 120.311 33.0818Z" fill="#FFCC59"/>
<path d="M118.439 47.0864C118.628 47.0864 118.801 47.0864 118.99 47.0707C118.817 47.0864 118.628 47.1022 118.439 47.0864Z" fill="#F99733"/>
<path d="M116.567 46.8974C116.882 46.9604 117.196 47.0077 117.511 47.0392C117.212 47.0077 116.882 46.9604 116.567 46.8974Z" fill="#F99733"/>
<path d="M114.522 46.283C114.868 46.4248 115.214 46.5508 115.56 46.6453C115.214 46.5351 114.868 46.4248 114.522 46.283Z" fill="#F99733"/>
<path opacity="0.35" d="M121.995 46.6926C121.743 46.8344 121.475 46.9604 121.192 47.0549L119.698 49.4652C119.934 49.4022 120.17 49.3392 120.39 49.2604L121.995 46.6926Z" fill="#FFA698"/>
<path opacity="0.35" d="M119.587 47.4803L118.219 49.7015C118.47 49.6857 118.722 49.6542 118.974 49.6227L120.39 47.3228C120.122 47.3858 119.855 47.433 119.587 47.4803Z" fill="#FFA698"/>
<path opacity="0.35" d="M117.888 47.5906L116.598 49.7015C116.882 49.7173 117.149 49.733 117.432 49.733L118.754 47.5748C118.455 47.5906 118.172 47.5906 117.888 47.5906Z" fill="#FFA698"/>
<path opacity="0.35" d="M116.095 47.3858L114.836 49.418C115.151 49.4967 115.45 49.5598 115.765 49.607L117.039 47.5433C116.724 47.4961 116.41 47.4488 116.095 47.3858Z" fill="#FFA698"/>
<path opacity="0.35" d="M114.301 46.8502L113.074 48.8351C113.42 48.9768 113.751 49.1186 114.097 49.2289L115.34 47.2125C114.994 47.118 114.648 46.9919 114.301 46.8502Z" fill="#FFA698"/>
<path opacity="0.35" d="M112.885 46.2988C112.854 46.283 112.807 46.2673 112.76 46.2515L111.517 48.0474C111.863 48.1892 112.445 48.5515 112.445 48.5515L113.593 46.6769C113.373 46.5508 113.121 46.4248 112.885 46.2988Z" fill="#FFA698"/>
<path opacity="0.35" d="M112.414 45.9207C104.075 40.2181 108.071 33.6332 108.024 33.5702C107.93 33.6962 107.851 33.8222 107.757 33.9483C107.568 34.2633 106.813 35.4921 106.608 35.8072C104.343 39.4777 106.372 44.8338 111.108 47.8741C111.139 47.8269 111.155 47.7954 111.186 47.7481C111.564 47.1022 111.973 46.5036 112.414 45.9207Z" fill="#FFA698"/>
<path d="M125.928 82.4367C126.588 81.9168 124.15 77.7107 120.484 73.0793C116.803 68.4321 113.295 65.0924 112.634 65.628C112.288 65.9116 111.218 66.7465 110.872 67.03C110.211 67.5499 112.649 71.756 116.315 76.3875C119.997 81.0347 123.505 84.3743 124.166 83.8387C124.496 83.5552 125.566 82.7045 125.928 82.4367Z" fill="url(#paint3_radial_1_721)"/>
<path opacity="0.35" d="M112.807 67.1403C112.634 66.6835 112.524 66.2109 112.476 65.7225C112.052 66.0691 111.155 66.778 110.84 67.0143C110.29 67.4554 111.863 70.3855 114.506 74.0245C115.135 73.5834 116.237 72.8587 116.237 72.8587C115.544 72.1341 113.247 68.3218 112.807 67.1403Z" fill="#FFA698"/>
<path opacity="0.35" d="M125.111 81.4173C125.602 81.0283 123.401 77.4292 120.196 73.3786C116.991 69.3279 113.995 66.3596 113.505 66.7486C113.014 67.1376 115.215 70.7366 118.42 74.7873C121.625 78.8379 124.621 81.8063 125.111 81.4173Z" fill="#FFA698"/>
<path opacity="0.35" d="M124.37 81.5545L122.482 83.0511C122.655 83.1928 122.813 83.3031 122.954 83.4134L124.842 81.9168C124.685 81.8066 124.528 81.6805 124.37 81.5545Z" fill="#FFA698"/>
<path opacity="0.35" d="M123.301 80.6093L121.413 82.1059C121.57 82.2634 121.727 82.4052 121.885 82.547L123.772 81.0504C123.631 80.9086 123.474 80.7668 123.301 80.6093Z" fill="#FFA698"/>
<path opacity="0.35" d="M122.199 79.5223L120.311 81.0189C120.484 81.1922 120.642 81.3655 120.815 81.523L122.703 80.0264C122.545 79.8689 122.372 79.6956 122.199 79.5223Z" fill="#FFA698"/>
<path opacity="0.35" d="M121.035 78.2621L119.147 79.7586C119.32 79.9634 119.509 80.1525 119.682 80.3415L121.57 78.845C121.381 78.6559 121.208 78.4669 121.035 78.2621Z" fill="#FFA698"/>
<path opacity="0.35" d="M119.776 76.8285L117.889 78.325C118.077 78.5456 118.266 78.7661 118.455 78.9867L120.343 77.4901C120.154 77.2696 119.965 77.049 119.776 76.8285Z" fill="#FFA698"/>
<path opacity="0.35" d="M116.536 76.6867C116.74 76.9388 116.945 77.1909 117.149 77.4429L119.037 75.9463C118.832 75.6943 118.628 75.4422 118.423 75.1902L116.536 76.6867Z" fill="#FFA698"/>
<path opacity="0.35" d="M115.104 74.8279C115.308 75.1114 115.529 75.395 115.749 75.6785L117.637 74.182C117.416 73.8984 117.196 73.6149 116.992 73.3313L115.104 74.8279Z" fill="#FFA698"/>
<path d="M17.1689 56.4438C16.6655 55.7664 12.4177 58.1136 7.68224 61.6739C2.96249 65.2341 -0.467198 68.6841 0.0519749 69.3614C0.319428 69.7238 1.13752 70.8107 1.40497 71.1573C1.90841 71.8347 6.15619 69.4875 10.8917 65.9272C15.6114 62.367 19.0411 58.917 18.5219 58.2397C18.2545 57.8773 17.4364 56.7904 17.1689 56.4438Z" fill="url(#paint4_radial_1_721)"/>
<path opacity="0.35" d="M1.57802 69.1882C1.12178 69.3457 0.634069 69.4402 0.162094 69.4717C0.492477 69.9128 1.18471 70.8265 1.42069 71.1416C1.84547 71.7087 4.81892 70.1964 8.50032 67.6444C8.05981 67.0142 7.38332 65.88 7.38332 65.88C6.62816 66.5731 2.77369 68.7786 1.57802 69.1882Z" fill="#FFA698"/>
<path opacity="0.35" d="M9.35093 63.7584C13.4721 60.6478 16.5077 57.7206 16.1312 57.2204C15.7547 56.7202 12.1085 58.8364 7.98734 61.947C3.86615 65.0576 0.830518 67.9847 1.20706 68.4849C1.58361 68.9851 5.22974 66.869 9.35093 63.7584Z" fill="#FFA698"/>
<path opacity="0.35" d="M16.2565 57.9719L17.7039 59.8938C17.8455 59.7362 17.9713 59.5787 18.0657 59.4369L16.6183 57.515C16.5082 57.6568 16.3823 57.8143 16.2565 57.9719Z" fill="#FFA698"/>
<path opacity="0.35" d="M15.2968 59.0116L16.7442 60.9335C16.9015 60.776 17.0431 60.6184 17.1847 60.4766L15.7373 58.5547C15.5957 58.6965 15.4541 58.8541 15.2968 59.0116Z" fill="#FFA698"/>
<path opacity="0.35" d="M14.1798 60.0828L15.6272 62.0047C15.8002 61.8471 15.9733 61.6738 16.1463 61.5163L14.6989 59.5944C14.5259 59.752 14.3528 59.9252 14.1798 60.0828Z" fill="#FFA698"/>
<path opacity="0.35" d="M12.8897 61.2328L14.3371 63.1547C14.5416 62.9814 14.7304 62.8081 14.9349 62.6348L13.4876 60.713C13.283 60.8862 13.0942 61.0595 12.8897 61.2328Z" fill="#FFA698"/>
<path opacity="0.35" d="M11.4266 62.4615L12.874 64.3834C13.11 64.1944 13.3302 64.0053 13.5505 63.8321L12.1031 61.9102C11.8828 62.0834 11.6468 62.2725 11.4266 62.4615Z" fill="#FFA698"/>
<path opacity="0.35" d="M11.2064 65.6909C11.4738 65.4861 11.7255 65.2971 11.9773 65.0923L10.5299 63.1704C10.2781 63.3594 10.0264 63.5642 9.75897 63.769L11.2064 65.6909Z" fill="#FFA698"/>
<path opacity="0.35" d="M9.31844 67.0772C9.60163 66.8724 9.90054 66.6676 10.1837 66.4471L8.73634 64.5252C8.43742 64.7458 8.15423 64.9505 7.87105 65.1553L9.31844 67.0772Z" fill="#FFA698"/>
<path d="M6.62816 65.2026L7.47772 64.6827L7.82383 64.3047C8.37447 63.9581 8.89364 63.5958 9.38135 63.2335C9.86906 62.8711 10.2309 62.5403 10.4826 62.2568C10.64 62.0835 10.7186 61.9574 10.7186 61.8787C10.7186 61.8157 10.6557 61.7842 10.5298 61.7999L9.7904 61.9259C9.61734 61.9574 9.57014 61.9259 9.64881 61.8314C9.696 61.7684 9.79039 61.6896 9.90052 61.6109C10.0106 61.5321 10.1365 61.4533 10.2466 61.3746C10.341 61.3116 10.4197 61.2801 10.4669 61.2643C10.5141 61.2485 10.5141 61.2643 10.4826 61.3116L10.2938 61.5321L12.0716 60.4609C12.3863 60.1143 12.4807 59.941 12.3705 59.9095C12.2604 59.878 11.9457 60.0198 11.4108 60.3191L11.694 60.004L10.8445 60.5239L10.5613 60.839C10.0421 61.1698 9.55441 61.5164 9.08243 61.8787C8.61046 62.241 8.26434 62.5403 8.02835 62.7924C7.72944 63.1232 7.72944 63.2492 8.01262 63.2019L8.75205 63.1074C8.84645 63.1074 8.87791 63.1232 8.81498 63.1862C8.73632 63.265 8.64192 63.3595 8.51606 63.454C8.3902 63.5485 8.26434 63.643 8.12275 63.7218C7.82383 63.9108 7.79237 63.8636 8.02835 63.5958L8.12275 63.4855L6.39217 64.5252L6.26631 64.667C5.93593 65.0451 5.81007 65.2341 5.9202 65.2656C6.01459 65.2971 6.36071 65.1396 6.95855 64.793L6.62816 65.2026Z" fill="#FFCC59"/>
<path d="M115.702 95.6064C115.717 94.8975 111.721 94.2359 106.781 94.1256C101.841 94.0153 97.8296 94.5037 97.8138 95.2126C97.7981 95.5906 97.7824 96.7249 97.7666 97.0872C97.7509 97.7961 101.747 98.4577 106.687 98.568C111.627 98.6783 115.639 98.1899 115.655 97.481C115.655 97.103 115.686 95.9687 115.702 95.6064Z" fill="url(#paint5_radial_1_721)"/>
<path opacity="0.35" d="M98.8835 95.9057C98.4902 95.7639 98.1441 95.5907 97.798 95.3701C97.7822 95.827 97.7665 96.7722 97.7665 97.1187C97.7508 97.7016 100.473 98.253 104.217 98.4893C104.264 97.8434 104.39 96.7564 104.39 96.7564C103.54 96.8037 99.8904 96.2523 98.8835 95.9057Z" fill="#FFA698"/>
<path opacity="0.35" d="M114.621 95.5681C114.632 95.0375 111.148 94.5328 106.839 94.4407C102.531 94.3487 99.0286 94.7042 99.0173 95.2348C99.006 95.7654 102.49 96.2702 106.799 96.3622C111.107 96.4543 114.609 96.0987 114.621 95.5681Z" fill="#FFA698"/>
<path opacity="0.35" d="M114.301 96.1263L114.254 98.1427C114.427 98.1112 114.585 98.0639 114.726 98.0324L114.773 96.016C114.632 96.0475 114.474 96.0948 114.301 96.1263Z" fill="#FFA698"/>
<path opacity="0.35" d="M113.137 96.3153L113.09 98.3317C113.279 98.3159 113.452 98.2844 113.625 98.2529L113.672 96.2365C113.499 96.268 113.326 96.2838 113.137 96.3153Z" fill="#FFA698"/>
<path opacity="0.35" d="M111.847 96.4413L111.8 98.4577C112.004 98.442 112.193 98.4262 112.398 98.4105L112.445 96.394C112.24 96.4098 112.052 96.4255 111.847 96.4413Z" fill="#FFA698"/>
<path opacity="0.35" d="M110.416 96.5358L110.368 98.5523C110.589 98.5365 110.809 98.5365 111.029 98.5207L111.076 96.5043C110.856 96.5043 110.636 96.5201 110.416 96.5358Z" fill="#FFA698"/>
<path opacity="0.35" d="M108.811 96.5673L108.764 98.5837C109.015 98.5837 109.251 98.568 109.487 98.568L109.534 96.5516C109.314 96.5673 109.062 96.5673 108.811 96.5673Z" fill="#FFA698"/>
<path opacity="0.35" d="M107.002 98.5838C107.269 98.5838 107.536 98.5838 107.804 98.5838L107.851 96.5674C107.584 96.5674 107.316 96.5674 107.049 96.5674L107.002 98.5838Z" fill="#FFA698"/>
<path opacity="0.35" d="M105.051 98.5207C105.35 98.5365 105.649 98.5523 105.947 98.5523L105.995 96.5358C105.696 96.5201 105.397 96.5201 105.098 96.5043L105.051 98.5207Z" fill="#FFA698"/>
<path d="M104.248 95.89L105.082 96.0003L105.507 95.9215C106.042 95.9845 106.577 96.016 107.08 96.016C107.584 96.0318 107.993 96.0003 108.307 95.953C108.512 95.9215 108.622 95.8742 108.653 95.827C108.685 95.7797 108.669 95.7325 108.575 95.6852L108.024 95.3859C107.898 95.3071 107.883 95.2756 107.977 95.2599C108.04 95.2441 108.134 95.2441 108.26 95.2441C108.386 95.2441 108.496 95.2599 108.606 95.2756C108.701 95.2914 108.779 95.3071 108.811 95.3229C108.842 95.3386 108.842 95.3544 108.795 95.3701L108.559 95.4174L110.274 95.6379C110.651 95.5749 110.809 95.5119 110.762 95.4331C110.699 95.3544 110.431 95.2756 109.912 95.2126L110.258 95.1496L109.424 95.0393L109.078 95.1023C108.575 95.0551 108.071 95.0236 107.568 95.0236C107.08 95.0236 106.687 95.0393 106.404 95.0866C106.042 95.1496 105.963 95.2283 106.183 95.3544L106.718 95.6694C106.781 95.7167 106.781 95.7482 106.718 95.764C106.624 95.7797 106.514 95.7797 106.388 95.7955C106.262 95.7955 106.12 95.7955 105.995 95.7797C105.696 95.7482 105.696 95.7009 105.995 95.6537L106.12 95.6379L104.453 95.4174L104.296 95.4489C103.886 95.5119 103.698 95.5907 103.761 95.6537C103.808 95.7167 104.122 95.7955 104.673 95.8742L104.248 95.89Z" fill="#FFCC59"/>
<path d="M112.319 93.2592C112.335 92.5503 108.339 91.8886 103.399 91.7784C98.4588 91.6681 94.447 92.1564 94.4312 92.8653C94.4155 93.2434 94.3998 94.3776 94.384 94.74C94.3683 95.4489 98.3644 96.1105 103.304 96.2208C108.244 96.331 112.256 95.8427 112.272 95.1338C112.288 94.7715 112.319 93.6215 112.319 93.2592Z" fill="url(#paint6_radial_1_721)"/>
<path opacity="0.35" d="M95.5168 93.5585C95.1235 93.4167 94.7774 93.2434 94.4312 93.0229C94.4155 93.4797 94.3998 94.4249 94.3998 94.7715C94.3841 95.3544 97.1058 95.9057 100.85 96.142C100.897 95.4961 101.023 94.4092 101.023 94.4092C100.174 94.4564 96.5079 93.9051 95.5168 93.5585Z" fill="#FFA698"/>
<path opacity="0.35" d="M111.246 93.2362C111.258 92.7055 107.774 92.2008 103.465 92.1087C99.1564 92.0167 95.6542 92.3722 95.6429 92.9028C95.6316 93.4334 99.1154 93.9382 103.424 94.0302C107.733 94.1223 111.235 93.7668 111.246 93.2362Z" fill="#FFA698"/>
<path opacity="0.35" d="M110.919 93.779L110.872 95.7954C111.045 95.7639 111.202 95.7167 111.344 95.6852L111.391 93.6688C111.265 93.716 111.108 93.7475 110.919 93.779Z" fill="#FFA698"/>
<path opacity="0.35" d="M109.77 93.968L109.723 95.9845C109.912 95.9687 110.085 95.9372 110.258 95.9057L110.305 93.8893C110.132 93.9208 109.943 93.9523 109.77 93.968Z" fill="#FFA698"/>
<path opacity="0.35" d="M108.465 94.0941L108.417 96.1105C108.622 96.0947 108.811 96.079 109.015 96.0632L109.062 94.0468C108.874 94.0626 108.669 94.0783 108.465 94.0941Z" fill="#FFA698"/>
<path opacity="0.35" d="M107.033 94.1886L106.986 96.205C107.206 96.1893 107.426 96.1893 107.647 96.1735L107.694 94.1571C107.473 94.1571 107.269 94.1729 107.033 94.1886Z" fill="#FFA698"/>
<path opacity="0.35" d="M105.444 94.2359L105.397 96.2523C105.649 96.2523 105.885 96.2366 106.121 96.2366L106.168 94.2202C105.932 94.2202 105.696 94.2201 105.444 94.2359Z" fill="#FFA698"/>
<path opacity="0.35" d="M103.635 96.2366C103.902 96.2366 104.17 96.2366 104.437 96.2366L104.484 94.2202C104.217 94.2202 103.949 94.2202 103.682 94.2202L103.635 96.2366Z" fill="#FFA698"/>
<path opacity="0.35" d="M101.668 96.1735C101.967 96.1893 102.266 96.205 102.565 96.205L102.612 94.1886C102.313 94.1729 102.014 94.1729 101.715 94.1571L101.668 96.1735Z" fill="#FFA698"/>
<path d="M100.882 93.5427L101.715 93.653L102.14 93.5742C102.675 93.6372 103.21 93.6687 103.713 93.6687C104.217 93.6845 104.626 93.653 104.941 93.6057C105.145 93.5742 105.255 93.527 105.287 93.4797C105.318 93.4324 105.302 93.3852 105.208 93.3379L104.657 93.0386C104.532 92.9598 104.516 92.9283 104.61 92.9126C104.673 92.8968 104.768 92.8968 104.893 92.8968C105.019 92.8968 105.129 92.9126 105.239 92.9283C105.334 92.9441 105.413 92.9598 105.444 92.9756C105.475 92.9913 105.475 93.0071 105.428 93.0228L105.192 93.0701L106.907 93.2906C107.285 93.2276 107.442 93.1646 107.395 93.0859C107.332 93.0071 107.064 92.9283 106.545 92.8653L106.891 92.8023L106.058 92.692L105.711 92.755C105.208 92.7078 104.705 92.6763 104.201 92.6763C103.713 92.6763 103.32 92.692 103.037 92.7393C102.675 92.8023 102.596 92.8811 102.817 93.0071L103.352 93.3222C103.415 93.3694 103.415 93.4009 103.352 93.4167C103.257 93.4324 103.147 93.4324 103.021 93.4482C102.895 93.4482 102.754 93.4482 102.628 93.4324C102.329 93.4009 102.329 93.3537 102.628 93.3064L102.754 93.2906L101.086 93.0701L100.929 93.1016C100.52 93.1646 100.331 93.2434 100.394 93.3064C100.441 93.3694 100.756 93.4482 101.306 93.5269L100.882 93.5427Z" fill="#FFCC59"/>
<path d="M117.306 90.5339C117.322 89.825 113.326 89.1634 108.386 89.0531C103.446 88.9428 99.4343 89.4312 99.4186 90.1401C99.4028 90.5181 99.3871 91.6524 99.3714 92.0147C99.3556 92.7236 103.352 93.3852 108.292 93.4955C113.232 93.6058 117.244 93.1174 117.259 92.4085C117.275 92.0462 117.291 90.912 117.306 90.5339Z" fill="url(#paint7_radial_1_721)"/>
<path opacity="0.35" d="M100.488 90.8332C100.095 90.6914 99.7488 90.5182 99.4027 90.2976C99.387 90.7545 99.3713 91.6996 99.3713 92.0462C99.3555 92.6291 102.077 93.1804 105.822 93.4167C105.869 92.7709 105.995 91.6839 105.995 91.6839C105.161 91.7311 101.495 91.1798 100.488 90.8332Z" fill="#FFA698"/>
<path opacity="0.35" d="M116.218 90.5083C116.23 89.9776 112.746 89.4729 108.437 89.3808C104.128 89.2888 100.626 89.6443 100.615 90.1749C100.604 90.7055 104.087 91.2103 108.396 91.3023C112.705 91.3944 116.207 91.0389 116.218 90.5083Z" fill="#FFA698"/>
<path opacity="0.35" d="M115.906 91.0695L115.859 93.0859C116.032 93.0544 116.189 93.0071 116.331 92.9756L116.378 90.9592C116.236 90.9907 116.079 91.0222 115.906 91.0695Z" fill="#FFA698"/>
<path opacity="0.35" d="M114.742 91.2428L114.695 93.2592C114.883 93.2434 115.057 93.2119 115.23 93.1804L115.277 91.164C115.104 91.1955 114.931 91.227 114.742 91.2428Z" fill="#FFA698"/>
<path opacity="0.35" d="M113.452 91.3845L113.405 93.401C113.609 93.3852 113.798 93.3695 114.003 93.3537L114.05 91.3373C113.845 91.353 113.656 91.3688 113.452 91.3845Z" fill="#FFA698"/>
<path opacity="0.35" d="M112.02 91.4633L111.973 93.4797C112.193 93.464 112.414 93.464 112.634 93.4482L112.681 91.4318C112.461 91.4476 112.24 91.4633 112.02 91.4633Z" fill="#FFA698"/>
<path opacity="0.35" d="M110.431 91.5106L110.384 93.527C110.636 93.527 110.872 93.5112 111.108 93.5112L111.155 91.4948C110.919 91.4948 110.667 91.5106 110.431 91.5106Z" fill="#FFA698"/>
<path opacity="0.35" d="M108.622 93.5112C108.889 93.5112 109.157 93.5112 109.424 93.5112L109.472 91.4948C109.204 91.4948 108.937 91.4948 108.669 91.4948L108.622 93.5112Z" fill="#FFA698"/>
<path opacity="0.35" d="M106.655 93.4482C106.954 93.464 107.253 93.4797 107.552 93.4797L107.599 91.4633C107.3 91.4476 107.001 91.4476 106.703 91.4318L106.655 93.4482Z" fill="#FFA698"/>
<path d="M105.853 90.8332L106.687 90.9435L107.112 90.8647C107.647 90.9277 108.181 90.9592 108.685 90.9592C109.188 90.975 109.597 90.9435 109.912 90.8962C110.117 90.8647 110.227 90.8175 110.258 90.7702C110.29 90.7229 110.274 90.6757 110.18 90.6284L109.629 90.3291C109.503 90.2504 109.487 90.2188 109.582 90.2031C109.645 90.1873 109.739 90.1873 109.865 90.1873C109.991 90.1873 110.101 90.2031 110.211 90.2188C110.305 90.2346 110.384 90.2503 110.416 90.2661C110.447 90.2819 110.447 90.2976 110.4 90.3134L110.164 90.3606L111.879 90.5812C112.256 90.5182 112.414 90.4551 112.366 90.3764C112.303 90.2976 112.036 90.2188 111.517 90.1558L111.863 90.0928L111.029 89.9825L110.683 90.0456C110.18 89.9983 109.676 89.9668 109.173 89.9668C108.685 89.9668 108.292 89.9825 108.008 90.0298C107.647 90.0928 107.568 90.1716 107.788 90.2976L108.323 90.6127C108.386 90.6599 108.386 90.6914 108.323 90.7072C108.229 90.7229 108.119 90.7229 107.993 90.7387C107.867 90.7387 107.725 90.7387 107.599 90.723C107.3 90.6914 107.3 90.6442 107.599 90.5969L107.725 90.5812L106.058 90.3606L105.9 90.3921C105.491 90.4551 105.302 90.5339 105.365 90.5969C105.413 90.6599 105.727 90.7387 106.278 90.8175L105.853 90.8332Z" fill="#FFCC59"/>
<path d="M114.254 87.1312C114.27 86.4223 110.274 85.7606 105.334 85.6504C100.394 85.5401 96.3821 86.0285 96.3664 86.7373C96.3506 87.1154 96.3349 88.2497 96.3192 88.612C96.3034 89.3209 100.299 89.9825 105.239 90.0928C110.179 90.2031 114.191 89.7147 114.207 89.0058C114.223 88.6435 114.254 87.5093 114.254 87.1312Z" fill="url(#paint8_radial_1_721)"/>
<path opacity="0.35" d="M97.4519 87.4305C97.0586 87.2887 96.7125 87.1154 96.3663 86.8949C96.3506 87.3517 96.3349 88.2969 96.3349 88.6435C96.3191 89.2264 99.0409 89.7777 102.785 90.014C102.832 89.3682 102.958 88.2812 102.958 88.2812C102.109 88.3284 98.443 87.7771 97.4519 87.4305Z" fill="#FFA698"/>
<path opacity="0.35" d="M113.173 87.1025C113.185 86.5719 109.701 86.0671 105.392 85.9751C101.083 85.883 97.581 86.2385 97.5697 86.7692C97.5584 87.2998 101.042 87.8045 105.351 87.8966C109.66 87.9886 113.162 87.6331 113.173 87.1025Z" fill="#FFA698"/>
<path opacity="0.35" d="M112.87 87.6668L112.823 89.6832C112.996 89.6517 113.153 89.6044 113.294 89.5729L113.342 87.5565C113.2 87.588 113.043 87.6353 112.87 87.6668Z" fill="#FFA698"/>
<path opacity="0.35" d="M111.706 87.8558L111.658 89.8722C111.847 89.8565 112.02 89.825 112.193 89.7935L112.24 87.777C112.067 87.8085 111.879 87.8243 111.706 87.8558Z" fill="#FFA698"/>
<path opacity="0.35" d="M110.415 87.9818L110.368 89.9982C110.573 89.9825 110.762 89.9667 110.966 89.951L111.013 87.9346C110.809 87.9503 110.604 87.9661 110.415 87.9818Z" fill="#FFA698"/>
<path opacity="0.35" d="M108.968 88.0606L108.921 90.077C109.141 90.0613 109.361 90.0613 109.582 90.0455L109.629 88.0291C109.424 88.0449 109.204 88.0606 108.968 88.0606Z" fill="#FFA698"/>
<path opacity="0.35" d="M107.379 88.1079L107.332 90.1243C107.584 90.1243 107.82 90.1086 108.056 90.1086L108.103 88.0922C107.867 88.1079 107.631 88.1079 107.379 88.1079Z" fill="#FFA698"/>
<path opacity="0.35" d="M105.57 90.1243C105.837 90.1243 106.105 90.1243 106.372 90.1243L106.419 88.1079C106.152 88.1079 105.884 88.1079 105.617 88.1079L105.57 90.1243Z" fill="#FFA698"/>
<path opacity="0.35" d="M103.619 90.0613C103.918 90.077 104.217 90.0928 104.516 90.0928L104.563 88.0764C104.264 88.0606 103.965 88.0606 103.666 88.0449L103.619 90.0613Z" fill="#FFA698"/>
<path d="M102.817 87.4305L103.651 87.5408L104.075 87.462C104.61 87.525 105.145 87.5565 105.649 87.5565C106.152 87.5723 106.561 87.5408 106.876 87.4935C107.08 87.462 107.19 87.4148 107.222 87.3675C107.253 87.3202 107.238 87.273 107.143 87.2257L106.593 86.9264C106.467 86.8476 106.451 86.8161 106.545 86.8004C106.608 86.7846 106.703 86.7846 106.828 86.7846C106.954 86.7846 107.064 86.8004 107.175 86.8161C107.269 86.8319 107.348 86.8476 107.379 86.8634C107.411 86.8792 107.411 86.8949 107.363 86.9107L107.127 86.9579L108.842 87.1785C109.22 87.1155 109.377 87.0524 109.33 86.9737C109.267 86.8949 109 86.8161 108.48 86.7531L108.827 86.6901L107.993 86.5798L107.647 86.6429C107.143 86.5956 106.64 86.5641 106.136 86.5641C105.649 86.5641 105.255 86.5798 104.972 86.6271C104.61 86.6901 104.532 86.7689 104.752 86.8949L105.287 87.21C105.35 87.2572 105.35 87.2887 105.287 87.3045C105.192 87.3202 105.082 87.3202 104.956 87.336C104.83 87.336 104.689 87.336 104.563 87.3202C104.264 87.2887 104.264 87.2415 104.563 87.1942L104.689 87.1785L103.021 86.9579L102.864 86.9894C102.455 87.0524 102.266 87.1312 102.329 87.1942C102.376 87.2572 102.691 87.336 103.241 87.4148L102.817 87.4305Z" fill="#FFCC59"/>
<path opacity="0.35" d="M37.0391 96.5043C37.0548 95.7955 33.0587 95.1338 28.1187 95.0235C23.1787 94.9133 19.1669 95.4016 19.1512 96.1105C19.1355 96.4886 19.1197 97.6228 19.104 97.9851C19.0883 98.694 23.0843 99.3557 28.0243 99.466C32.9644 99.5762 36.9761 99.0879 36.9919 98.379C37.0076 98.0009 37.0391 96.8667 37.0391 96.5043Z" fill="url(#paint9_radial_1_721)"/>
<path opacity="0.35" d="M20.2368 96.8037C19.8435 96.6619 19.4973 96.4886 19.1512 96.2681C19.1355 96.7249 19.1198 97.6701 19.1198 98.0167C19.104 98.5995 21.8257 99.1509 25.5701 99.3872C25.6173 98.7413 25.7431 97.6543 25.7431 97.6543C24.8936 97.7016 21.2279 97.1502 20.2368 96.8037Z" fill="#FFA698"/>
<path opacity="0.35" d="M35.9538 96.4776C35.9651 95.947 32.4813 95.4422 28.1725 95.3502C23.8637 95.2582 20.3616 95.6137 20.3503 96.1443C20.339 96.6749 23.8228 97.1797 28.1316 97.2717C32.4404 97.3637 35.9425 97.0082 35.9538 96.4776Z" fill="#FFA698"/>
<path opacity="0.35" d="M35.6389 97.0242L35.5917 99.0406C35.7647 99.0091 35.9221 98.9619 36.0637 98.9304L36.1109 96.9139C35.985 96.9454 35.8119 96.9927 35.6389 97.0242Z" fill="#FFA698"/>
<path opacity="0.35" d="M34.4747 97.2132L34.4275 99.2296C34.6163 99.2139 34.7893 99.1824 34.9624 99.1509L35.0096 97.1345C34.8522 97.166 34.6635 97.1817 34.4747 97.2132Z" fill="#FFA698"/>
<path opacity="0.35" d="M33.1846 97.3392L33.1374 99.3557C33.3419 99.3399 33.5307 99.3242 33.7352 99.3084L33.7824 97.292C33.5937 97.3077 33.3891 97.3235 33.1846 97.3392Z" fill="#FFA698"/>
<path opacity="0.35" d="M31.753 97.418L31.7058 99.4345C31.926 99.4187 32.1463 99.4187 32.3665 99.4029L32.4137 97.3865C32.1935 97.4023 31.9889 97.418 31.753 97.418Z" fill="#FFA698"/>
<path opacity="0.35" d="M30.164 97.4653L30.1168 99.4817C30.3685 99.4817 30.6045 99.4659 30.8405 99.4659L30.8877 97.4495C30.6517 97.4653 30.4157 97.4653 30.164 97.4653Z" fill="#FFA698"/>
<path opacity="0.35" d="M28.3548 99.4817C28.6222 99.4817 28.8897 99.4817 29.1571 99.4817L29.2043 97.4653C28.9369 97.4653 28.6694 97.4653 28.402 97.4653L28.3548 99.4817Z" fill="#FFA698"/>
<path opacity="0.35" d="M26.3882 99.4187C26.6871 99.4345 26.986 99.4502 27.2849 99.4502L27.3321 97.4338C27.0332 97.418 26.7343 97.418 26.4354 97.4023L26.3882 99.4187Z" fill="#FFA698"/>
<path d="M25.6016 96.7879L26.4354 96.8982L26.8602 96.8194C27.3951 96.8825 27.93 96.914 28.4334 96.914C28.9369 96.9297 29.3459 96.8982 29.6606 96.8509C29.8651 96.8194 29.9752 96.7722 30.0067 96.7249C30.0381 96.6777 30.0224 96.6304 29.928 96.5831L29.3774 96.2838C29.2515 96.2051 29.2358 96.1736 29.3302 96.1578C29.3931 96.1421 29.4875 96.142 29.6134 96.142C29.7392 96.142 29.8493 96.1578 29.9595 96.1736C30.0539 96.1893 30.1325 96.2051 30.164 96.2208C30.1955 96.2366 30.1955 96.2523 30.1483 96.2681L29.9123 96.3153L31.6271 96.5359C32.0047 96.4729 32.162 96.4099 32.1148 96.3311C32.0519 96.2523 31.7844 96.1736 31.2653 96.1105L31.6114 96.0475L30.7776 95.9373L30.4314 96.0003C29.928 95.953 29.4246 95.9215 28.9211 95.9215C28.4334 95.9215 28.0401 95.9373 27.7569 95.9845C27.3951 96.0475 27.3164 96.1263 27.5367 96.2523L28.0716 96.5674C28.1345 96.6146 28.1345 96.6462 28.0716 96.6619C27.9772 96.6777 27.867 96.6777 27.7412 96.6934C27.6153 96.6934 27.4737 96.6934 27.3479 96.6777C27.049 96.6462 27.049 96.5989 27.3479 96.5516L27.4737 96.5359L25.8061 96.3153L25.6488 96.3468C25.2397 96.4099 25.0509 96.4886 25.1139 96.5516C25.1611 96.6147 25.4757 96.6934 26.0263 96.7722L25.6016 96.7879Z" fill="#FFCC59"/>
<path d="M33.6723 94.1571C33.688 93.4482 29.692 92.7866 24.752 92.6763C19.812 92.566 15.8002 93.0544 15.7844 93.7633C15.7687 94.1414 15.753 95.2756 15.7372 95.6379C15.7215 96.3468 19.7176 97.0085 24.6576 97.1187C29.5976 97.229 33.6094 96.7407 33.6251 96.0318C33.6408 95.6694 33.6566 94.5194 33.6723 94.1571Z" fill="url(#paint10_radial_1_721)"/>
<path opacity="0.35" d="M16.87 94.4565C16.4766 94.3147 16.1305 94.1414 15.7844 93.9208C15.7687 94.3777 15.7529 95.3229 15.7529 95.6694C15.7372 96.2523 18.4589 96.8037 22.2033 97.04C22.2505 96.3941 22.3763 95.3071 22.3763 95.3071C21.5268 95.3544 17.8611 94.803 16.87 94.4565Z" fill="#FFA698"/>
<path opacity="0.35" d="M32.5954 94.1302C32.6067 93.5996 29.1229 93.0948 24.8141 93.0028C20.5053 92.9107 17.0032 93.2663 16.9919 93.7969C16.9806 94.3275 20.4644 94.8322 24.7732 94.9243C29.082 95.0163 32.5841 94.6608 32.5954 94.1302Z" fill="#FFA698"/>
<path opacity="0.35" d="M32.2721 94.677L32.2249 96.6934C32.398 96.6619 32.5553 96.6146 32.6969 96.5831L32.7441 94.5667C32.6025 94.614 32.4452 94.6455 32.2721 94.677Z" fill="#FFA698"/>
<path opacity="0.35" d="M31.1079 94.866L31.0607 96.8824C31.2495 96.8667 31.4226 96.8352 31.5956 96.8036L31.6428 94.7872C31.4697 94.8187 31.2967 94.8502 31.1079 94.866Z" fill="#FFA698"/>
<path opacity="0.35" d="M29.8178 94.992L29.7706 97.0084C29.9752 96.9927 30.164 96.9769 30.3685 96.9612L30.4157 94.9448C30.2269 94.9605 30.0224 94.9763 29.8178 94.992Z" fill="#FFA698"/>
<path opacity="0.35" d="M28.3862 95.0866L28.339 97.103C28.5592 97.0872 28.7795 97.0872 28.9998 97.0715L29.047 95.0551C28.8267 95.0551 28.6064 95.0708 28.3862 95.0866Z" fill="#FFA698"/>
<path opacity="0.35" d="M26.7972 95.118L26.75 97.1345C27.0017 97.1345 27.2377 97.1187 27.4737 97.1187L27.5209 95.1023C27.2849 95.118 27.0489 95.118 26.7972 95.118Z" fill="#FFA698"/>
<path opacity="0.35" d="M24.988 97.1345C25.2554 97.1345 25.5229 97.1345 25.7903 97.1345L25.8375 95.1181C25.5701 95.1181 25.3026 95.1181 25.0352 95.1181L24.988 97.1345Z" fill="#FFA698"/>
<path opacity="0.35" d="M23.0214 97.0715C23.3203 97.0872 23.6192 97.103 23.9182 97.103L23.9654 95.0866C23.6664 95.0708 23.3675 95.0708 23.0686 95.0551L23.0214 97.0715Z" fill="#FFA698"/>
<path d="M22.219 94.4407L23.0528 94.551L23.4776 94.4722C24.0125 94.5352 24.5474 94.5667 25.0509 94.5667C25.5543 94.5825 25.9633 94.551 26.278 94.5037C26.4825 94.4722 26.5926 94.425 26.6241 94.3777C26.6556 94.3304 26.6398 94.2832 26.5454 94.2359L25.9948 93.9366C25.8689 93.8578 25.8532 93.8263 25.9476 93.8106C26.0105 93.7948 26.1049 93.7948 26.2308 93.7948C26.3567 93.7948 26.4668 93.8106 26.5769 93.8263C26.6713 93.8421 26.75 93.8578 26.7814 93.8736C26.8129 93.8893 26.8129 93.9051 26.7657 93.9209L26.5297 93.9681L28.2446 94.1887C28.6221 94.1256 28.7795 94.0626 28.7323 93.9839C28.6693 93.9051 28.4019 93.8263 27.8827 93.7633L28.2288 93.7003L27.395 93.59L27.0489 93.653C26.5454 93.6058 26.042 93.5743 25.5386 93.5743C25.0509 93.5743 24.6575 93.59 24.3744 93.6373C24.0125 93.7003 23.9338 93.7791 24.1541 93.9051L24.689 94.2202C24.7519 94.2674 24.7519 94.2989 24.689 94.3147C24.5946 94.3304 24.4845 94.3304 24.3586 94.3462C24.2328 94.3462 24.0912 94.3462 23.9653 94.3304C23.6664 94.2989 23.6664 94.2517 23.9653 94.2044L24.0912 94.1887L22.4235 93.9681L22.2662 93.9996C21.8572 94.0626 21.6684 94.1414 21.7313 94.2044C21.7785 94.2674 22.0931 94.3462 22.6438 94.425L22.219 94.4407Z" fill="#FFCC59"/>
<path d="M37.1334 91.4318C37.1492 90.7229 33.1531 90.0612 28.2131 89.951C23.2731 89.8407 19.2613 90.3291 19.2456 91.0379C19.2298 91.416 19.2141 92.5503 19.1984 92.9126C19.1826 93.6215 23.1787 94.2831 28.1187 94.3934C33.0587 94.5037 37.0705 94.0153 37.0862 93.3064C37.102 92.9441 37.1334 91.8099 37.1334 91.4318Z" fill="url(#paint11_radial_1_721)"/>
<path opacity="0.35" d="M20.3311 91.7311C19.9378 91.5893 19.5917 91.416 19.2456 91.1955C19.2298 91.6523 19.2141 92.5975 19.2141 92.9441C19.1984 93.527 21.9201 94.0783 25.6644 94.3146C25.7116 93.6688 25.8375 92.5818 25.8375 92.5818C24.9879 92.629 21.3222 92.0777 20.3311 91.7311Z" fill="#FFA698"/>
<path opacity="0.35" d="M36.0531 91.4143C36.0644 90.8837 32.5806 90.3789 28.2718 90.2869C23.963 90.1949 20.4609 90.5504 20.4496 91.081C20.4383 91.6116 23.9221 92.1164 28.2309 92.2084C32.5397 92.3005 36.0418 91.9449 36.0531 91.4143Z" fill="#FFA698"/>
<path opacity="0.35" d="M35.7333 91.9674L35.6861 93.9838C35.8591 93.9523 36.0164 93.905 36.158 93.8735L36.2052 91.8571C36.0794 91.8886 35.9063 91.9201 35.7333 91.9674Z" fill="#FFA698"/>
<path opacity="0.35" d="M34.569 92.1407L34.5218 94.1571C34.7106 94.1413 34.8837 94.1098 35.0568 94.0783L35.1039 92.0619C34.9466 92.0934 34.7578 92.1249 34.569 92.1407Z" fill="#FFA698"/>
<path opacity="0.35" d="M33.279 92.2824L33.2318 94.2988C33.4363 94.2831 33.6251 94.2673 33.8296 94.2516L33.8768 92.2352C33.688 92.2509 33.4835 92.2667 33.279 92.2824Z" fill="#FFA698"/>
<path opacity="0.35" d="M31.8473 92.3612L31.8001 94.3776C32.0204 94.3619 32.2406 94.3619 32.4609 94.3461L32.5081 92.3297C32.2878 92.3455 32.0676 92.3455 31.8473 92.3612Z" fill="#FFA698"/>
<path opacity="0.35" d="M30.2584 92.4085L30.2112 94.4249C30.4629 94.4249 30.6989 94.4091 30.9349 94.4091L30.9821 92.3927C30.7461 92.3927 30.5101 92.4085 30.2584 92.4085Z" fill="#FFA698"/>
<path opacity="0.35" d="M28.4491 94.4091C28.7166 94.4091 28.984 94.4091 29.2515 94.4091L29.2987 92.3927C29.0312 92.3927 28.7638 92.3927 28.4963 92.3927L28.4491 94.4091Z" fill="#FFA698"/>
<path opacity="0.35" d="M26.4825 94.3461C26.7815 94.3619 27.0804 94.3776 27.3793 94.3776L27.4265 92.3612C27.1276 92.3455 26.8287 92.3455 26.5297 92.3297L26.4825 94.3461Z" fill="#FFA698"/>
<path d="M25.6959 91.7311L26.5297 91.8414L26.9545 91.7626C27.4894 91.8256 28.0243 91.8571 28.5278 91.8571C29.0312 91.8729 29.4402 91.8414 29.7549 91.7941C29.9594 91.7626 30.0695 91.7154 30.101 91.6681C30.1325 91.6208 30.1167 91.5736 30.0223 91.5263L29.4717 91.227C29.3458 91.1483 29.3301 91.1167 29.4245 91.101C29.4874 91.0852 29.5818 91.0852 29.7077 91.0852C29.8336 91.0852 29.9437 91.101 30.0538 91.1167C30.1482 91.1325 30.2269 91.1482 30.2583 91.164C30.2898 91.1798 30.2898 91.1955 30.2426 91.2113L30.0066 91.2585L31.7214 91.4791C32.099 91.4161 32.2564 91.353 32.2092 91.2743C32.1462 91.1955 31.8788 91.1167 31.3596 91.0537L31.7057 90.9907L30.8719 90.8804L30.5258 90.9435C30.0223 90.8962 29.5189 90.8647 29.0155 90.8647C28.5277 90.8647 28.1344 90.8804 27.8513 90.9277C27.4894 90.9907 27.4107 91.0695 27.631 91.1955L28.1659 91.5106C28.2288 91.5578 28.2288 91.5893 28.1659 91.6051C28.0715 91.6208 27.9614 91.6208 27.8355 91.6366C27.7097 91.6366 27.5681 91.6366 27.4422 91.6208C27.1433 91.5893 27.1433 91.5421 27.4422 91.4948L27.5681 91.4791L25.9004 91.2585L25.7431 91.29C25.3341 91.353 25.1453 91.4318 25.2082 91.4948C25.2554 91.5578 25.57 91.6366 26.1207 91.7154L25.6959 91.7311Z" fill="#FFCC59"/>
<path d="M34.4276 88.801C34.4433 88.0921 30.4472 87.4304 25.5072 87.3202C20.5672 87.2099 16.5554 87.6983 16.5397 88.4071C16.524 88.7852 16.5082 89.9195 16.4925 90.2818C16.4768 90.9907 20.4728 91.6523 25.4128 91.7626C30.3528 91.8729 34.3646 91.3845 34.3804 90.6756C34.3961 90.3133 34.4118 89.1791 34.4276 88.801Z" fill="url(#paint12_radial_1_721)"/>
<path opacity="0.35" d="M17.6094 89.1161C17.2161 88.9743 16.87 88.801 16.5239 88.5804C16.5082 89.0373 16.4924 89.9825 16.4924 90.3291C16.4767 90.9119 19.1984 91.4633 22.9428 91.6996C22.99 91.0537 23.1158 89.9667 23.1158 89.9667C22.282 90.014 18.6163 89.4626 17.6094 89.1161Z" fill="#FFA698"/>
<path opacity="0.35" d="M33.3323 88.7799C33.3436 88.2492 29.8598 87.7445 25.551 87.6524C21.2422 87.5604 17.7401 87.9159 17.7288 88.4465C17.7175 88.9771 21.2013 89.4819 25.5101 89.5739C29.8189 89.666 33.321 89.3105 33.3323 88.7799Z" fill="#FFA698"/>
<path opacity="0.35" d="M33.0273 89.3366L32.9801 91.353C33.1531 91.3215 33.3105 91.2742 33.4521 91.2427L33.4993 89.2263C33.3577 89.2578 33.2003 89.3051 33.0273 89.3366Z" fill="#FFA698"/>
<path opacity="0.35" d="M31.8631 89.5256L31.8159 91.542C32.0047 91.5263 32.1777 91.4948 32.3508 91.4633L32.398 89.4468C32.2249 89.4783 32.0519 89.4941 31.8631 89.5256Z" fill="#FFA698"/>
<path opacity="0.35" d="M30.573 89.6516L30.5258 91.668C30.7303 91.6523 30.9191 91.6365 31.1237 91.6208L31.1708 89.6044C30.9663 89.6201 30.7775 89.6359 30.573 89.6516Z" fill="#FFA698"/>
<path opacity="0.35" d="M29.1414 89.7304L29.0942 91.7468C29.3144 91.7311 29.5347 91.7311 29.7549 91.7153L29.8021 89.6989C29.5819 89.7147 29.3616 89.7304 29.1414 89.7304Z" fill="#FFA698"/>
<path opacity="0.35" d="M27.5524 89.7777L27.5052 91.7941C27.7569 91.7941 27.9929 91.7783 28.2289 91.7783L28.2761 89.7619C28.0401 89.7777 27.7884 89.7777 27.5524 89.7777Z" fill="#FFA698"/>
<path opacity="0.35" d="M25.7274 91.7941C25.9949 91.7941 26.2623 91.7941 26.5298 91.7941L26.577 89.7777C26.3095 89.7777 26.0421 89.7777 25.7746 89.7777L25.7274 91.7941Z" fill="#FFA698"/>
<path opacity="0.35" d="M23.7766 91.7311C24.0755 91.7468 24.3744 91.7626 24.6733 91.7626L24.7205 89.7462C24.4216 89.7304 24.1227 89.7304 23.8238 89.7147L23.7766 91.7311Z" fill="#FFA698"/>
<path d="M22.9742 89.1003L23.808 89.2106L24.2328 89.1318C24.7677 89.1948 25.3026 89.2263 25.806 89.2263C26.3095 89.2421 26.7185 89.2106 27.0332 89.1633C27.2377 89.1318 27.3478 89.0846 27.3793 89.0373C27.4108 88.99 27.395 88.9428 27.3006 88.8955L26.75 88.5962C26.6241 88.5174 26.6084 88.4859 26.7028 88.4702C26.7657 88.4544 26.8601 88.4544 26.986 88.4544C27.1118 88.4544 27.222 88.4702 27.3321 88.4859C27.4265 88.5017 27.5052 88.5174 27.5366 88.5332C27.5681 88.5489 27.5681 88.5647 27.5209 88.5805L27.2849 88.6277L28.9997 88.8483C29.3773 88.7852 29.5346 88.7222 29.4874 88.6435C29.4245 88.5647 29.1571 88.4859 28.6379 88.4229L28.984 88.3599L28.1502 88.2496L27.8041 88.3127C27.3006 88.2654 26.7972 88.2339 26.2938 88.2339C25.806 88.2339 25.4127 88.2496 25.1295 88.2969C24.7677 88.3599 24.689 88.4387 24.9093 88.5647L25.4442 88.8798C25.5071 88.927 25.5071 88.9585 25.4442 88.9743C25.3498 88.99 25.2397 88.99 25.1138 89.0058C24.988 89.0058 24.8464 89.0058 24.7205 88.99C24.4216 88.9585 24.4216 88.9113 24.7205 88.864L24.8464 88.8483L23.1787 88.6277L23.0214 88.6592C22.6123 88.7222 22.4236 88.801 22.4865 88.864C22.5337 88.927 22.8483 89.0058 23.399 89.0846L22.9742 89.1003Z" fill="#FFCC59"/>
<path d="M34.8051 85.9339C34.8208 85.225 30.8247 84.5634 25.8847 84.4531C20.9447 84.3428 16.9329 84.8312 16.9172 85.5401C16.9015 85.9182 16.8857 87.0524 16.87 87.4147C16.8543 88.1236 20.8503 88.7852 25.7903 88.8955C30.7303 89.0058 34.7421 88.5174 34.7579 87.8085C34.7736 87.4462 34.8051 86.312 34.8051 85.9339Z" fill="url(#paint13_radial_1_721)"/>
<path opacity="0.35" d="M18.0028 86.2332C17.6094 86.0915 17.2633 85.9182 16.9172 85.6976C16.9015 86.1545 16.8858 87.0997 16.8858 87.4462C16.87 88.0291 19.5917 88.5805 23.3361 88.8168C23.3833 88.1709 23.5091 87.0839 23.5091 87.0839C22.6596 87.1469 19.0096 86.5798 18.0028 86.2332Z" fill="#FFA698"/>
<path opacity="0.35" d="M33.726 85.9109C33.7373 85.3803 30.2535 84.8755 25.9447 84.7835C21.6359 84.6914 18.1337 85.047 18.1224 85.5776C18.1111 86.1082 21.5949 86.6129 25.9037 86.705C30.2125 86.797 33.7147 86.4415 33.726 85.9109Z" fill="#FFA698"/>
<path opacity="0.35" d="M33.4206 86.4695L33.3734 88.4859C33.5465 88.4544 33.7038 88.4072 33.8454 88.3757L33.8926 86.3593C33.751 86.3908 33.5937 86.438 33.4206 86.4695Z" fill="#FFA698"/>
<path opacity="0.35" d="M32.2564 86.6585L32.2092 88.675C32.398 88.6592 32.571 88.6277 32.7441 88.5962L32.7913 86.5798C32.6182 86.6113 32.4452 86.627 32.2564 86.6585Z" fill="#FFA698"/>
<path opacity="0.35" d="M30.9663 86.7846L30.9191 88.801C31.1237 88.7852 31.3125 88.7695 31.517 88.7537L31.5642 86.7373C31.3597 86.7531 31.1709 86.7688 30.9663 86.7846Z" fill="#FFA698"/>
<path opacity="0.35" d="M29.5347 86.8634L29.4875 88.8798C29.7077 88.864 29.928 88.864 30.1483 88.8483L30.1955 86.8318C29.9752 86.8476 29.7549 86.8634 29.5347 86.8634Z" fill="#FFA698"/>
<path opacity="0.35" d="M27.93 86.9106L27.8828 88.927C28.1345 88.927 28.3705 88.9112 28.6065 88.9112L28.6537 86.8948C28.4334 86.9106 28.1817 86.9106 27.93 86.9106Z" fill="#FFA698"/>
<path opacity="0.35" d="M26.1207 88.9271C26.3882 88.9271 26.6556 88.9271 26.9231 88.9271L26.9703 86.9106C26.7028 86.9106 26.4354 86.9106 26.1679 86.9106L26.1207 88.9271Z" fill="#FFA698"/>
<path opacity="0.35" d="M24.1699 88.864C24.4688 88.8798 24.7677 88.8955 25.0667 88.8955L25.1139 86.8791C24.8149 86.8634 24.516 86.8633 24.2171 86.8476L24.1699 88.864Z" fill="#FFA698"/>
<path d="M23.3676 86.2332L24.2014 86.3435L24.6262 86.2648C25.1611 86.3278 25.696 86.3593 26.1994 86.3593C26.7029 86.375 27.1119 86.3435 27.4266 86.2963C27.6311 86.2648 27.7412 86.2175 27.7727 86.1702C27.8041 86.123 27.7884 86.0757 27.694 86.0285L27.1434 85.7291C27.0175 85.6504 27.0018 85.6189 27.0962 85.6031C27.1591 85.5874 27.2535 85.5874 27.3794 85.5874C27.5052 85.5874 27.6153 85.6031 27.7255 85.6189C27.8199 85.6346 27.8985 85.6504 27.93 85.6661C27.9615 85.6819 27.9615 85.6976 27.9143 85.7134L27.6783 85.7607L29.3931 85.9812C29.7707 85.9182 29.928 85.8552 29.8808 85.7764C29.8179 85.6976 29.5504 85.6189 29.0313 85.5559L29.3774 85.4928L28.5436 85.3826L28.1974 85.4456C27.694 85.3983 27.1906 85.3668 26.6871 85.3668C26.1994 85.3668 25.8061 85.3826 25.5229 85.4298C25.1611 85.4928 25.0824 85.5716 25.3027 85.6976L25.8376 86.0127C25.9005 86.06 25.9005 86.0915 25.8376 86.1072C25.7432 86.123 25.633 86.123 25.5072 86.1387C25.3813 86.1387 25.2397 86.1387 25.1139 86.123C24.815 86.0915 24.815 86.0442 25.1139 85.997L25.2397 85.9812L23.5721 85.7607L23.4148 85.7922C23.0057 85.8552 22.8169 85.9339 22.8799 85.997C22.9271 86.06 23.2417 86.1387 23.7923 86.2175L23.3676 86.2332Z" fill="#FFCC59"/>
<path d="M100.677 13.3272C103.32 12.8704 112.697 11.4999 114.459 11.2321C114.648 11.2005 114.836 11.2793 114.962 11.4211C115.403 11.9567 116.237 13.343 114.553 14.745C114.443 14.8238 114.317 14.8711 114.176 14.8711L100.724 14.43C100.504 14.43 100.315 14.2882 100.237 14.0991C100.111 13.7683 100.315 13.3902 100.677 13.3272Z" fill="white"/>
<path d="M101.338 16.5724C102.534 16.7299 107.159 17.4388 108.134 17.5806C108.26 17.5963 108.355 17.6751 108.402 17.7854C108.528 18.1162 108.669 18.8409 107.741 19.2347C107.662 19.2662 107.584 19.2662 107.505 19.2504L101.196 17.234C101.007 17.171 100.913 16.982 100.976 16.7929C101.023 16.6512 101.181 16.5566 101.338 16.5724Z" fill="white"/>
<path d="M100.158 11.7047C102.675 10.4444 113.704 4.45817 115.529 3.48146C115.702 3.38695 115.812 3.21366 115.828 3.02462C115.875 2.20545 115.733 0.126026 112.964 0C112.823 0 112.697 0.047259 112.587 0.126025L99.5444 10.7752C99.3399 10.9485 99.2769 11.2478 99.4028 11.4841C99.5601 11.7362 99.8905 11.8464 100.158 11.7047Z" fill="white"/>
<path d="M98.5375 8.7588C99.6073 7.71908 103.666 3.59174 104.469 2.77257C104.563 2.67805 104.595 2.53627 104.563 2.41024C104.453 2.00066 104.06 1.14998 102.832 1.4493C102.754 1.46505 102.675 1.52806 102.612 1.59108L97.9711 8.27045C97.861 8.42798 97.8925 8.63277 98.0183 8.7588C98.1756 8.90058 98.3959 8.90058 98.5375 8.7588Z" fill="white"/>
<path d="M64.6339 76.4032C64.9485 76.2299 65.1059 75.9621 65.1059 75.9621C65.1059 75.9621 65.0429 75.8991 64.9328 75.8046C64.8384 76.0094 64.744 76.2141 64.6339 76.4032Z" fill="white"/>
<path d="M69.9515 36.2955L61.6604 33.2393C61.6604 33.2393 59.0017 28.0565 61.0154 22.5114C63.0449 16.982 49.3891 21.3772 49.3891 21.3772C50.8837 24.8744 51.3085 30.7661 50.2386 33.7907L41.5858 37.0044C41.5858 37.0044 56.453 59.1849 63.3438 56.4596C70.2347 53.7501 69.9515 36.2955 69.9515 36.2955Z" fill="url(#paint14_radial_1_721)"/>
<path d="M62.0224 32.625C61.3616 30.7346 59.5209 26.3394 60.9211 22.5114C62.9506 16.982 49.2948 21.3772 49.2948 21.3772C50.7107 24.7011 51.1669 30.199 50.2859 33.3181C55.6664 38.3434 60.9683 36.1222 60.9683 36.1222C60.9683 36.1222 62.4471 34.4681 62.0224 32.625Z" fill="url(#paint15_radial_1_721)"/>
<path opacity="0.05" d="M59.5524 26.2922C59.5524 26.2922 59.5209 26.3552 60.9211 22.5271C62.9506 16.9977 49.2948 21.3929 49.2948 21.3929C50.7107 24.7168 51.1669 30.2147 50.2859 33.3339C52.2053 35.1297 59.2534 35.2715 59.2534 35.2715C59.2534 35.2715 54.3134 33.5859 54.046 31.727C53.7628 29.8681 53.2594 28.3558 53.2594 28.3558C53.2594 28.3558 56.6733 31.9476 58.5927 31.4435C60.512 30.9394 59.5524 26.2922 59.5524 26.2922Z" fill="#FFCBCC"/>
<path d="M85.9672 59.9253C90.6397 60.902 94.4942 59.2479 92.8108 54.5377C91.1274 49.8275 74.0891 35.4448 74.0891 35.4448C74.0891 35.4448 63.9731 33.9482 63.9417 33.9797C63.9417 33.9797 65.9082 38.4852 59.9613 39.4934C54.0144 40.5016 48.3507 33.9797 48.3507 33.9797L38.0931 37.3667C38.0931 37.3667 25.6487 56.3651 27.7412 59.4842C36.9447 73.2998 43.0017 58.287 43.0017 58.287L45.9437 73.6936L44.3232 80.1367C64.8227 87.3202 71.5719 81.712 71.5719 81.712L74.3094 63.8479C74.3094 63.8479 77.6447 60.6185 77.2986 56.3493C77.2828 56.3336 80.6653 58.8068 85.9672 59.9253Z" fill="url(#paint16_radial_1_721)"/>
<path opacity="0.05" d="M84.1422 52.8679C82.9308 51.9384 81.7194 50.9933 80.508 50.0638C79.3281 48.8666 78.3369 47.5591 77.5503 46.1413C76.9053 45.3378 76.3389 44.4872 75.8512 43.5892C77.1098 51.0405 77.2671 56.2548 77.3458 56.3809C77.802 56.6959 81.0587 58.8856 85.983 59.9253C90.3723 60.839 94.0537 59.437 93.0626 55.3254C89.8689 55.2939 86.8954 54.4747 84.1422 52.8679Z" fill="#FFD1CD"/>
<path opacity="0.05" d="M60.3704 43.8728C64.807 43.0694 66.1285 36.6105 65.7037 35.0982C65.6251 34.7989 65.5779 34.4838 65.5464 34.1845C64.5867 34.0428 63.926 33.964 63.926 33.964C63.926 33.964 65.8925 38.4694 59.9456 39.4776C53.9987 40.4858 48.335 33.964 48.335 33.964L47.8316 35.6653C49.4049 38.9893 55.9338 44.6762 60.3704 43.8728Z" fill="#FFD1CD"/>
<path opacity="0.05" d="M72.1383 59.9883C59.8827 55.2781 58.9387 61.2644 52.8817 61.0438C46.8247 60.8233 47.1551 54.0809 47.1551 54.0809L41.3183 43.3057L41.7116 52.7261L38.5337 57.8301C38.5337 57.8301 30.8562 51.3713 29.1886 61.4376C37.5583 71.693 42.986 58.2555 42.986 58.2555L45.928 73.6622L44.3075 80.1052C64.807 87.2887 71.5562 81.6805 71.5562 81.6805L74.2937 63.8164C74.2937 63.8164 77.4244 60.776 77.2986 56.7117C76.0243 61.1226 72.1383 59.9883 72.1383 59.9883Z" fill="#FFD1CD"/>
<path opacity="0.5" d="M53.6054 22.8737C53.5897 22.8737 53.574 22.858 53.5582 22.858C53.574 22.8737 53.5897 22.8737 53.6054 22.8737Z" fill="url(#paint17_radial_1_721)"/>
<path opacity="0.5" d="M54.6753 22.8264C54.6595 22.8264 54.6438 22.8107 54.6281 22.8107C54.6438 22.8107 54.6595 22.8107 54.6753 22.8264Z" fill="url(#paint18_radial_1_721)"/>
<path opacity="0.05" d="M67.0567 62.6034L60.4018 62.9027C60.3861 62.9027 63.2337 60.5082 67.0567 62.6034Z" fill="#FFD1CD"/>
<path d="M89.3969 110.241C92.1501 111.36 95.6427 109.359 96.0046 108.634C96.3664 107.894 97.1373 104.286 93.0783 101.577C89.0193 98.8673 85.511 99.8125 85.511 99.8125C85.511 99.8125 78.5887 103.782 77.2671 107.185C77.2514 107.185 86.6437 109.123 89.3969 110.241Z" fill="#704445"/>
<path d="M93.0783 101.577C89.0193 98.8673 85.511 99.8125 85.511 99.8125L83.8905 100.852C84.2524 100.789 85.2593 100.616 85.6369 100.647C88.5159 100.994 91.4894 101.451 93.3773 104.68C94.7932 107.091 95.5011 110.068 91.0174 110.572C93.3615 110.651 95.7057 109.217 96.0046 108.634C96.3664 107.894 97.1373 104.286 93.0783 101.577Z" fill="white"/>
<path d="M93.0783 101.577C89.0194 98.8673 85.511 99.8125 85.511 99.8125L85.3065 99.9543C85.3379 99.9543 85.3694 99.9543 85.4009 99.9543C91.8197 99.2454 95.6899 103.861 96.0203 105.972C96.4136 108.571 95.627 109.028 95.4854 109.17C95.7529 108.965 95.9417 108.776 96.0203 108.634C96.3664 107.894 97.1373 104.286 93.0783 101.577Z" fill="#B2B2B2"/>
<path d="M94.447 74.5128L76.685 79.223C76.685 79.223 66.1128 85.5086 49.9712 80.6251C47.3596 78.4826 44.0873 77.4429 39.6192 79.5854C35.1512 81.7278 35.4973 88.864 35.4973 88.864C35.4973 88.864 36.8188 96.2995 38.4078 99.7495C43.1433 106.523 52.7716 102.002 52.7716 102.002C52.7716 102.002 61.4402 106.697 68.9446 104.995L71.9181 108.823C73.4913 110.572 74.86 110.493 75.7883 110.036C77.8649 103.593 86.4864 99.9228 86.4864 99.9228C94.8403 95.4804 101.259 86.3435 102.534 82.4997C103.399 75.8676 94.447 74.5128 94.447 74.5128Z" fill="#3F8FFF"/>
<path d="M102.518 80.1052C102.439 80.2628 102.36 80.4045 102.282 80.5621C101.558 86.2175 93.7391 92.0777 91.5837 94.0941C89.57 96.268 80.1934 98.2057 80.1934 98.2057L84.0164 99.0564C79.7057 101.813 75.2376 106.287 75.2376 106.287C72.3429 102.601 68.5985 102.443 68.394 102.38C67.7332 102.963 67.0567 103.499 66.333 103.971C66.4589 104.271 66.5376 104.586 66.5533 104.932C66.5533 105.074 66.5533 105.2 66.5218 105.342C67.3242 105.295 68.1266 105.184 68.9289 105.011L71.9024 108.839C73.4756 110.588 74.8443 110.509 75.7726 110.052C77.8492 103.609 86.4707 99.9386 86.4707 99.9386C94.8246 95.4961 101.243 86.3593 102.518 82.5155C102.644 81.6018 102.628 80.8141 102.518 80.1052Z" fill="#3A78C7"/>
<path d="M76.2917 87.8086C75.8197 87.8716 80.9013 82.0271 80.4294 82.0744C79.7843 82.3422 69.5897 91.5736 68.9132 91.7941C67.9063 92.1565 63.0135 87.6825 59.5209 85.6819C57.7746 84.6894 65.1216 93.2592 63.6113 92.1722C61.1728 90.4079 50.7736 80.7669 49.924 80.9087C55.8552 89.4942 60.8109 94.3777 64.9486 97.04C68.5356 99.3557 71.7293 99.9858 71.7293 99.9858C71.745 100.002 71.7765 100.049 71.7765 100.049L73.9004 98.0639C74.4982 95.3386 77.2514 94.9763 77.7863 94.4879C78.9505 92.44 78.9505 91.4003 80.7598 89.7147C82.8522 87.462 88.9721 82.7518 88.9721 82.7518C89.3497 81.4285 89.9003 80.2628 90.9387 79.4594C87.7293 79.9635 79.5326 87.4147 76.2917 87.8086Z" fill="#3A78C7"/>
<path d="M38.3921 99.7653C43.1276 106.539 52.7559 102.018 52.7559 102.018C52.7559 102.018 58.451 104.869 62.746 105.184L68.63 105.074C68.63 105.074 47.0764 99.655 41.6645 90.4079C37.8572 86.5798 38.691 80.5306 43.0332 78.5142C41.9791 78.6717 40.8306 79.0183 39.6035 79.6011C35.1355 81.7436 35.4816 88.8798 35.4816 88.8798C35.4816 88.8798 36.8031 96.2996 38.3921 99.7653Z" fill="#3A78C7"/>
<path d="M37.9988 91.164C37.9988 91.164 42.9702 100.017 52.1895 101.845C51.1983 102.239 40.9407 100.521 37.9988 91.164Z" fill="#3869A4"/>
<path d="M67.1197 85.4141C69.1177 90.077 67.6074 95.0235 67.6074 95.0235C68.5828 93.2592 68.8502 91.4791 68.7401 89.888C68.6142 88.0764 67.214 85.4141 67.1197 85.4141Z" fill="#3869A4"/>
<path d="M49.8139 80.8141C49.8139 80.8141 62.1325 98.1742 71.4146 99.718C70.4392 100.128 59.1905 97.1659 49.8139 80.8141Z" fill="#DFE8FE"/>
<path d="M68.1895 102.097C68.5513 102.207 74.0262 98.8516 74.4195 98.2215C74.042 97.8276 74.6241 96.6304 75.4579 96.142C75.2062 95.5119 76.2917 95.6537 78.3527 94.2989C77.7391 91.227 88.3743 83.4764 89.4598 82.421C77.4559 90.5654 77.3143 94.4092 77.3143 94.4092C77.3143 94.4092 75.3478 95.0866 74.5769 96.3468C73.7745 96.5831 73.8689 97.8749 73.8689 97.8749L68.1895 102.097Z" fill="#DFE8FE"/>
<path d="M67.9535 102.774L61.0154 106.177C61.0154 106.177 62.4471 111.564 65.9554 113.549L72.7991 108.398C73.9004 106.019 70.5336 102.569 67.9535 102.774Z" fill="url(#paint19_linear_1_721)"/>
<path d="M68.9761 104.208C68.9761 104.208 73.1452 104.665 72.9564 107.894C72.9564 107.91 72.9564 107.91 72.9721 107.925C73.4756 105.578 70.3763 102.585 67.9692 102.774L61.0311 106.177C61.0311 106.177 61.2514 107.012 61.7391 108.13C62.3369 107.847 68.9761 104.208 68.9761 104.208Z" fill="#FFD1CD"/>
<path d="M64.571 104.286L62.4943 105.263C62.4943 105.263 63.8787 116.149 67.3242 118.26C67.3242 118.26 72.862 115.582 72.154 110.493C71.7293 107.406 69.3379 107.138 69.3379 107.138C64.9957 105.878 64.571 104.286 64.571 104.286Z" fill="#704445"/>
<path d="M59.8984 104.728C59.8984 104.728 57.0666 108.713 57.7431 111.139C58.4196 113.565 59.568 112.462 59.8355 115.455C60.1501 118.212 63.7057 119.315 65.8138 118.779C67.922 118.244 70.6437 116.732 71.1472 113.927C71.6506 111.123 71.1944 109.611 68.0479 107.988C66.7578 107.311 64.2249 106.571 64.2249 106.571C64.2249 106.571 62.9977 105.83 62.9033 105.263C61.8021 105.09 59.8984 104.728 59.8984 104.728Z" fill="white"/>
<path d="M59.8984 104.728C59.8984 104.728 57.0666 108.713 57.7431 111.139C58.4196 113.565 59.568 112.462 59.8355 115.455C60.1501 118.212 64.4294 119.441 67.3556 115.944C67.8591 115.345 68.4254 114.778 68.6457 113.581C69.1491 110.777 68.1423 109.028 66.8365 108.398C65.5307 107.768 64.4608 107.547 63.4697 106.933C62.4786 106.319 61.9909 105.09 61.9909 105.09L59.8984 104.728Z" fill="#B2B2B2"/>
<path d="M66.4274 34.2633C66.7735 30.514 63.3281 29.1435 63.3281 29.1435L60.213 27.8045C60.213 27.8045 59.7725 31.3332 61.2671 32.877L60.1659 34.8934C52.2839 35.114 51.2298 29.8839 51.2298 29.8839C51.2298 29.8839 51.2298 28.7812 50.5061 27.5839C50.5061 27.5839 47.5012 28.9229 48.2249 32.8613C48.2249 32.8613 46.6202 34.4996 47.69 35.8544C54.5808 44.5659 62.1009 42.0296 62.1009 42.0296C64.3035 40.5488 66.2071 36.705 66.4274 34.2633Z" fill="url(#paint20_radial_1_721)"/>
<path opacity="0.05" d="M61.2986 41.7303C58.451 41.7303 54.1718 41.5886 55.5405 35.366C50.7893 34.2633 51.2298 29.8681 51.2298 29.8681C51.2298 29.8681 51.2298 28.7654 50.5061 27.5682C50.5061 27.5682 47.5012 28.9072 48.2249 32.8455C48.2249 32.8455 46.6202 34.4838 47.69 35.8386C54.5808 44.5502 62.1009 42.0139 62.1009 42.0139C62.4943 41.7461 62.8719 41.4153 63.2494 41.0214C62.6988 41.2262 61.8964 41.7303 61.2986 41.7303Z" fill="#FFD1CD"/>
<path d="M60.9053 30.0729C60.6536 29.8839 60.4176 29.6948 60.1659 29.5058C60.2131 30.6243 60.4648 32.0263 61.2671 32.8455L60.1816 34.8461C60.1973 34.8461 63.6899 32.1366 60.9053 30.0729Z" fill="#FFD1CD"/>
<path d="M84.0636 31.8215C84.9604 31.2544 85.3065 30.1202 85.3065 30.1202L85.0705 24.8271L84.7244 24.6538C84.6772 24.0394 84.5828 23.362 84.5828 23.362C84.5828 23.362 84.1423 22.2593 83.0725 22.4168C81.9869 22.5744 79.4383 23.0942 79.4383 23.0942L77.1413 25.5832L76.4333 30.0099L76.4176 34.4996L81.4992 44.7549C81.4992 44.7549 95.1865 54.4747 90.2465 45.385C85.3065 36.2954 81.9083 32.7667 81.9083 32.7667C81.9083 32.7667 83.1669 32.3886 84.0636 31.8215Z" fill="url(#paint21_radial_1_721)"/>
<path d="M85.0547 24.8271L84.7086 24.6538C84.6614 24.0394 84.567 23.362 84.567 23.362C84.567 23.362 84.1265 22.2593 83.0567 22.4168C81.9712 22.5744 79.4225 23.0942 79.4225 23.0942L77.7077 24.9531C78.101 25.4572 79.5326 29.0489 79.5326 29.0489L79.3438 29.5846C79.3438 29.5846 79.2809 30.7345 79.5956 30.9236L79.7214 32.3886C80.6811 32.9242 83.8119 31.8058 84.0007 30.4667C84.0007 30.4667 84.2052 29.9784 85.2278 29.9469C85.1963 29.3955 85.2907 27.3476 85.1963 27.1901C85.3379 26.8435 85.0547 24.8271 85.0547 24.8271Z" fill="#FFD1CD"/>
<path d="M99.3084 22.9367C100.205 21.4244 99.7174 17.3286 98.097 12.5396C98.097 12.5238 98.0813 12.5081 98.0813 12.4923C98.0813 12.4766 98.0655 12.4608 98.0655 12.4451C96.5552 7.62457 94.5414 4.03283 92.921 3.33969C91.7096 2.81983 91.3477 4.00132 91.3635 4.09584C90.451 9.2314 86.9426 11.5156 86.9269 11.5786L74.2308 15.6902C73.2396 15.9895 72.5002 16.8402 72.3586 17.8799C72.2013 19.0299 72.3271 20.0066 72.6103 20.8258C72.862 21.6607 73.3498 22.5271 74.1521 23.362C74.8758 24.1025 75.9771 24.3545 76.9525 24.0079L89.6329 19.8176C89.6644 19.8491 93.8492 19.6285 97.625 23.236C97.6565 23.3148 98.6319 24.0709 99.3084 22.9367Z" fill="white"/>
<path d="M98.6004 22.3224C97.5149 22.6689 95.1393 18.7464 93.5818 14.0046C92.04 9.26292 91.568 4.63147 92.6535 4.26915C93.7391 3.90682 95.9416 7.97116 97.4834 12.7129C99.0409 17.4704 99.6702 21.96 98.6004 22.3224Z" fill="url(#paint22_linear_1_721)"/>
<path d="M97.3576 13.0279C97.1058 12.2087 96.6181 11.6259 96.1933 11.7519C96.1147 11.7676 94.4628 12.067 92.9996 12.3033C93.1412 12.7759 93.2986 13.2642 93.4716 13.7683C93.7391 14.5717 94.0223 15.3279 94.3212 16.0525C95.6899 15.3751 97.216 14.6347 97.2317 14.6347C97.5463 14.3827 97.5778 13.7526 97.3576 13.0279Z" fill="white"/>
<path d="M97.2474 14.6348C97.2474 14.6348 96.2406 13.7526 96.2091 12.0197C96.2091 12.0197 96.036 12.319 96.1462 13.0594L93.9279 13.7053L93.0154 12.319C93.157 12.7916 93.3143 13.28 93.4874 13.7841C93.7548 14.5875 94.038 15.3436 94.3369 16.0683C94.8089 15.832 95.2966 15.5957 95.7371 15.3752C96.5867 14.9498 97.2474 14.6348 97.2474 14.6348Z" fill="#B1DCFF"/>
<path d="M92.7951 13.8786C91.6938 14.2409 90.1678 14.7608 88.4215 15.3437C87.7607 13.6265 87.7922 12.319 87.7922 12.319C87.5562 13.5478 87.6506 14.6505 87.8551 15.5327C81.5936 17.6594 73.1609 20.5422 72.8935 20.5737C72.9092 20.621 72.925 20.6525 72.925 20.6998C73.1924 21.5662 73.6801 22.3696 74.3881 23.0942C74.7027 23.4251 75.1275 23.6456 75.5837 23.7401C75.9928 23.8189 76.4333 23.8031 76.8266 23.6614L89.507 19.471L89.7115 19.408L89.7745 19.471C90.0577 19.4868 90.7342 19.5025 91.6624 19.6915C93.1884 20.0066 95.4224 20.7785 97.5463 22.6847C97.2946 22.4011 94.3054 19.2977 92.7951 13.8786Z" fill="#B1DCFF"/>
<path d="M83.45 17.5176C82.6948 15.1861 82.805 12.9019 82.805 12.9019L75.6152 15.2334C75.6152 15.2334 75.159 17.2813 75.9456 19.7073C76.7322 22.1333 78.3212 23.5511 78.3212 23.5511L85.4952 21.1881C85.511 21.1724 84.2052 19.8491 83.45 17.5176Z" fill="url(#paint23_linear_1_721)"/>
<path opacity="0.05" d="M84.2209 20.3847C83.4972 19.2977 82.978 18.1319 82.6319 16.9189C82.6319 16.9189 76.1029 19.1086 75.8197 19.2347C75.8669 19.3922 75.8984 19.534 75.9613 19.6915C76.748 22.1175 78.3369 23.5353 78.3369 23.5353L85.039 21.3299C84.7558 21.0148 84.4884 20.6997 84.2209 20.3847Z" fill="#FFD1CD"/>
<path d="M86.8325 19.7073C86.8325 19.7073 76.7165 23.11 76.6536 23.3306C76.2602 24.8744 79.155 24.8586 79.155 24.8586C79.155 24.8586 86.3448 21.3772 87.3202 20.6525C87.3045 20.6525 88.1383 19.6286 86.8325 19.7073Z" fill="white"/>
<path d="M87.0999 19.9751C86.4864 20.1012 76.6378 23.8189 76.6378 23.8189C76.9053 24.8744 79.1393 24.8586 79.1393 24.8586C79.1393 24.8586 86.329 21.3772 87.3045 20.6525C87.3045 20.6525 87.7292 19.8491 87.0999 19.9751Z" fill="#B1DCFF"/>
<path d="M79.4068 23.5983L79.9102 32.0578C79.9102 32.0578 81.9712 32.7037 83.8276 30.7188L83.8433 22.149C84.0164 21.3929 79.4068 23.5983 79.4068 23.5983Z" fill="white"/>
<path d="M81.8453 31.0969L81.5307 23.6141C81.5307 23.6141 82.0656 22.8894 82.4904 22.8579C82.4589 22.6847 82.4117 22.4956 82.3645 22.3223C81.0744 22.7949 79.391 23.5983 79.391 23.5983L79.8945 32.0578C79.8945 32.0578 81.9554 32.7037 83.8119 30.7188V30.6873C83.5759 30.2305 81.8453 31.0969 81.8453 31.0969Z" fill="#B1DCFF"/>
<path d="M85.5267 23.8976C85.6054 23.4408 85.6526 22.9052 85.4166 22.6689C84.9918 22.2278 82.1442 22.5114 82.1442 22.5114L79.6428 24.2442C79.6428 24.2442 79.2494 24.8586 79.863 25.4257C79.9889 25.536 80.1305 25.6147 80.2721 25.6305L79.7529 25.8983C79.7529 25.8983 79.5012 26.9695 80.6496 27.1901C80.6654 27.1901 80.6811 27.1901 80.7126 27.2058L79.6742 27.7257C79.6742 27.7257 79.4225 28.7969 80.571 29.0174C80.6811 29.0332 79.5798 29.7421 79.5798 29.7421C79.5798 29.7421 79.2966 30.766 80.4451 30.9708C81.0901 31.0969 83.2455 30.3092 83.2455 30.3092C83.9377 30.9236 85.275 30.1359 85.275 30.1359C85.6211 29.6476 85.4952 28.6394 85.3851 28.0722C85.7942 27.5051 85.6683 26.6387 85.5267 26.1031C85.983 25.1579 85.6368 24.1654 85.5267 23.8976Z" fill="url(#paint24_radial_1_721)"/>
<path d="M85.4166 28.0722C85.8256 27.5051 85.6998 26.6387 85.5582 26.1031C85.983 25.1421 85.6368 24.1654 85.5267 23.8819C85.6054 23.425 85.6526 22.8894 85.4166 22.6531C84.9918 22.212 82.1442 22.4956 82.1442 22.4956L81.1216 23.2045L82.1442 22.5429C82.1442 22.5429 85.0862 22.4168 85.3222 22.7792C85.5582 23.1415 85.3694 23.9134 85.3694 23.9134C85.3694 23.9134 85.8571 25.1894 85.3694 26.0873C85.3694 26.0873 85.7155 27.2688 85.2593 28.025C85.2593 28.025 85.4481 28.7181 85.4009 29.49C85.3851 29.7736 85.275 30.1202 85.275 30.1202C85.6368 29.6318 85.511 28.6394 85.4166 28.0722Z" fill="#FFCBCB"/>
<path opacity="0.05" d="M83.2927 29.7736C83.2927 29.7736 82.4274 30.388 81.5936 30.0887L81.2946 26.0086C81.2946 26.0086 83.3399 26.1346 83.3399 23.8189L82.2229 23.5038L82.1599 22.5114L79.6585 24.2442C79.6585 24.2442 79.2652 24.8586 79.8787 25.4257C80.0046 25.536 80.1462 25.6147 80.2878 25.6305L79.7686 25.8983C79.7686 25.8983 79.5169 26.9695 80.6653 27.1901C80.6811 27.1901 80.6968 27.1901 80.7283 27.2058L79.6899 27.7257C79.6899 27.7257 79.4382 28.7969 80.5867 29.0174C80.6968 29.0332 79.5955 29.7421 79.5955 29.7421C79.5955 29.7421 79.3124 30.766 80.4608 30.9708C81.1059 31.0969 83.2612 30.3092 83.2612 30.3092C83.9534 30.9236 85.2907 30.1359 85.2907 30.1359C85.3379 30.0729 85.3851 29.9784 85.4166 29.8996C84.331 30.4195 83.2927 29.7736 83.2927 29.7736Z" fill="#FFD1CD"/>
<path d="M81.0587 29.049L82.9623 28.1825L85.1334 28.1353L82.978 27.8832C82.9938 27.8675 80.9957 28.7339 81.0587 29.049Z" fill="#FFD1CD"/>
<path d="M80.8542 27.127L82.7578 26.2606L84.9289 26.2134L82.7735 25.9456C82.7735 25.9456 80.7755 26.812 80.8542 27.127Z" fill="#FFD1CD"/>
<path d="M81.2475 24.9689L83.1511 24.1024L85.3222 24.0552L83.1668 23.8031C83.1826 23.7874 81.1845 24.6538 81.2475 24.9689Z" fill="#FFD1CD"/>
<path d="M79.4225 23.0942L77.1255 25.5833L76.4176 29.8996C76.4176 29.8996 79.1078 29.1592 79.7214 28.1353C80.335 27.1113 80.0675 25.5045 80.0675 25.5045L81.2317 25.662C83.2927 25.788 83.0882 23.8661 83.0882 23.8661L79.4225 23.0942Z" fill="url(#paint25_radial_1_721)"/>
<path d="M82.9151 23.9607C82.9151 23.9607 83.041 24.1182 82.9938 24.6223C83.1196 24.2285 83.0881 23.8661 83.0881 23.8661L79.4539 23.0942C80.0832 23.3305 82.9151 23.9607 82.9151 23.9607Z" fill="#FFCBCB"/>
<path d="M85.1177 24.0709L83.3084 24.0867C83.8905 24.3072 85.1177 24.0709 85.1177 24.0709Z" fill="#FFCBCB"/>
<path d="M84.5513 26.2449L82.742 26.2606C82.7892 26.2764 81.9554 26.6072 82.0026 26.6072C82.0341 26.623 82.7578 26.3867 82.7578 26.3867L84.5513 26.2449Z" fill="#FFCBCB"/>
<path d="M84.6771 28.151L82.9151 28.1983C82.9623 28.214 82.1285 28.5448 82.1757 28.5448C82.2071 28.5606 82.9308 28.3243 82.9308 28.3243L84.6771 28.151Z" fill="#FFCBCB"/>
<path opacity="0.05" d="M78.746 34.7674C80.5395 34.3735 80.8227 33.2866 80.8227 33.2866C80.8227 33.2866 80.3507 33.3338 79.7686 33.2708C79.0134 33.192 78.0695 32.9557 77.6447 32.2469C76.9053 30.9866 78.8876 28.9544 78.8876 28.9544C78.8876 28.9544 78.8876 28.9387 78.8876 28.8914C79.2494 28.6709 79.5641 28.4188 79.7371 28.151C80.3507 27.1428 80.0833 25.5202 80.0833 25.5202L81.2475 25.6778C82.2858 25.7408 82.742 25.2839 82.9466 24.8113C82.7735 24.9531 82.5533 25.0319 82.333 25.0634C82.333 25.0634 81.9712 25.0791 81.4834 25.0319C80.8384 24.9689 79.9731 24.7956 79.5641 24.3072C79.391 24.1024 79.2494 23.5511 79.2337 23.299L77.1098 25.599L76.4018 29.9154C76.4018 29.9154 76.4018 29.9154 76.4176 29.9154L76.4018 30.0414L76.3389 34.4996C76.3546 34.4996 76.3704 34.4996 76.3861 34.4838V34.5153L81.4677 44.7707C81.4677 44.7707 83.5444 46.2515 85.7942 47.5117C85.2121 46.6138 82.6948 42.0296 80.8227 38.6112C80.6024 38.2016 82.3645 34.5626 82.3645 34.5626C82.3645 34.5626 80.0518 37.3982 79.627 36.4215L78.746 34.7674Z" fill="#FFD1CD"/>
<path d="M83.623 59.2479C83.623 59.2479 75.3792 54.0808 78.683 42.0611C78.683 42.0611 78.1167 40.9426 77.7863 39.5879C77.4559 38.2331 78.1167 37.8235 78.1167 37.8235L78.6201 38.3434C80.7283 38.1701 82.2071 34.7359 82.6162 33.6174C82.6476 33.5544 82.2228 33.129 82.2228 33.129L82.9465 33.3496L85.2592 36.1064C85.2592 36.1064 85.7941 36.9256 86.2346 37.8235C88.2956 41.9666 93.802 49.7329 94.3841 56.0972C94.9976 62.7451 83.623 59.2479 83.623 59.2479Z" fill="url(#paint26_radial_1_721)"/>
<path opacity="0.05" d="M82.3802 41.7304C84.5513 40.3126 84.0321 38.9578 84.0321 38.9578C84.0321 38.9578 81.861 42.329 80.9642 36.7366C80.3192 37.5872 79.5326 38.2646 78.6201 38.3434L78.1167 37.8235C78.1167 37.8235 77.4559 38.2489 77.7863 39.5879C78.1167 40.9269 78.683 42.0612 78.683 42.0612C75.3792 54.0809 83.623 59.2479 83.623 59.2479C83.623 59.2479 89.3654 61.0123 92.4804 59.6575C83.1353 58.1925 82.3802 41.7304 82.3802 41.7304Z" fill="#FFD1CD"/>
<path d="M62.0223 84.9572L43.1276 77.7422L42.986 77.0491L78.4786 74.7964L96.744 81.9484L62.0223 84.9572Z" fill="white"/>
<path d="M63.0607 83.5709L53.9201 79.7744L82.8679 77.821L93.2199 81.46L63.0607 83.5709Z" fill="#B1DCFF"/>
<path d="M62.6831 78.4039L58.4668 76.9546L69.8886 76.2142L74.2937 77.6792L62.6831 78.4039Z" fill="#B1DCFF"/>
<path d="M62.2111 85.5244L42.9231 77.9313L42.986 77.0491L62.3999 84.4847L96.744 81.9484L96.5395 82.7203L62.2111 85.5244Z" fill="#B1DCFF"/>
<path d="M53.9831 75.2847C53.8415 72.6854 53.3695 71.7245 53.3695 71.7245L49.106 69.4088C49.106 69.4088 44.1345 64.0842 39.2574 59.374C31.7373 52.0802 27.458 57.8774 27.458 57.8774C27.458 57.8774 26.6242 68.8889 34.8523 74.3868C34.8523 74.3868 41.633 78.4354 44.2761 78.5457C46.9192 78.6559 47.5799 77.7107 47.5799 77.7107C47.5799 77.7107 49.5779 78.7347 50.5376 78.6244C50.5376 78.6087 54.1246 77.8683 53.9831 75.2847Z" fill="url(#paint27_radial_1_721)"/>
<path opacity="0.05" d="M49.2004 75.7888C49.1846 75.3635 49.2318 74.9539 49.3577 74.5758C48.1148 74.0402 45.9752 74.497 46.8405 71.5669C46.2112 71.9135 45.519 72.1025 44.811 72.1025C44.4806 72.1025 44.1817 72.071 43.8828 71.9923C43.1433 71.9765 42.3882 71.8032 41.7274 71.4409C39.9182 70.4642 32.0519 66.6204 30.3056 65.0293C29.2201 64.0526 27.5367 59.0904 27.5839 57.7356C27.521 57.8144 27.4895 57.8616 27.4895 57.8616C27.4895 57.8616 26.6557 68.8731 34.8838 74.371C34.8838 74.371 41.6645 78.4196 44.3076 78.5299C46.9506 78.6401 47.6114 77.6949 47.6114 77.6949C47.6114 77.6949 49.2948 78.5614 50.3174 78.6086C49.6409 77.8525 49.2476 76.86 49.2004 75.7888Z" fill="#FFD1CD"/>
<path d="M27.458 58.224C27.4895 58.1925 27.5367 58.1767 27.5681 58.161C27.5524 58.0034 27.5367 57.8774 27.5524 57.7672C27.4895 57.8459 27.458 57.8932 27.458 57.8932C27.458 57.8932 27.4423 58.0192 27.4423 58.2555C27.4423 58.224 27.458 58.224 27.458 58.224Z" fill="#FFD1CD"/>
<path opacity="0.05" d="M49.2003 75.7888C49.1846 75.3635 49.2318 74.9539 49.3577 74.5758C48.1148 74.0402 45.9909 74.4971 46.8247 71.5827C43.6153 75.8518 45.4717 77.8682 45.865 78.4669C47.1866 78.2463 47.5799 77.7107 47.5799 77.7107C47.5799 77.7107 49.2633 78.5771 50.2859 78.6244C49.6408 77.8525 49.2475 76.86 49.2003 75.7888Z" fill="#FFD1CD"/>
<path d="M50.0971 77.8052L54.3607 78.2306C54.3607 78.2306 55.8552 78.6559 57.5544 77.9943C58.514 78.1045 59.5996 78.2621 59.5996 78.2621C59.5996 78.2621 59.7726 79.097 60.6379 78.7662L63.4226 78.136C63.4226 78.136 63.9418 77.8525 64.1777 77.4902C64.4137 77.1278 64.3193 76.7498 64.3193 76.7498C64.3193 76.7498 64.8857 76.7182 65.2004 76.1354C65.515 75.5525 65.3577 74.7333 65.3577 74.7333L64.2564 72.6539L65.5937 73.5046L66.2072 75.2689C66.2072 75.2689 64.7598 77.1436 66.5061 77.6792C67.2456 76.608 67.8277 75.7731 67.8277 75.7731C67.8277 75.7731 68.5828 76.3244 69.2751 76.1511C68.9447 74.7333 68.7402 73.2053 68.7402 73.2053L67.2298 70.7793L61.8808 68.18L55.7137 72.2128C55.7137 72.2128 53.5268 72.6697 52.3941 71.8032C51.6232 71.7402 48.3823 73.5834 50.0971 77.8052Z" fill="url(#paint28_radial_1_721)"/>
<path opacity="0.05" d="M68.7243 73.1895L67.214 70.7635L62.1324 68.2903C62.1324 68.4163 62.1167 68.5423 62.0538 68.6841C61.3301 70.5272 60.748 74.6231 60.748 74.6231C60.748 74.6231 56.8935 76.2614 55.5405 75.9936C54.691 75.8203 54.8955 73.7567 55.3045 73.2053C54.8955 73.4889 53.6841 75.5053 53.6841 75.5053C53.6841 75.5053 48.5238 75.6785 51.8906 71.882C50.7578 72.3231 48.6339 74.1977 50.0971 77.7895L54.3606 78.2148C54.3606 78.2148 55.8552 78.6402 57.5543 77.9785C58.514 78.0888 59.5995 78.2463 59.5995 78.2463C59.5995 78.2463 59.7725 79.0813 60.6378 78.7504L63.4225 78.1203C63.4225 78.1203 63.9417 77.8367 64.1777 77.4744C64.3979 77.1278 64.3192 76.734 64.3192 76.734C64.3192 76.734 64.8856 76.7025 65.2003 76.1196C65.5149 75.5368 65.3576 74.7176 65.3576 74.7176L64.2563 72.6382L65.5936 73.4889L66.2071 75.2532C66.2071 75.2532 64.7598 77.1278 66.5061 77.6635C67.2455 76.5922 67.8276 75.7573 67.8276 75.7573C67.8276 75.7573 68.5828 76.3087 69.275 76.1354C68.9289 74.7176 68.7243 73.1895 68.7243 73.1895Z" fill="#FFD1CD"/>
<path d="M65.9711 77.2066C65.6565 76.7183 65.8925 76.0724 66.3487 75.7888C66.3802 75.7731 66.2701 75.206 66.6319 74.8279C66.0498 74.3238 65.8296 73.1265 65.8296 73.1265C65.452 73.0478 64.8699 72.8587 64.508 72.7327C64.4294 72.7012 64.3507 72.6854 64.2878 72.6539C64.2878 72.6539 64.2878 72.6697 64.272 72.6697L65.5778 73.4889L66.1914 75.2532C66.1914 75.2532 64.744 77.1278 66.4903 77.6635C66.4903 77.6635 66.4903 77.6477 66.506 77.6477C66.2858 77.5532 66.097 77.4114 65.9711 77.2066Z" fill="#CA8667"/>
<path d="M66.3487 71.4724L67.8905 73.1895C67.8905 73.1895 67.8748 75.8045 67.8276 75.773C67.7961 75.6943 67.5759 73.4101 67.5916 73.3785L66.3487 71.4724Z" fill="#CA8667"/>
<path d="M63.1708 73.8827L64.2091 75.6628L64.3192 76.7183L63.1708 73.8827Z" fill="#CA8667"/>
<path d="M59.8669 78.0573L61.8807 75.9621C61.8807 75.9621 61.802 77.2066 62.5572 77.4271C62.5572 77.4271 61.7548 77.5217 61.5818 76.9545L59.8669 78.0573Z" fill="#CA8667"/>
<path opacity="0.05" d="M68.7244 73.1895L67.2141 70.7635L61.865 68.1642L55.6979 72.1971C55.6979 72.1971 53.5111 72.6539 52.3783 71.7875C52.2525 71.7717 52.0794 71.819 51.8592 71.9135C51.8592 71.9135 53.9201 72.9847 55.7923 72.3861L61.8493 68.5108L67.1197 70.9841C67.1197 70.9841 68.2052 72.9217 68.457 73.0477C68.5513 73.1108 68.6457 73.1738 68.7401 73.2368C68.7244 73.2053 68.7244 73.1895 68.7244 73.1895Z" fill="#FFCBCB"/>
<path d="M68.0322 59.2164C68.2839 58.0822 69.2121 57.2473 70.3291 57.1843L104.17 54.2384C104.17 54.2384 105.743 54.4117 104.893 56.2706C104.044 58.1137 96.8699 82.7833 96.8699 82.7833L62.6517 85.5716L68.0322 59.2164Z" fill="white"/>
<path d="M76.276 57.6096L71.2574 58.0507C70.219 58.098 69.3537 58.8856 69.1177 59.9411L64.0991 84.5004L95.9889 81.9011C95.9889 81.9011 96.6968 79.4751 97.6722 76.1512L76.276 57.6096Z" fill="#B1DCFF"/>
<path d="M68.5671 59.4685C69.1177 57.5781 70.3606 57.4521 70.3606 57.4521C70.3606 57.4521 104.343 54.5535 104.705 54.4432C104.437 54.2699 104.154 54.2384 104.154 54.2384L70.3134 57.1843C69.2121 57.2473 68.2682 58.0822 68.0165 59.2164L62.6359 85.5558L63.2023 85.5086C63.3754 85.0832 68.5671 59.4685 68.5671 59.4685Z" fill="#B1DCFF"/>
<path d="M44.1817 17.4073C44.1817 17.4073 44.3075 16.6196 44.7481 16.6196C45.3616 16.6196 45.5976 17.297 45.5976 17.297L46.3213 19.1086C46.3213 19.1086 45.0627 19.1401 45.047 17.2813C45.047 16.8874 44.4491 16.9347 44.1817 17.4073Z" fill="#672B3A"/>
<path opacity="0.5" d="M47.5484 14.5245C47.517 14.5717 47.5484 14.5087 47.5484 14.5245V14.5245Z" fill="url(#paint29_radial_1_721)"/>
<path opacity="0.52" d="M47.1866 18.8566L46.9349 14.1149L62.6831 9.92452L54.2348 2.86707L46.1011 10.8067C46.1011 10.7909 44.7481 16.9032 47.1866 18.8566Z" fill="url(#paint30_radial_1_721)"/>
<path d="M55.5091 3.51294C55.5091 3.51294 46.7146 7.24646 44.3862 13.2012C43.7569 14.808 44.166 18.1162 44.166 18.1162C44.166 18.1162 44.8425 20.4477 46.1011 20.8415L46.4 20.7155C50.0027 28.1668 57.4127 28.088 58.3567 28.277C58.4825 28.3085 60.9997 27.4894 60.9997 27.4894C60.9997 27.4894 63.5484 21.1566 63.4383 19.3764C63.3282 17.5963 61.9122 9.75122 61.9122 9.75122L55.5091 3.51294Z" fill="url(#paint31_radial_1_721)"/>
<path opacity="0.05" d="M56.8621 14.1936L56.3744 11.043C56.3744 11.043 59.458 7.6403 56.6576 4.99375C56.6104 4.94649 54.4708 2.72528 50.7264 4.14308C48.7913 6.08072 45.8651 9.43616 44.3862 13.2169C43.7569 14.8238 44.166 18.132 44.166 18.132C44.166 18.132 44.8425 20.4634 46.1011 20.8573L46.4 20.7312C50.0027 28.1825 57.4127 28.1038 58.3567 28.2928C58.3882 28.2928 59.6468 27.9305 59.6468 27.6469L57.9476 20.8415L58.8129 18.7306L56.8621 14.1936Z" fill="#FFE0E5"/>
<path opacity="0.05" d="M57.5071 4.53693C56.3587 4.93076 51.8906 5.97047 50.632 6.128C49.9713 6.23828 49.3105 6.31704 48.6497 6.38006C47.0765 8.25469 45.3931 10.6177 44.3862 13.2012C43.7569 14.808 44.166 18.1162 44.166 18.1162C44.166 18.1162 44.8425 20.4477 46.1011 20.8415L46.4 20.7155C50.0027 28.1668 57.4127 28.088 58.3567 28.2771C58.3724 28.2771 58.3882 28.2771 58.4039 28.2771C58.3882 28.2613 54.5022 27.5682 51.6546 25.5045C51.6546 25.5045 51.0411 24.3387 50.1758 22.7792C49.4206 21.3929 48.398 20.9045 48.1463 18.7148C47.8946 16.5724 48.6969 15.0443 48.6969 15.0443C48.6969 15.0443 56.0125 12.1457 57.5543 7.79785C57.7589 7.23073 61.9909 10.3341 61.9752 9.7355C61.9752 9.23139 57.7274 5.05678 57.5071 4.53693Z" fill="#FFCBCC"/>
<path d="M57.8532 18.7148C56.988 19.0929 56.6576 19.7388 56.6576 19.7388L56.7834 15.3909L57.8532 18.7148Z" fill="#FFE0E5"/>
<path d="M58.8129 18.7463L58.105 18.8566C57.0509 19.3922 56.7362 20.2902 56.7362 20.2902C57.6802 20.9518 58.0892 20.3532 58.0892 20.3532L58.8129 18.7463Z" fill="#FFD1CD"/>
<path d="M58.8129 18.7621C58.8129 18.7621 58.0263 19.66 58.105 20.3847C58.105 20.3847 58.4511 19.282 59.1118 18.7621L57.4442 15.4539L58.8129 18.7621Z" fill="#FFCBCB"/>
<path d="M61.865 9.79849L63.4855 19.3765C63.4855 19.3765 63.3281 22.086 60.9525 27.4894L60.3704 27.8832C65.2947 30.0256 65.8296 30.9236 66.3488 32.7667C68.0479 32.5304 70.3134 31.7585 72.9564 29.7893C70.7854 28.8757 68.9132 27.3791 68.1738 26.7332C69.6369 27.8359 71.981 27.4106 72.3114 26.4182C66.0341 26.749 64.8385 22.3066 65.0587 19.471C65.2318 17.108 66.2229 14.5087 65.4835 12.0039C63.7687 6.22251 54.0932 -0.645903 49.043 2.18968C33.0116 11.1848 44.9211 14.619 39.8553 22.0072C36.0795 27.5051 37.9516 30.9708 40.1699 32.5462C42.6399 34.3105 44.9998 35.7126 47.69 36.6263L50.2387 33.8064L49.3577 37.5084C49.3577 37.5084 56.4845 32.0106 49.1846 22.4641C45.928 18.2265 48.1148 14.8395 48.1148 14.8395C50.2072 13.9258 51.5445 13.1697 52.1895 12.7443C55.9181 11.1375 58.042 7.82934 57.397 5.89169L61.865 9.79849Z" fill="url(#paint32_radial_1_721)"/>
<path opacity="0.35" d="M61.8808 9.75122L63.4855 19.3764C63.4855 19.3764 63.3282 22.086 60.9526 27.4894L60.3705 27.8832C65.2947 30.0256 65.8296 30.9236 66.3488 32.7667C67.7962 32.5619 70.3763 30.4982 70.3763 30.4982C69.7942 30.4352 63.5327 28.8441 64.3193 20.1641C64.87 14.1621 61.8808 9.75122 61.8808 9.75122Z" fill="#CA9E67"/>
<path opacity="0.05" d="M61.865 9.83003C61.7392 9.75126 62.1482 12.6026 62.5573 14.8238C62.9034 16.7299 63.218 18.6046 63.2652 19.3765C63.3596 21.1566 60.8267 27.4894 60.8267 27.4894C60.8267 27.4894 58.4511 28.2141 58.1522 28.2456C58.1522 28.2456 57.5858 28.2298 56.752 28.1195C56.752 28.1195 57.5071 28.4188 58.0892 28.4976C58.6713 28.5764 60.3075 27.9935 60.9211 27.8045L61.0784 27.7572L61.1413 27.5997C61.2515 27.3319 63.7057 21.1881 63.6113 19.345C63.5012 17.7854 62.1954 11.5156 61.865 9.83003Z" fill="#FFCBCB"/>
<path opacity="0.5" d="M47.4383 15.6587C47.4383 15.643 47.454 15.643 47.4383 15.6587C47.4226 15.706 47.454 15.643 47.4383 15.6587Z" fill="url(#paint33_radial_1_721)"/>
<path opacity="0.05" d="M59.9771 16.9662C62.1168 16.8244 62.5887 14.3827 62.1954 12.9176C61.8021 11.4526 60.6851 10.854 59.0961 11.2005C55.4147 12.0355 58.341 17.0765 59.9771 16.9662Z" fill="url(#paint34_radial_1_721)"/>
<path d="M59.6782 14.2251C59.7726 14.7923 59.5681 15.2964 59.2062 15.3594C58.8444 15.4224 58.4825 15.0128 58.3881 14.4457C58.2937 13.8786 58.4983 13.3745 58.8601 13.3115C59.222 13.2484 59.5838 13.658 59.6782 14.2251Z" fill="#311213"/>
<path d="M58.8758 13.3272C58.8758 13.3272 59.5681 13.5162 59.9614 12.8704C59.7726 13.5478 59.5366 13.9258 58.8758 13.3272Z" fill="#311213"/>
<path d="M59.2849 13.4375C59.2849 13.4375 59.8198 13.8943 60.4648 13.4848C60.0086 14.0204 59.631 14.2567 59.2849 13.4375Z" fill="#311213"/>
<path d="M59.159 14.0676C59.2062 14.3826 59.0961 14.6505 58.9073 14.682C58.7185 14.7135 58.514 14.4929 58.4511 14.1779C58.4039 13.8628 58.514 13.595 58.7028 13.5635C58.9073 13.532 59.1118 13.7525 59.159 14.0676Z" fill="white"/>
<path d="M57.3812 12.6498C59.159 10.3184 61.6605 11.6416 61.6605 11.6416C61.6605 11.6416 60.2131 10.2081 58.1521 11.043C56.9093 11.5471 57.3812 12.6498 57.3812 12.6498Z" fill="#311213"/>
<path opacity="0.05" d="M52.1423 19.0456C54.282 18.9038 54.7539 16.4621 54.3606 14.997C53.9673 13.532 52.8503 12.9334 51.2613 13.2799C47.5799 14.1149 50.5062 19.1559 52.1423 19.0456Z" fill="url(#paint35_radial_1_721)"/>
<path d="M49.4206 15.1861C51.2141 12.3663 53.7156 13.8156 53.7156 13.8156C53.7156 13.8156 53.4796 12.382 51.812 12.7601C50.0185 13.1539 49.4206 15.1861 49.4206 15.1861Z" fill="#311213"/>
<path d="M52.7716 15.7217C52.866 16.2888 52.6615 16.7929 52.2997 16.856C51.9378 16.919 51.576 16.5094 51.4816 15.9423C51.3872 15.3751 51.5917 14.871 51.9535 14.808C52.3154 14.7608 52.6772 15.1704 52.7716 15.7217Z" fill="#311213"/>
<path d="M51.9536 14.8238C51.9536 14.8238 52.6458 15.0128 53.0391 14.3669C52.866 15.0601 52.63 15.4382 51.9536 14.8238Z" fill="#311213"/>
<path d="M52.3783 14.9341C52.3783 14.9341 52.9132 15.3909 53.5582 14.9813C53.102 15.5169 52.7244 15.769 52.3783 14.9341Z" fill="#311213"/>
<path d="M52.2524 15.5642C52.2996 15.8793 52.1895 16.1471 52.0007 16.1786C51.8119 16.2101 51.6074 15.9896 51.5445 15.6745C51.4973 15.3594 51.6074 15.0916 51.7962 15.0601C52.0007 15.0444 52.2052 15.2649 52.2524 15.5642Z" fill="white"/>
<path d="M59.6939 21.2039L54.8798 22.1806C54.8798 22.1806 55.4461 23.8977 56.9407 24.449C58.4353 25.0004 59.3163 24.0394 59.3163 24.0394C59.0017 22.3538 59.6939 21.2039 59.6939 21.2039Z" fill="#562800"/>
<path d="M59.6939 21.2039L54.8798 22.1806C54.8798 22.1806 55.4461 23.8977 56.9407 24.449C58.4353 25.0004 59.3163 24.0394 59.3163 24.0394C59.0017 22.3538 59.6939 21.2039 59.6939 21.2039Z" fill="#562800"/>
<path d="M56.217 24.0395C56.4373 24.197 56.6733 24.3388 56.9565 24.449C58.4511 25.0004 59.3321 24.0395 59.3321 24.0395C59.3006 23.8819 59.2849 23.7244 59.2691 23.5826C59.159 23.4881 59.7569 23.8504 59.6625 24.197C59.5523 24.5436 58.0577 25.7881 56.217 24.0395Z" fill="#FF736C"/>
<path d="M55.7608 23.6141C56.0597 23.9449 56.4531 24.26 56.9565 24.449C57.9004 24.7956 58.6084 24.5435 59.0017 24.3072C58.9388 24.2442 57.7274 23.299 55.7608 23.6141Z" fill="#F43441"/>
<path d="M55.399 22.086C55.399 22.086 56.5789 21.8497 57.4127 21.6764C58.2466 21.5031 58.8287 21.4086 58.8287 21.4086C58.8287 21.4086 58.9073 21.8497 58.0892 22.0545C57.2711 22.2436 55.6035 22.4641 55.399 22.086Z" fill="white"/>
<path d="M54.8326 22.1648C54.8326 22.1648 57.2869 21.0463 57.5858 20.9991C57.8847 20.9518 58.3882 21.1093 58.3882 21.1093C58.3882 21.1093 58.6556 20.7943 58.8129 20.7785C58.986 20.7785 59.7884 21.1093 59.7884 21.1093C59.2063 21.2984 58.9703 21.4559 58.1522 21.6134C56.3115 21.9915 54.8326 22.1648 54.8326 22.1648Z" fill="#FF736C"/>
<path d="M59.2063 24.9058C59.1433 25.0318 59.0332 25.1106 58.9231 25.1579C58.813 25.2209 58.6871 25.2524 58.5612 25.2839C58.4354 25.3154 58.2938 25.3312 58.1679 25.3469C58.0263 25.3627 57.9005 25.3784 57.7589 25.3942C57.9005 25.4257 58.0263 25.4572 58.1679 25.4572C58.2308 25.4572 58.3095 25.4572 58.3724 25.4572C58.4354 25.4572 58.514 25.4414 58.577 25.4257C58.7186 25.3942 58.8601 25.3469 58.9703 25.2524C59.0961 25.1736 59.2063 25.0476 59.2063 24.9058Z" fill="#FF736C"/>
<path opacity="0.35" d="M53.9044 10.9012C53.9044 10.9012 51.2613 12.13 49.6723 11.9724C48.0676 11.8149 47.5327 10.9327 47.5327 10.9327C49.9241 9.62519 50.695 6.4903 50.695 6.4903C44.0873 13.9416 41.5229 8.34918 41.4128 8.27041C38.0775 13.2484 43.5996 16.5566 39.8553 22.023C36.0795 27.5209 37.9516 30.9866 40.1699 32.5619C40.5318 32.814 40.9251 33.0818 41.3341 33.3496C42.7343 32.1208 44.575 29.2537 43.1591 25.8825C42.1522 23.4723 43.0804 21.2826 43.0804 21.2826C42.4354 25.3627 47.3911 28.6709 42.4826 34.027C43.8828 34.7989 45.3459 35.3817 46.4629 35.3817C46.5416 35.2557 52.4727 33.129 47.3125 23.2202L48.0362 27.7414C43.8513 19.0456 47.4226 14.1464 47.4226 14.1464C52.5514 12.5395 53.9044 10.9012 53.9044 10.9012Z" fill="#CA9E67"/>
<defs>
<radialGradient id="paint0_radial_1_721" cx="0" cy="0" r="1" gradientUnits="userSpaceOnUse" gradientTransform="translate(72.9623 -24.5306) scale(68.942 69.0328)">
<stop offset="0.0106921" stop-color="#DEDC00"/>
<stop offset="0.197" stop-color="#B8CB0C"/>
<stop offset="0.5528" stop-color="#74AC22"/>
<stop offset="0.8108" stop-color="#4A9930"/>
<stop offset="0.9424" stop-color="#3A9235"/>
</radialGradient>
<radialGradient id="paint1_radial_1_721" cx="0" cy="0" r="1" gradientUnits="userSpaceOnUse" gradientTransform="translate(31.5327 25.1441) scale(20.9661 20.9937)">
<stop offset="0.2031" stop-color="#FCEA10"/>
<stop offset="1" stop-color="#F39200"/>
</radialGradient>
<radialGradient id="paint2_radial_1_721" cx="0" cy="0" r="1" gradientUnits="userSpaceOnUse" gradientTransform="translate(127.327 49.7351) rotate(61.7699) scale(20.9876 20.9724)">
<stop offset="0.2031" stop-color="#FCEA10"/>
<stop offset="1" stop-color="#F39200"/>
</radialGradient>
<radialGradient id="paint3_radial_1_721" cx="0" cy="0" r="1" gradientUnits="userSpaceOnUse" gradientTransform="translate(124.607 79.5182) rotate(27.0004) scale(11.2124 11.2211)">
<stop offset="0.2031" stop-color="#FCEA10"/>
<stop offset="1" stop-color="#F39200"/>
</radialGradient>
<radialGradient id="paint4_radial_1_721" cx="0" cy="0" r="1" gradientUnits="userSpaceOnUse" gradientTransform="translate(14.2357 57.6723) rotate(-61.6853) scale(11.2214 11.2133)">
<stop offset="0.2031" stop-color="#FCEA10"/>
<stop offset="1" stop-color="#F39200"/>
</radialGradient>
<radialGradient id="paint5_radial_1_721" cx="0" cy="0" r="1" gradientUnits="userSpaceOnUse" gradientTransform="translate(113.129 94.8924) rotate(-23.4496) scale(9.36043 9.36886)">
<stop offset="0.2031" stop-color="#FCEA10"/>
<stop offset="1" stop-color="#F39200"/>
</radialGradient>
<radialGradient id="paint6_radial_1_721" cx="0" cy="0" r="1" gradientUnits="userSpaceOnUse" gradientTransform="translate(109.758 92.5487) rotate(-23.4495) scale(9.36043 9.36885)">
<stop offset="0.2031" stop-color="#FCEA10"/>
<stop offset="1" stop-color="#F39200"/>
</radialGradient>
<radialGradient id="paint7_radial_1_721" cx="0" cy="0" r="1" gradientUnits="userSpaceOnUse" gradientTransform="translate(114.736 89.8298) rotate(-23.4496) scale(9.36043 9.36886)">
<stop offset="0.2031" stop-color="#FCEA10"/>
<stop offset="1" stop-color="#F39200"/>
</radialGradient>
<radialGradient id="paint8_radial_1_721" cx="0" cy="0" r="1" gradientUnits="userSpaceOnUse" gradientTransform="translate(111.694 86.43) rotate(-23.4496) scale(9.36043 9.36886)">
<stop offset="0.2031" stop-color="#FCEA10"/>
<stop offset="1" stop-color="#F39200"/>
</radialGradient>
<radialGradient id="paint9_radial_1_721" cx="0" cy="0" r="1" gradientUnits="userSpaceOnUse" gradientTransform="translate(34.4766 95.7911) rotate(-23.4496) scale(9.36043 9.36886)">
<stop offset="0.2031" stop-color="#FCEA10"/>
<stop offset="1" stop-color="#F39200"/>
</radialGradient>
<radialGradient id="paint10_radial_1_721" cx="0" cy="0" r="1" gradientUnits="userSpaceOnUse" gradientTransform="translate(31.1059 93.4473) rotate(-23.4496) scale(9.36043 9.36886)">
<stop offset="0.2031" stop-color="#FCEA10"/>
<stop offset="1" stop-color="#F39200"/>
</radialGradient>
<radialGradient id="paint11_radial_1_721" cx="0" cy="0" r="1" gradientUnits="userSpaceOnUse" gradientTransform="translate(34.5701 90.7284) rotate(-23.4496) scale(9.36043 9.36886)">
<stop offset="0.2031" stop-color="#FCEA10"/>
<stop offset="1" stop-color="#F39200"/>
</radialGradient>
<radialGradient id="paint12_radial_1_721" cx="0" cy="0" r="1" gradientUnits="userSpaceOnUse" gradientTransform="translate(31.855 88.1033) rotate(-23.4496) scale(9.36043 9.36886)">
<stop offset="0.2031" stop-color="#FCEA10"/>
<stop offset="1" stop-color="#F39200"/>
</radialGradient>
<radialGradient id="paint13_radial_1_721" cx="0" cy="0" r="1" gradientUnits="userSpaceOnUse" gradientTransform="translate(32.2474 85.2351) rotate(-23.4495) scale(9.36043 9.36885)">
<stop offset="0.2031" stop-color="#FCEA10"/>
<stop offset="1" stop-color="#F39200"/>
</radialGradient>
<radialGradient id="paint14_radial_1_721" cx="0" cy="0" r="1" gradientUnits="userSpaceOnUse" gradientTransform="translate(60.9339 34.6516) scale(10.5697 10.5837)">
<stop offset="0.0526211" stop-color="#FFBFA6"/>
<stop offset="0.2319" stop-color="#FFB6A1"/>
<stop offset="0.525" stop-color="#FF9D94"/>
<stop offset="0.8936" stop-color="#FF767F"/>
<stop offset="1" stop-color="#FF6978"/>
</radialGradient>
<radialGradient id="paint15_radial_1_721" cx="0" cy="0" r="1" gradientUnits="userSpaceOnUse" gradientTransform="translate(68.1398 36.3361) scale(23.6201 23.6512)">
<stop offset="0.0526211" stop-color="#FFBFA6"/>
<stop offset="0.2319" stop-color="#FFB6A1"/>
<stop offset="0.525" stop-color="#FF9D94"/>
<stop offset="0.8936" stop-color="#FF767F"/>
<stop offset="1" stop-color="#FF6978"/>
</radialGradient>
<radialGradient id="paint16_radial_1_721" cx="0" cy="0" r="1" gradientUnits="userSpaceOnUse" gradientTransform="translate(61.5227 19.7157) scale(45.9913 46.0519)">
<stop stop-color="#FCEA10"/>
<stop offset="1" stop-color="#F39200"/>
</radialGradient>
<radialGradient id="paint17_radial_1_721" cx="0" cy="0" r="1" gradientUnits="userSpaceOnUse" gradientTransform="translate(67.3214 11.7439) rotate(-3.63478) scale(33.5337 26.3599)">
<stop offset="0.0307263" stop-color="#FFFFCC"/>
<stop offset="0.4521" stop-color="#FFCDCC"/>
<stop offset="0.5827" stop-color="#FFC6C5"/>
<stop offset="0.7694" stop-color="#FFB3B3"/>
<stop offset="0.9888" stop-color="#FF9595"/>
<stop offset="1" stop-color="#FF9393"/>
</radialGradient>
<radialGradient id="paint18_radial_1_721" cx="0" cy="0" r="1" gradientUnits="userSpaceOnUse" gradientTransform="translate(73.8942 0.985623) rotate(-3.63349) scale(36.5026 36.5411)">
<stop offset="0.0307263" stop-color="#FFFFCC"/>
<stop offset="0.4521" stop-color="#FFCDCC"/>
<stop offset="0.5827" stop-color="#FFC6C5"/>
<stop offset="0.7694" stop-color="#FFB3B3"/>
<stop offset="0.9888" stop-color="#FF9595"/>
<stop offset="1" stop-color="#FF9393"/>
</radialGradient>
<linearGradient id="paint19_linear_1_721" x1="71.7831" y1="112.065" x2="63.3865" y2="103.945" gradientUnits="userSpaceOnUse">
<stop stop-color="#FFBFA6"/>
<stop offset="0.1835" stop-color="#FFB8A2"/>
<stop offset="0.4457" stop-color="#FFA598"/>
<stop offset="0.7536" stop-color="#FF8788"/>
<stop offset="1" stop-color="#FF6978"/>
</linearGradient>
<radialGradient id="paint20_radial_1_721" cx="0" cy="0" r="1" gradientUnits="userSpaceOnUse" gradientTransform="translate(67.7188 27.7613) scale(30.6953 30.7357)">
<stop stop-color="#FCEA10"/>
<stop offset="1" stop-color="#F39200"/>
</radialGradient>
<radialGradient id="paint21_radial_1_721" cx="0" cy="0" r="1" gradientUnits="userSpaceOnUse" gradientTransform="translate(93.506 39.7734) rotate(135.274) scale(31.7021 31.7025)">
<stop stop-color="#FFBFA6"/>
<stop offset="0.1965" stop-color="#FFB5A0"/>
<stop offset="0.5346" stop-color="#FF9992"/>
<stop offset="0.9711" stop-color="#FF6C7A"/>
<stop offset="1" stop-color="#FF6978"/>
</radialGradient>
<linearGradient id="paint22_linear_1_721" x1="95.7242" y1="0.817269" x2="95.5743" y2="16.0901" gradientUnits="userSpaceOnUse">
<stop stop-color="#FCEA10"/>
<stop offset="1" stop-color="#F39200"/>
</linearGradient>
<linearGradient id="paint23_linear_1_721" x1="79.1431" y1="9.14994" x2="81.5044" y2="26.7803" gradientUnits="userSpaceOnUse">
<stop stop-color="#FCEA10"/>
<stop offset="1" stop-color="#F39200"/>
</linearGradient>
<radialGradient id="paint24_radial_1_721" cx="0" cy="0" r="1" gradientUnits="userSpaceOnUse" gradientTransform="translate(87.8886 25.3768) rotate(-8.31916) scale(12.1663 12.1816)">
<stop stop-color="#FFBFA6"/>
<stop offset="0.1972" stop-color="#FFB5A0"/>
<stop offset="0.5377" stop-color="#FF9991"/>
<stop offset="0.9782" stop-color="#FF6B79"/>
<stop offset="1" stop-color="#FF6978"/>
</radialGradient>
<radialGradient id="paint25_radial_1_721" cx="0" cy="0" r="1" gradientUnits="userSpaceOnUse" gradientTransform="translate(84.0981 30.2095) rotate(-8.31916) scale(13.8715 13.889)">
<stop stop-color="#FFBFA6"/>
<stop offset="0.1972" stop-color="#FFB5A0"/>
<stop offset="0.5377" stop-color="#FF9991"/>
<stop offset="0.9782" stop-color="#FF6B79"/>
<stop offset="1" stop-color="#FF6978"/>
</radialGradient>
<radialGradient id="paint26_radial_1_721" cx="0" cy="0" r="1" gradientUnits="userSpaceOnUse" gradientTransform="translate(93.9909 37.1222) scale(25.1387 25.1718)">
<stop stop-color="#FCEA10"/>
<stop offset="1" stop-color="#F39200"/>
</radialGradient>
<radialGradient id="paint27_radial_1_721" cx="0" cy="0" r="1" gradientUnits="userSpaceOnUse" gradientTransform="translate(67.558 56.2859) scale(33.0195 33.063)">
<stop stop-color="#FCEA10"/>
<stop offset="1" stop-color="#F39200"/>
</radialGradient>
<radialGradient id="paint28_radial_1_721" cx="0" cy="0" r="1" gradientUnits="userSpaceOnUse" gradientTransform="translate(57.0153 63.9375) scale(20.4145 20.4414)">
<stop stop-color="#FFBFA6"/>
<stop offset="0.1972" stop-color="#FFB5A0"/>
<stop offset="0.5377" stop-color="#FF9991"/>
<stop offset="0.9782" stop-color="#FF6B79"/>
<stop offset="1" stop-color="#FF6978"/>
</radialGradient>
<radialGradient id="paint29_radial_1_721" cx="0" cy="0" r="1" gradientUnits="userSpaceOnUse" gradientTransform="translate(69.6697 2.34915) rotate(-5.30414) scale(34.766 33.7992)">
<stop offset="0.0307263" stop-color="#FFFFCC"/>
<stop offset="0.4521" stop-color="#FFCDCC"/>
<stop offset="0.5827" stop-color="#FFC6C5"/>
<stop offset="0.7694" stop-color="#FFB3B3"/>
<stop offset="0.9888" stop-color="#FF9595"/>
<stop offset="1" stop-color="#FF9393"/>
</radialGradient>
<radialGradient id="paint30_radial_1_721" cx="0" cy="0" r="1" gradientUnits="userSpaceOnUse" gradientTransform="translate(72.5891 11.9912) rotate(-11.2944) scale(26.7532 26.0468)">
<stop offset="0.3082" stop-color="#FFE2D0"/>
<stop offset="1" stop-color="#FF9CA3"/>
</radialGradient>
<radialGradient id="paint31_radial_1_721" cx="0" cy="0" r="1" gradientUnits="userSpaceOnUse" gradientTransform="translate(58.1659 15.1152) rotate(-5.49235) scale(18.9715 25.6623)">
<stop offset="0.0526211" stop-color="#FFBFA6"/>
<stop offset="0.2319" stop-color="#FFB6A1"/>
<stop offset="0.525" stop-color="#FF9D94"/>
<stop offset="0.8936" stop-color="#FF767F"/>
<stop offset="1" stop-color="#FF6978"/>
</radialGradient>
<radialGradient id="paint32_radial_1_721" cx="0" cy="0" r="1" gradientUnits="userSpaceOnUse" gradientTransform="translate(58.8849 -3.0007) rotate(-5.49235) scale(57.1385 55.5509)">
<stop stop-color="#A86100"/>
<stop offset="1" stop-color="#672B3A"/>
</radialGradient>
<radialGradient id="paint33_radial_1_721" cx="0" cy="0" r="1" gradientUnits="userSpaceOnUse" gradientTransform="translate(68.289 2.55446) rotate(-8.48214) scale(34.0999 33.175)">
<stop offset="0.0307263" stop-color="#FFFFCC"/>
<stop offset="0.4521" stop-color="#FFCDCC"/>
<stop offset="0.5827" stop-color="#FFC6C5"/>
<stop offset="0.7694" stop-color="#FFB3B3"/>
<stop offset="0.9888" stop-color="#FF9595"/>
<stop offset="1" stop-color="#FF9393"/>
</radialGradient>
<radialGradient id="paint34_radial_1_721" cx="0" cy="0" r="1" gradientUnits="userSpaceOnUse" gradientTransform="translate(60.2566 15.3026) rotate(165.519) scale(7.68689 7.49398)">
<stop offset="0.257" stop-color="white"/>
<stop offset="0.3824" stop-color="#FFE2E2"/>
<stop offset="1" stop-color="#FF5459"/>
</radialGradient>
<radialGradient id="paint35_radial_1_721" cx="0" cy="0" r="1" gradientUnits="userSpaceOnUse" gradientTransform="translate(52.3329 17.0392) rotate(165.519) scale(7.68689 7.49398)">
<stop offset="0.257" stop-color="white"/>
<stop offset="0.3824" stop-color="#FFE2E2"/>
<stop offset="1" stop-color="#FF5459"/>
</radialGradient>
</defs>
</svg>
